<?xml version="1.0" encoding="UTF-8" standalone="no"?>
<!DOCTYPE svg PUBLIC "-//W3C//DTD SVG 1.1//EN"
 "http://www.w3.org/Graphics/SVG/1.1/DTD/svg11.dtd">
<!-- Generated by graphviz version 2.28.0 (20140111.2315)
 -->
<!-- Title: one_gulp_streams_graph Pages: 1 -->
<svg width="1164pt" height="483pt"
 viewBox="0.00 0.00 1164.00 483.00" xmlns="http://www.w3.org/2000/svg" xmlns:xlink="http://www.w3.org/1999/xlink">
<g id="graph0" class="graph" transform="scale(1 1) rotate(0) translate(36 447)">
<title>one_gulp_streams_graph</title>
<polygon fill="white" stroke="none" points="-36,36 -36,-447 1128,-447 1128,36 -36,36"/>
<text text-anchor="middle" x="546" y="-389" font-family="sans-serif" font-size="20.00">one&#45;gulp streams graph</text>
<!-- 7559f296&#45;1713&#45;49bb&#45;8351&#45;4d84388dac4f -->
<g id="node1" class="node"><title>7559f296&#45;1713&#45;49bb&#45;8351&#45;4d84388dac4f</title>
<ellipse fill="none" stroke="mediumslateblue" stroke-width="2" cx="344" cy="-179" rx="28.1045" ry="21.56"/>
<text text-anchor="middle" x="344" y="-174.8" font-family="sans-serif" font-size="14.00" fill="mediumslateblue">html</text>
</g>
<!-- ff9652b1&#45;ec11&#45;4273&#45;9a15&#45;7ebad0bf9d25 -->
<g id="node13" class="node"><title>ff9652b1&#45;ec11&#45;4273&#45;9a15&#45;7ebad0bf9d25</title>
<polygon fill="none" stroke="black" stroke-width="2" points="560.423,-239 477.577,-239 477.577,-203 560.423,-203 560.423,-239"/>
<text text-anchor="middle" x="519" y="-216.8" font-family="sans-serif" font-size="14.00">injectDev</text>
</g>
<!-- 7559f296&#45;1713&#45;49bb&#45;8351&#45;4d84388dac4f&#45;&gt;ff9652b1&#45;ec11&#45;4273&#45;9a15&#45;7ebad0bf9d25 -->
<g id="edge9" class="edge"><title>7559f296&#45;1713&#45;49bb&#45;8351&#45;4d84388dac4f&#45;&gt;ff9652b1&#45;ec11&#45;4273&#45;9a15&#45;7ebad0bf9d25</title>
<path fill="none" stroke="mediumslateblue" stroke-width="1.5" d="M370.9,-185.288C396.416,-191.483 436.071,-201.11 467.782,-208.808"/>
<polygon fill="mediumslateblue" stroke="mediumslateblue" stroke-width="1.5" points="467.226,-212.275 477.77,-211.233 468.878,-205.473 467.226,-212.275"/>
</g>
<!-- 23ddbe15&#45;6023&#45;4f2d&#45;b3c9&#45;cad841d7a476 -->
<g id="node14" class="node"><title>23ddbe15&#45;6023&#45;4f2d&#45;b3c9&#45;cad841d7a476</title>
<polygon fill="none" stroke="black" stroke-width="2" points="724.545,-242 639.455,-242 639.455,-206 724.545,-206 724.545,-242"/>
<text text-anchor="middle" x="682" y="-219.8" font-family="sans-serif" font-size="14.00">injectProd</text>
</g>
<!-- 7559f296&#45;1713&#45;49bb&#45;8351&#45;4d84388dac4f&#45;&gt;23ddbe15&#45;6023&#45;4f2d&#45;b3c9&#45;cad841d7a476 -->
<g id="edge12" class="edge"><title>7559f296&#45;1713&#45;49bb&#45;8351&#45;4d84388dac4f&#45;&gt;23ddbe15&#45;6023&#45;4f2d&#45;b3c9&#45;cad841d7a476</title>
<path fill="none" stroke="mediumslateblue" stroke-width="1.5" d="M372.259,-178.868C413.571,-179.064 494.389,-181.001 562,-192 584.411,-195.646 608.693,-201.769 629.443,-207.688"/>
<polygon fill="mediumslateblue" stroke="mediumslateblue" stroke-width="1.5" points="628.742,-211.129 639.322,-210.566 630.7,-204.409 628.742,-211.129"/>
</g>
<!-- 98e41157&#45;b85e&#45;4c40&#45;98d3&#45;1d3871da1351 -->
<g id="node2" class="node"><title>98e41157&#45;b85e&#45;4c40&#45;98d3&#45;1d3871da1351</title>
<ellipse fill="none" stroke="mediumslateblue" stroke-width="2" cx="27" cy="-259" rx="27" ry="21.56"/>
<text text-anchor="middle" x="27" y="-254.8" font-family="sans-serif" font-size="14.00" fill="mediumslateblue">css</text>
</g>
<!-- 4942b2ff&#45;2505&#45;4b57&#45;9826&#45;adcb70d9eb46 -->
<g id="node5" class="node"><title>4942b2ff&#45;2505&#45;4b57&#45;9826&#45;adcb70d9eb46</title>
<polygon fill="none" stroke="black" stroke-width="2" points="211.533,-277 126.467,-277 126.467,-241 211.533,-241 211.533,-277"/>
<text text-anchor="middle" x="169" y="-254.8" font-family="sans-serif" font-size="14.00">autoprefix</text>
</g>
<!-- 98e41157&#45;b85e&#45;4c40&#45;98d3&#45;1d3871da1351&#45;&gt;4942b2ff&#45;2505&#45;4b57&#45;9826&#45;adcb70d9eb46 -->
<g id="edge1" class="edge"><title>98e41157&#45;b85e&#45;4c40&#45;98d3&#45;1d3871da1351&#45;&gt;4942b2ff&#45;2505&#45;4b57&#45;9826&#45;adcb70d9eb46</title>
<path fill="none" stroke="mediumslateblue" stroke-width="1.5" d="M54.0048,-259C71.4695,-259 95.0787,-259 116.282,-259"/>
<polygon fill="mediumslateblue" stroke="mediumslateblue" stroke-width="1.5" points="116.459,-262.5 126.459,-259 116.459,-255.5 116.459,-262.5"/>
</g>
<!-- 529c3235&#45;8bc0&#45;4428&#45;8657&#45;ffa43844bb2c -->
<g id="node3" class="node"><title>529c3235&#45;8bc0&#45;4428&#45;8657&#45;ffa43844bb2c</title>
<ellipse fill="none" stroke="mediumslateblue" stroke-width="2" cx="169" cy="-117" rx="27" ry="21.56"/>
<text text-anchor="middle" x="169" y="-112.8" font-family="sans-serif" font-size="14.00" fill="mediumslateblue">js</text>
</g>
<!-- 5d9500a2&#45;5eb4&#45;4038&#45;a5bc&#45;2792dcf059b9 -->
<g id="node12" class="node"><title>5d9500a2&#45;5eb4&#45;4038&#45;a5bc&#45;2792dcf059b9</title>
<polygon fill="none" stroke="black" stroke-width="2" points="399.434,-259 288.566,-259 288.566,-223 399.434,-223 399.434,-259"/>
<text text-anchor="middle" x="344" y="-236.8" font-family="sans-serif" font-size="14.00">sortJsByDepth</text>
</g>
<!-- 529c3235&#45;8bc0&#45;4428&#45;8657&#45;ffa43844bb2c&#45;&gt;5d9500a2&#45;5eb4&#45;4038&#45;a5bc&#45;2792dcf059b9 -->
<g id="edge8" class="edge"><title>529c3235&#45;8bc0&#45;4428&#45;8657&#45;ffa43844bb2c&#45;&gt;5d9500a2&#45;5eb4&#45;4038&#45;a5bc&#45;2792dcf059b9</title>
<path fill="none" stroke="mediumslateblue" stroke-width="1.5" d="M187.222,-133.257C208.769,-153.096 247.308,-186.962 284,-211 287.723,-213.439 291.67,-215.827 295.689,-218.123"/>
<polygon fill="mediumslateblue" stroke="mediumslateblue" stroke-width="1.5" points="294.09,-221.238 304.539,-222.988 297.462,-215.104 294.09,-221.238"/>
</g>
<!-- 25bdd1d4&#45;f35a&#45;45b0&#45;b58a&#45;850cc9959fb1 -->
<g id="node16" class="node"><title>25bdd1d4&#45;f35a&#45;45b0&#45;b58a&#45;850cc9959fb1</title>
<polygon fill="limegreen" stroke="limegreen" points="911.584,-107.3 802.416,-107.3 802.416,-54.6996 911.584,-54.6996 911.584,-107.3"/>
<text text-anchor="middle" x="857" y="-76.8" font-family="sans-serif" font-size="14.00" fill="white">browserSync</text>
</g>
<!-- 529c3235&#45;8bc0&#45;4428&#45;8657&#45;ffa43844bb2c&#45;&gt;25bdd1d4&#45;f35a&#45;45b0&#45;b58a&#45;850cc9959fb1 -->
<g id="edge18" class="edge"><title>529c3235&#45;8bc0&#45;4428&#45;8657&#45;ffa43844bb2c&#45;&gt;25bdd1d4&#45;f35a&#45;45b0&#45;b58a&#45;850cc9959fb1</title>
<path fill="none" stroke="mediumslateblue" stroke-width="1.5" d="M196.257,-115.308C219.36,-113.838 253.907,-111.687 284,-110 468.47,-99.6605 686.498,-89.0524 792.186,-84.0128"/>
<polygon fill="mediumslateblue" stroke="mediumslateblue" stroke-width="1.5" points="792.543,-87.4998 802.365,-83.528 792.21,-80.5077 792.543,-87.4998"/>
</g>
<!-- cb4ae761&#45;5ce6&#45;401a&#45;bbf7&#45;0ddab27771a6 -->
<g id="node4" class="node"><title>cb4ae761&#45;5ce6&#45;401a&#45;bbf7&#45;0ddab27771a6</title>
<ellipse fill="none" stroke="mediumslateblue" stroke-width="2" cx="682" cy="-21" rx="37.8797" ry="21.56"/>
<text text-anchor="middle" x="682" y="-16.8" font-family="sans-serif" font-size="14.00" fill="mediumslateblue">images</text>
</g>
<!-- cb4ae761&#45;5ce6&#45;401a&#45;bbf7&#45;0ddab27771a6&#45;&gt;25bdd1d4&#45;f35a&#45;45b0&#45;b58a&#45;850cc9959fb1 -->
<g id="edge19" class="edge"><title>cb4ae761&#45;5ce6&#45;401a&#45;bbf7&#45;0ddab27771a6&#45;&gt;25bdd1d4&#45;f35a&#45;45b0&#45;b58a&#45;850cc9959fb1</title>
<path fill="none" stroke="mediumslateblue" stroke-width="1.5" d="M714.731,-32.0049C736.537,-39.5677 766.232,-49.8665 792.77,-59.0705"/>
<polygon fill="mediumslateblue" stroke="mediumslateblue" stroke-width="1.5" points="791.789,-62.4347 802.384,-62.4048 794.083,-55.8212 791.789,-62.4347"/>
</g>
<!-- 4d93b64e&#45;28e7&#45;471e&#45;a2e2&#45;3c81414eb96a -->
<g id="node17" class="node"><title>4d93b64e&#45;28e7&#45;471e&#45;a2e2&#45;3c81414eb96a</title>
<polygon fill="limegreen" stroke="limegreen" points="1091.26,-276.3 984.741,-276.3 984.741,-223.7 1091.26,-223.7 1091.26,-276.3"/>
<text text-anchor="middle" x="1038" y="-245.8" font-family="sans-serif" font-size="14.00" fill="white">writeToProd</text>
</g>
<!-- cb4ae761&#45;5ce6&#45;401a&#45;bbf7&#45;0ddab27771a6&#45;&gt;4d93b64e&#45;28e7&#45;471e&#45;a2e2&#45;3c81414eb96a -->
<g id="edge23" class="edge"><title>cb4ae761&#45;5ce6&#45;401a&#45;bbf7&#45;0ddab27771a6&#45;&gt;4d93b64e&#45;28e7&#45;471e&#45;a2e2&#45;3c81414eb96a</title>
<path fill="none" stroke="mediumslateblue" stroke-width="1.5" d="M718.687,-15.3426C766.587,-9.67962 852.52,-6.48114 912,-44 974.431,-83.3807 1010.18,-166.34 1026.38,-214.095"/>
<polygon fill="mediumslateblue" stroke="mediumslateblue" stroke-width="1.5" points="1023.09,-215.314 1029.54,-223.723 1029.74,-213.13 1023.09,-215.314"/>
</g>
<!-- d0f7b196&#45;c175&#45;4afe&#45;9180&#45;e81909f0b99d -->
<g id="node11" class="node"><title>d0f7b196&#45;c175&#45;4afe&#45;9180&#45;e81909f0b99d</title>
<polygon fill="none" stroke="black" stroke-width="2" points="403.77,-317 284.23,-317 284.23,-281 403.77,-281 403.77,-317"/>
<text text-anchor="middle" x="344" y="-294.8" font-family="sans-serif" font-size="14.00">sortCssByDepth</text>
</g>
<!-- 4942b2ff&#45;2505&#45;4b57&#45;9826&#45;adcb70d9eb46&#45;&gt;d0f7b196&#45;c175&#45;4afe&#45;9180&#45;e81909f0b99d -->
<g id="edge7" class="edge"><title>4942b2ff&#45;2505&#45;4b57&#45;9826&#45;adcb70d9eb46&#45;&gt;d0f7b196&#45;c175&#45;4afe&#45;9180&#45;e81909f0b99d</title>
<path fill="none" stroke="black" stroke-width="1.5" d="M211.878,-268.683C230.612,-273.014 253.19,-278.235 274.291,-283.114"/>
<polygon fill="black" stroke="black" stroke-width="1.5" points="273.653,-286.558 284.185,-285.401 275.23,-279.738 273.653,-286.558"/>
</g>
<!-- cf20f198&#45;3491&#45;4325&#45;9e40&#45;82a512868034 -->
<g id="node15" class="node"><title>cf20f198&#45;3491&#45;4325&#45;9e40&#45;82a512868034</title>
<polygon fill="none" stroke="black" stroke-width="2" points="729.637,-147 634.363,-147 634.363,-111 729.637,-111 729.637,-147"/>
<text text-anchor="middle" x="682" y="-124.8" font-family="sans-serif" font-size="14.00">writeToDev</text>
</g>
<!-- 4942b2ff&#45;2505&#45;4b57&#45;9826&#45;adcb70d9eb46&#45;&gt;cf20f198&#45;3491&#45;4325&#45;9e40&#45;82a512868034 -->
<g id="edge16" class="edge"><title>4942b2ff&#45;2505&#45;4b57&#45;9826&#45;adcb70d9eb46&#45;&gt;cf20f198&#45;3491&#45;4325&#45;9e40&#45;82a512868034</title>
<path fill="none" stroke="black" stroke-width="1.5" d="M181.719,-240.786C199.93,-214.32 237.779,-166.193 284,-146 396.38,-96.9029 544.119,-107.795 623.92,-119.037"/>
<polygon fill="black" stroke="black" stroke-width="1.5" points="623.848,-122.564 634.249,-120.548 624.861,-115.638 623.848,-122.564"/>
</g>
<!-- 997ae736&#45;45a6&#45;4dc1&#45;a0dd&#45;218df7043b5f -->
<g id="node6" class="node"><title>997ae736&#45;45a6&#45;4dc1&#45;a0dd&#45;218df7043b5f</title>
<polygon fill="none" stroke="black" stroke-width="2" points="904.111,-239 809.889,-239 809.889,-203 904.111,-203 904.111,-239"/>
<text text-anchor="middle" x="857" y="-216.8" font-family="sans-serif" font-size="14.00">minifyHtml</text>
</g>
<!-- 997ae736&#45;45a6&#45;4dc1&#45;a0dd&#45;218df7043b5f&#45;&gt;4d93b64e&#45;28e7&#45;471e&#45;a2e2&#45;3c81414eb96a -->
<g id="edge20" class="edge"><title>997ae736&#45;45a6&#45;4dc1&#45;a0dd&#45;218df7043b5f&#45;&gt;4d93b64e&#45;28e7&#45;471e&#45;a2e2&#45;3c81414eb96a</title>
<path fill="none" stroke="black" stroke-width="1.5" d="M904.097,-228.468C925.573,-231.948 951.447,-236.14 974.637,-239.897"/>
<polygon fill="black" stroke="black" stroke-width="1.5" points="974.302,-243.388 984.733,-241.532 975.422,-236.478 974.302,-243.388"/>
</g>
<!-- 1abe6a2e&#45;7ace&#45;44d9&#45;9cc4&#45;1272cdda115b -->
<g id="node7" class="node"><title>1abe6a2e&#45;7ace&#45;44d9&#45;9cc4&#45;1272cdda115b</title>
<polygon fill="none" stroke="black" stroke-width="2" points="899.559,-355 814.441,-355 814.441,-319 899.559,-319 899.559,-355"/>
<text text-anchor="middle" x="857" y="-332.8" font-family="sans-serif" font-size="14.00">minifyCss</text>
</g>
<!-- 1abe6a2e&#45;7ace&#45;44d9&#45;9cc4&#45;1272cdda115b&#45;&gt;4d93b64e&#45;28e7&#45;471e&#45;a2e2&#45;3c81414eb96a -->
<g id="edge21" class="edge"><title>1abe6a2e&#45;7ace&#45;44d9&#45;9cc4&#45;1272cdda115b&#45;&gt;4d93b64e&#45;28e7&#45;471e&#45;a2e2&#45;3c81414eb96a</title>
<path fill="none" stroke="black" stroke-width="1.5" d="M895.089,-318.974C918.264,-307.71 948.679,-292.927 975.405,-279.937"/>
<polygon fill="black" stroke="black" stroke-width="1.5" points="977.222,-282.946 984.686,-275.426 974.162,-276.65 977.222,-282.946"/>
</g>
<!-- daab272d&#45;4f3c&#45;4839&#45;83e7&#45;efa5819fcc58 -->
<g id="node8" class="node"><title>daab272d&#45;4f3c&#45;4839&#45;83e7&#45;efa5819fcc58</title>
<polygon fill="none" stroke="black" stroke-width="2" points="561.261,-355 476.739,-355 476.739,-319 561.261,-319 561.261,-355"/>
<text text-anchor="middle" x="519" y="-332.8" font-family="sans-serif" font-size="14.00">concatCss</text>
</g>
<!-- daab272d&#45;4f3c&#45;4839&#45;83e7&#45;efa5819fcc58&#45;&gt;1abe6a2e&#45;7ace&#45;44d9&#45;9cc4&#45;1272cdda115b -->
<g id="edge3" class="edge"><title>daab272d&#45;4f3c&#45;4839&#45;83e7&#45;efa5819fcc58&#45;&gt;1abe6a2e&#45;7ace&#45;44d9&#45;9cc4&#45;1272cdda115b</title>
<path fill="none" stroke="black" stroke-width="1.5" d="M561.537,-337C622.786,-337 737.265,-337 804.008,-337"/>
<polygon fill="black" stroke="black" stroke-width="1.5" points="804.294,-340.5 814.294,-337 804.294,-333.5 804.294,-340.5"/>
</g>
<!-- daab272d&#45;4f3c&#45;4839&#45;83e7&#45;efa5819fcc58&#45;&gt;23ddbe15&#45;6023&#45;4f2d&#45;b3c9&#45;cad841d7a476 -->
<g id="edge13" class="edge"><title>daab272d&#45;4f3c&#45;4839&#45;83e7&#45;efa5819fcc58&#45;&gt;23ddbe15&#45;6023&#45;4f2d&#45;b3c9&#45;cad841d7a476</title>
<path fill="none" stroke="black" stroke-dasharray="5,2" d="M546.242,-318.942C551.469,-315.328 556.914,-311.551 562,-308 590.809,-287.887 623.398,-264.864 647.18,-248.013"/>
<polygon fill="none" stroke="black" points="649.385,-250.74 655.519,-242.101 645.337,-245.029 649.385,-250.74"/>
</g>
<!-- 7bca9959&#45;3404&#45;46fa&#45;aa08&#45;87cbd91b98b0 -->
<g id="node9" class="node"><title>7bca9959&#45;3404&#45;46fa&#45;aa08&#45;87cbd91b98b0</title>
<polygon fill="none" stroke="black" stroke-width="2" points="895.222,-297 818.778,-297 818.778,-261 895.222,-261 895.222,-297"/>
<text text-anchor="middle" x="857" y="-274.8" font-family="sans-serif" font-size="14.00">minifyJs</text>
</g>
<!-- 7bca9959&#45;3404&#45;46fa&#45;aa08&#45;87cbd91b98b0&#45;&gt;4d93b64e&#45;28e7&#45;471e&#45;a2e2&#45;3c81414eb96a -->
<g id="edge22" class="edge"><title>7bca9959&#45;3404&#45;46fa&#45;aa08&#45;87cbd91b98b0&#45;&gt;4d93b64e&#45;28e7&#45;471e&#45;a2e2&#45;3c81414eb96a</title>
<path fill="none" stroke="black" stroke-width="1.5" d="M895.524,-272.921C918.432,-269.209 948.292,-264.372 974.672,-260.098"/>
<polygon fill="black" stroke="black" stroke-width="1.5" points="975.279,-263.545 984.59,-258.491 974.159,-256.635 975.279,-263.545"/>
</g>
<!-- b787cf59&#45;314b&#45;4404&#45;87aa&#45;9b234afd09b9 -->
<g id="node10" class="node"><title>b787cf59&#45;314b&#45;4404&#45;87aa&#45;9b234afd09b9</title>
<polygon fill="none" stroke="black" stroke-width="2" points="556.925,-297 481.075,-297 481.075,-261 556.925,-261 556.925,-297"/>
<text text-anchor="middle" x="519" y="-274.8" font-family="sans-serif" font-size="14.00">concatJs</text>
</g>
<!-- b787cf59&#45;314b&#45;4404&#45;87aa&#45;9b234afd09b9&#45;&gt;7bca9959&#45;3404&#45;46fa&#45;aa08&#45;87cbd91b98b0 -->
<g id="edge5" class="edge"><title>b787cf59&#45;314b&#45;4404&#45;87aa&#45;9b234afd09b9&#45;&gt;7bca9959&#45;3404&#45;46fa&#45;aa08&#45;87cbd91b98b0</title>
<path fill="none" stroke="black" stroke-width="1.5" d="M556.919,-279C618.167,-279 740.727,-279 808.393,-279"/>
<polygon fill="black" stroke="black" stroke-width="1.5" points="808.764,-282.5 818.764,-279 808.764,-275.5 808.764,-282.5"/>
</g>
<!-- b787cf59&#45;314b&#45;4404&#45;87aa&#45;9b234afd09b9&#45;&gt;23ddbe15&#45;6023&#45;4f2d&#45;b3c9&#45;cad841d7a476 -->
<g id="edge14" class="edge"><title>b787cf59&#45;314b&#45;4404&#45;87aa&#45;9b234afd09b9&#45;&gt;23ddbe15&#45;6023&#45;4f2d&#45;b3c9&#45;cad841d7a476</title>
<path fill="none" stroke="black" stroke-dasharray="5,2" d="M556.937,-266.382C578.559,-258.995 606.183,-249.559 629.873,-241.466"/>
<polygon fill="none" stroke="black" points="631.083,-244.751 639.415,-238.206 628.82,-238.127 631.083,-244.751"/>
</g>
<!-- d0f7b196&#45;c175&#45;4afe&#45;9180&#45;e81909f0b99d&#45;&gt;daab272d&#45;4f3c&#45;4839&#45;83e7&#45;efa5819fcc58 -->
<g id="edge4" class="edge"><title>d0f7b196&#45;c175&#45;4afe&#45;9180&#45;e81909f0b99d&#45;&gt;daab272d&#45;4f3c&#45;4839&#45;83e7&#45;efa5819fcc58</title>
<path fill="none" stroke="black" stroke-width="1.5" d="M404.053,-311.971C424.391,-316.439 446.988,-321.402 466.661,-325.723"/>
<polygon fill="black" stroke="black" stroke-width="1.5" points="466.137,-329.191 476.655,-327.918 467.639,-322.354 466.137,-329.191"/>
</g>
<!-- d0f7b196&#45;c175&#45;4afe&#45;9180&#45;e81909f0b99d&#45;&gt;ff9652b1&#45;ec11&#45;4273&#45;9a15&#45;7ebad0bf9d25 -->
<g id="edge10" class="edge"><title>d0f7b196&#45;c175&#45;4afe&#45;9180&#45;e81909f0b99d&#45;&gt;ff9652b1&#45;ec11&#45;4273&#45;9a15&#45;7ebad0bf9d25</title>
<path fill="none" stroke="black" stroke-dasharray="5,2" d="M385.125,-280.909C409.927,-269.726 441.952,-255.287 468.348,-243.387"/>
<polygon fill="none" stroke="black" points="470.116,-246.429 477.794,-239.128 467.239,-240.047 470.116,-246.429"/>
</g>
<!-- 5d9500a2&#45;5eb4&#45;4038&#45;a5bc&#45;2792dcf059b9&#45;&gt;b787cf59&#45;314b&#45;4404&#45;87aa&#45;9b234afd09b9 -->
<g id="edge6" class="edge"><title>5d9500a2&#45;5eb4&#45;4038&#45;a5bc&#45;2792dcf059b9&#45;&gt;b787cf59&#45;314b&#45;4404&#45;87aa&#45;9b234afd09b9</title>
<path fill="none" stroke="black" stroke-width="1.5" d="M399.264,-252.919C422.379,-257.997 449.079,-263.861 471.298,-268.742"/>
<polygon fill="black" stroke="black" stroke-width="1.5" points="470.645,-272.182 481.163,-270.909 472.147,-265.345 470.645,-272.182"/>
</g>
<!-- 5d9500a2&#45;5eb4&#45;4038&#45;a5bc&#45;2792dcf059b9&#45;&gt;ff9652b1&#45;ec11&#45;4273&#45;9a15&#45;7ebad0bf9d25 -->
<g id="edge11" class="edge"><title>5d9500a2&#45;5eb4&#45;4038&#45;a5bc&#45;2792dcf059b9&#45;&gt;ff9652b1&#45;ec11&#45;4273&#45;9a15&#45;7ebad0bf9d25</title>
<path fill="none" stroke="black" stroke-dasharray="5,2" d="M399.264,-234.727C421.064,-232.206 446.052,-229.318 467.463,-226.842"/>
<polygon fill="none" stroke="black" points="468.126,-230.289 477.658,-225.664 467.322,-223.336 468.126,-230.289"/>
</g>
<!-- ff9652b1&#45;ec11&#45;4273&#45;9a15&#45;7ebad0bf9d25&#45;&gt;cf20f198&#45;3491&#45;4325&#45;9e40&#45;82a512868034 -->
<g id="edge15" class="edge"><title>ff9652b1&#45;ec11&#45;4273&#45;9a15&#45;7ebad0bf9d25&#45;&gt;cf20f198&#45;3491&#45;4325&#45;9e40&#45;82a512868034</title>
<path fill="none" stroke="black" stroke-width="1.5" d="M551.808,-202.824C577.167,-188.333 612.852,-167.942 640.294,-152.26"/>
<polygon fill="black" stroke="black" stroke-width="1.5" points="642.312,-155.139 649.258,-147.138 638.839,-149.061 642.312,-155.139"/>
</g>
<!-- 23ddbe15&#45;6023&#45;4f2d&#45;b3c9&#45;cad841d7a476&#45;&gt;997ae736&#45;45a6&#45;4dc1&#45;a0dd&#45;218df7043b5f -->
<g id="edge2" class="edge"><title>23ddbe15&#45;6023&#45;4f2d&#45;b3c9&#45;cad841d7a476&#45;&gt;997ae736&#45;45a6&#45;4dc1&#45;a0dd&#45;218df7043b5f</title>
<path fill="none" stroke="black" stroke-width="1.5" d="M724.878,-223.274C747.278,-222.885 775.176,-222.402 799.473,-221.98"/>
<polygon fill="black" stroke="black" stroke-width="1.5" points="799.701,-225.477 809.639,-221.804 799.58,-218.478 799.701,-225.477"/>
</g>
<!-- cf20f198&#45;3491&#45;4325&#45;9e40&#45;82a512868034&#45;&gt;25bdd1d4&#45;f35a&#45;45b0&#45;b58a&#45;850cc9959fb1 -->
<g id="edge17" class="edge"><title>cf20f198&#45;3491&#45;4325&#45;9e40&#45;82a512868034&#45;&gt;25bdd1d4&#45;f35a&#45;45b0&#45;b58a&#45;850cc9959fb1</title>
<path fill="none" stroke="black" stroke-width="1.5" d="M729.816,-116.011C749.167,-110.642 771.9,-104.334 792.701,-98.5628"/>
<polygon fill="black" stroke="black" stroke-width="1.5" points="793.717,-101.913 802.417,-95.867 791.845,-95.168 793.717,-101.913"/>
</g>
</g>
</svg>
