<?xml version="1.0" encoding="UTF-8" standalone="no"?>
<!DOCTYPE svg PUBLIC "-//W3C//DTD SVG 1.1//EN"
 "http://www.w3.org/Graphics/SVG/1.1/DTD/svg11.dtd">
<!-- Generated by graphviz version 2.28.0 (20140111.2315)
 -->
<!-- Title: one_gulp_streams_graph Pages: 1 -->
<svg width="1022pt" height="353pt"
 viewBox="0.00 0.00 1022.00 353.00" xmlns="http://www.w3.org/2000/svg" xmlns:xlink="http://www.w3.org/1999/xlink">
<g id="graph0" class="graph" transform="scale(1 1) rotate(0) translate(36 317)">
<title>one_gulp_streams_graph</title>
<polygon fill="white" stroke="none" points="-36,36 -36,-317 986,-317 986,36 -36,36"/>
<text text-anchor="middle" x="475" y="-259" font-family="sans-serif" font-size="20.00">one&#45;gulp streams graph</text>
<!-- 352d12ed&#45;2f4f&#45;4b7c&#45;a99a&#45;ae64b35bd662 -->
<g id="node1" class="node"><title>352d12ed&#45;2f4f&#45;4b7c&#45;a99a&#45;ae64b35bd662</title>
<ellipse fill="none" stroke="mediumslateblue" stroke-width="2" cx="371" cy="-49" rx="28.1045" ry="21.56"/>
<text text-anchor="middle" x="371" y="-44.8" font-family="sans-serif" font-size="14.00" fill="mediumslateblue">html</text>
</g>
<!-- 71a8ee33&#45;f131&#45;4d8e&#45;8853&#45;de9839202a1a -->
<g id="node8" class="node"><title>71a8ee33&#45;f131&#45;4d8e&#45;8853&#45;de9839202a1a</title>
<polygon fill="none" stroke="black" stroke-width="2" points="600.423,-106 517.577,-106 517.577,-70 600.423,-70 600.423,-106"/>
<text text-anchor="middle" x="559" y="-83.8" font-family="sans-serif" font-size="14.00">injectDev</text>
</g>
<!-- 352d12ed&#45;2f4f&#45;4b7c&#45;a99a&#45;ae64b35bd662&#45;&gt;71a8ee33&#45;f131&#45;4d8e&#45;8853&#45;de9839202a1a -->
<g id="edge2" class="edge"><title>352d12ed&#45;2f4f&#45;4b7c&#45;a99a&#45;ae64b35bd662&#45;&gt;71a8ee33&#45;f131&#45;4d8e&#45;8853&#45;de9839202a1a</title>
<path fill="none" stroke="mediumslateblue" stroke-width="1.5" d="M398.255,-54.505C426.509,-60.4293 472.134,-69.9959 507.405,-77.3914"/>
<polygon fill="mediumslateblue" stroke="mediumslateblue" stroke-width="1.5" points="507.015,-80.8857 517.521,-79.5124 508.452,-74.0347 507.015,-80.8857"/>
</g>
<!-- b9acb9ee&#45;1807&#45;4ad8&#45;b2f2&#45;f4bfbb4ec626 -->
<g id="node2" class="node"><title>b9acb9ee&#45;1807&#45;4ad8&#45;b2f2&#45;f4bfbb4ec626</title>
<ellipse fill="none" stroke="mediumslateblue" stroke-width="2" cx="175" cy="-203" rx="27" ry="21.56"/>
<text text-anchor="middle" x="175" y="-198.8" font-family="sans-serif" font-size="14.00" fill="mediumslateblue">css</text>
</g>
<!-- 3c9545ee&#45;417c&#45;4e6f&#45;8d8d&#45;bbc0198c0a7a -->
<g id="node9" class="node"><title>3c9545ee&#45;417c&#45;4e6f&#45;8d8d&#45;bbc0198c0a7a</title>
<polygon fill="none" stroke="black" stroke-width="2" points="446.08,-129 295.92,-129 295.92,-93 446.08,-93 446.08,-129"/>
<text text-anchor="middle" x="371" y="-106.8" font-family="sans-serif" font-size="14.00">groupAndReorderCss</text>
</g>
<!-- b9acb9ee&#45;1807&#45;4ad8&#45;b2f2&#45;f4bfbb4ec626&#45;&gt;3c9545ee&#45;417c&#45;4e6f&#45;8d8d&#45;bbc0198c0a7a -->
<g id="edge5" class="edge"><title>b9acb9ee&#45;1807&#45;4ad8&#45;b2f2&#45;f4bfbb4ec626&#45;&gt;3c9545ee&#45;417c&#45;4e6f&#45;8d8d&#45;bbc0198c0a7a</title>
<path fill="none" stroke="mediumslateblue" stroke-width="1.5" d="M197.322,-190.893C221.043,-177.639 260.685,-156.131 296,-140 301.226,-137.613 306.71,-135.235 312.23,-132.926"/>
<polygon fill="mediumslateblue" stroke="mediumslateblue" stroke-width="1.5" points="313.59,-136.151 321.513,-129.118 310.933,-129.675 313.59,-136.151"/>
</g>
<!-- d81d6a74&#45;d678&#45;4f10&#45;a1f8&#45;0297bbe4ae12 -->
<g id="node11" class="node"><title>d81d6a74&#45;d678&#45;4f10&#45;a1f8&#45;0297bbe4ae12</title>
<polygon fill="limegreen" stroke="limegreen" points="949.584,-176.3 840.416,-176.3 840.416,-123.7 949.584,-123.7 949.584,-176.3"/>
<text text-anchor="middle" x="895" y="-145.8" font-family="sans-serif" font-size="14.00" fill="white">browserSync</text>
</g>
<!-- b9acb9ee&#45;1807&#45;4ad8&#45;b2f2&#45;f4bfbb4ec626&#45;&gt;d81d6a74&#45;d678&#45;4f10&#45;a1f8&#45;0297bbe4ae12 -->
<g id="edge12" class="edge"><title>b9acb9ee&#45;1807&#45;4ad8&#45;b2f2&#45;f4bfbb4ec626&#45;&gt;d81d6a74&#45;d678&#45;4f10&#45;a1f8&#45;0297bbe4ae12</title>
<path fill="none" stroke="mediumslateblue" stroke-width="1.5" d="M202.217,-203.563C226.526,-204.054 263.705,-204.731 296,-205 506.194,-206.751 559.986,-205.244 768,-175 788.39,-172.035 810.474,-167.954 830.373,-163.949"/>
<polygon fill="mediumslateblue" stroke="mediumslateblue" stroke-width="1.5" points="831.156,-167.361 840.253,-161.931 829.755,-160.503 831.156,-167.361"/>
</g>
<!-- 8e9c1e6f&#45;3a84&#45;44aa&#45;aaa6&#45;bc3742632da1 -->
<g id="node3" class="node"><title>8e9c1e6f&#45;3a84&#45;44aa&#45;aaa6&#45;bc3742632da1</title>
<ellipse fill="none" stroke="mediumslateblue" stroke-width="2" cx="371" cy="-173" rx="27" ry="21.56"/>
<text text-anchor="middle" x="371" y="-168.8" font-family="sans-serif" font-size="14.00" fill="mediumslateblue">js</text>
</g>
<!-- 8e9c1e6f&#45;3a84&#45;44aa&#45;aaa6&#45;bc3742632da1&#45;&gt;71a8ee33&#45;f131&#45;4d8e&#45;8853&#45;de9839202a1a -->
<g id="edge3" class="edge"><title>8e9c1e6f&#45;3a84&#45;44aa&#45;aaa6&#45;bc3742632da1&#45;&gt;71a8ee33&#45;f131&#45;4d8e&#45;8853&#45;de9839202a1a</title>
<path fill="none" stroke="mediumslateblue" stroke-dasharray="5,2" d="M395.04,-162.833C409.663,-156.354 428.972,-147.749 446,-140 467.14,-130.379 490.447,-119.588 510.3,-110.341"/>
<polygon fill="none" stroke="mediumslateblue" points="511.866,-113.472 519.45,-106.074 508.908,-107.128 511.866,-113.472"/>
</g>
<!-- 8e9c1e6f&#45;3a84&#45;44aa&#45;aaa6&#45;bc3742632da1&#45;&gt;d81d6a74&#45;d678&#45;4f10&#45;a1f8&#45;0297bbe4ae12 -->
<g id="edge11" class="edge"><title>8e9c1e6f&#45;3a84&#45;44aa&#45;aaa6&#45;bc3742632da1&#45;&gt;d81d6a74&#45;d678&#45;4f10&#45;a1f8&#45;0297bbe4ae12</title>
<path fill="none" stroke="mediumslateblue" stroke-width="1.5" d="M398.244,-171.844C477.314,-168.36 714.882,-157.892 830.036,-152.818"/>
<polygon fill="mediumslateblue" stroke="mediumslateblue" stroke-width="1.5" points="830.284,-156.311 840.12,-152.374 829.976,-149.318 830.284,-156.311"/>
</g>
<!-- 8ece4e2c&#45;54a2&#45;464c&#45;b85c&#45;c97ed79fed0a -->
<g id="node4" class="node"><title>8ece4e2c&#45;54a2&#45;464c&#45;b85c&#45;c97ed79fed0a</title>
<ellipse fill="none" stroke="mediumslateblue" stroke-width="2" cx="720" cy="-122" rx="37.8797" ry="21.56"/>
<text text-anchor="middle" x="720" y="-117.8" font-family="sans-serif" font-size="14.00" fill="mediumslateblue">images</text>
</g>
<!-- 8ece4e2c&#45;54a2&#45;464c&#45;b85c&#45;c97ed79fed0a&#45;&gt;d81d6a74&#45;d678&#45;4f10&#45;a1f8&#45;0297bbe4ae12 -->
<g id="edge13" class="edge"><title>8ece4e2c&#45;54a2&#45;464c&#45;b85c&#45;c97ed79fed0a&#45;&gt;d81d6a74&#45;d678&#45;4f10&#45;a1f8&#45;0297bbe4ae12</title>
<path fill="none" stroke="mediumslateblue" stroke-width="1.5" d="M756.846,-127.802C778.07,-131.237 805.577,-135.689 830.38,-139.703"/>
<polygon fill="mediumslateblue" stroke="mediumslateblue" stroke-width="1.5" points="830.023,-143.191 840.454,-141.334 831.142,-136.281 830.023,-143.191"/>
</g>
<!-- bf412259&#45;f8b0&#45;41f7&#45;84e9&#45;a182a739bc55 -->
<g id="node5" class="node"><title>bf412259&#45;f8b0&#45;41f7&#45;84e9&#45;a182a739bc55</title>
<ellipse fill="none" stroke="mediumslateblue" stroke-width="2" cx="27" cy="-21" rx="27" ry="21.56"/>
<text text-anchor="middle" x="27" y="-16.8" font-family="sans-serif" font-size="14.00" fill="mediumslateblue">less</text>
</g>
<!-- e2d28db6&#45;e63f&#45;4c85&#45;bada&#45;05cfe9dfa76b -->
<g id="node7" class="node"><title>e2d28db6&#45;e63f&#45;4c85&#45;bada&#45;05cfe9dfa76b</title>
<polygon fill="none" stroke="black" stroke-width="2" points="202,-39 148,-39 148,-3 202,-3 202,-39"/>
<text text-anchor="middle" x="175" y="-16.8" font-family="sans-serif" font-size="14.00">less</text>
</g>
<!-- bf412259&#45;f8b0&#45;41f7&#45;84e9&#45;a182a739bc55&#45;&gt;e2d28db6&#45;e63f&#45;4c85&#45;bada&#45;05cfe9dfa76b -->
<g id="edge1" class="edge"><title>bf412259&#45;f8b0&#45;41f7&#45;84e9&#45;a182a739bc55&#45;&gt;e2d28db6&#45;e63f&#45;4c85&#45;bada&#45;05cfe9dfa76b</title>
<path fill="none" stroke="mediumslateblue" stroke-width="1.5" d="M54.1019,-21C77.3145,-21 111.498,-21 137.432,-21"/>
<polygon fill="mediumslateblue" stroke="mediumslateblue" stroke-width="1.5" points="137.632,-24.5001 147.632,-21 137.632,-17.5001 137.632,-24.5001"/>
</g>
<!-- 376d638a&#45;38f1&#45;4d45&#45;933c&#45;6ea56d1da1de -->
<g id="node6" class="node"><title>376d638a&#45;38f1&#45;4d45&#45;933c&#45;6ea56d1da1de</title>
<ellipse fill="none" stroke="mediumslateblue" stroke-width="2" cx="175" cy="-111" rx="48.8744" ry="21.56"/>
<text text-anchor="middle" x="175" y="-106.8" font-family="sans-serif" font-size="14.00" fill="mediumslateblue">bowerCss</text>
</g>
<!-- 376d638a&#45;38f1&#45;4d45&#45;933c&#45;6ea56d1da1de&#45;&gt;3c9545ee&#45;417c&#45;4e6f&#45;8d8d&#45;bbc0198c0a7a -->
<g id="edge6" class="edge"><title>376d638a&#45;38f1&#45;4d45&#45;933c&#45;6ea56d1da1de&#45;&gt;3c9545ee&#45;417c&#45;4e6f&#45;8d8d&#45;bbc0198c0a7a</title>
<path fill="none" stroke="mediumslateblue" stroke-width="1.5" d="M223.955,-111C242.565,-111 264.444,-111 285.521,-111"/>
<polygon fill="mediumslateblue" stroke="mediumslateblue" stroke-width="1.5" points="285.785,-114.5 295.785,-111 285.785,-107.5 285.785,-114.5"/>
</g>
<!-- e2d28db6&#45;e63f&#45;4c85&#45;bada&#45;05cfe9dfa76b&#45;&gt;3c9545ee&#45;417c&#45;4e6f&#45;8d8d&#45;bbc0198c0a7a -->
<g id="edge7" class="edge"><title>e2d28db6&#45;e63f&#45;4c85&#45;bada&#45;05cfe9dfa76b&#45;&gt;3c9545ee&#45;417c&#45;4e6f&#45;8d8d&#45;bbc0198c0a7a</title>
<path fill="none" stroke="black" stroke-width="1.5" d="M202.402,-34.9505C226.526,-47.5171 263.312,-66.2295 296,-81 302.026,-83.7231 308.376,-86.473 314.72,-89.1452"/>
<polygon fill="black" stroke="black" stroke-width="1.5" points="313.394,-92.3843 323.971,-92.9925 316.082,-85.9209 313.394,-92.3843"/>
</g>
<!-- 1a542f38&#45;3208&#45;4823&#45;adc1&#45;ff8e1147d91f -->
<g id="node10" class="node"><title>1a542f38&#45;3208&#45;4823&#45;adc1&#45;ff8e1147d91f</title>
<polygon fill="none" stroke="black" stroke-width="2" points="767.637,-78 672.363,-78 672.363,-42 767.637,-42 767.637,-78"/>
<text text-anchor="middle" x="720" y="-55.8" font-family="sans-serif" font-size="14.00">writeToDev</text>
</g>
<!-- e2d28db6&#45;e63f&#45;4c85&#45;bada&#45;05cfe9dfa76b&#45;&gt;1a542f38&#45;3208&#45;4823&#45;adc1&#45;ff8e1147d91f -->
<g id="edge8" class="edge"><title>e2d28db6&#45;e63f&#45;4c85&#45;bada&#45;05cfe9dfa76b&#45;&gt;1a542f38&#45;3208&#45;4823&#45;adc1&#45;ff8e1147d91f</title>
<path fill="none" stroke="black" stroke-width="1.5" d="M202.208,-19.5935C226.512,-18.3639 263.687,-16.6729 296,-16 362.652,-14.612 379.546,-10.6791 446,-16 521.234,-22.024 607.023,-37.2434 662.029,-48.0921"/>
<polygon fill="black" stroke="black" stroke-width="1.5" points="661.441,-51.5437 671.932,-50.0637 662.808,-44.6784 661.441,-51.5437"/>
</g>
<!-- 71a8ee33&#45;f131&#45;4d8e&#45;8853&#45;de9839202a1a&#45;&gt;1a542f38&#45;3208&#45;4823&#45;adc1&#45;ff8e1147d91f -->
<g id="edge9" class="edge"><title>71a8ee33&#45;f131&#45;4d8e&#45;8853&#45;de9839202a1a&#45;&gt;1a542f38&#45;3208&#45;4823&#45;adc1&#45;ff8e1147d91f</title>
<path fill="none" stroke="black" stroke-width="1.5" d="M600.534,-80.862C619.267,-77.5631 641.834,-73.5889 662.225,-69.9982"/>
<polygon fill="black" stroke="black" stroke-width="1.5" points="663.103,-73.3975 672.344,-68.2162 661.888,-66.5036 663.103,-73.3975"/>
</g>
<!-- 3c9545ee&#45;417c&#45;4e6f&#45;8d8d&#45;bbc0198c0a7a&#45;&gt;71a8ee33&#45;f131&#45;4d8e&#45;8853&#45;de9839202a1a -->
<g id="edge4" class="edge"><title>3c9545ee&#45;417c&#45;4e6f&#45;8d8d&#45;bbc0198c0a7a&#45;&gt;71a8ee33&#45;f131&#45;4d8e&#45;8853&#45;de9839202a1a</title>
<path fill="none" stroke="black" stroke-dasharray="5,2" d="M446.047,-101.844C466.647,-99.2964 488.543,-96.5888 507.456,-94.2501"/>
<polygon fill="none" stroke="black" points="508.134,-97.6929 517.629,-92.9921 507.275,-90.7459 508.134,-97.6929"/>
</g>
<!-- 1a542f38&#45;3208&#45;4823&#45;adc1&#45;ff8e1147d91f&#45;&gt;d81d6a74&#45;d678&#45;4f10&#45;a1f8&#45;0297bbe4ae12 -->
<g id="edge10" class="edge"><title>1a542f38&#45;3208&#45;4823&#45;adc1&#45;ff8e1147d91f&#45;&gt;d81d6a74&#45;d678&#45;4f10&#45;a1f8&#45;0297bbe4ae12</title>
<path fill="none" stroke="black" stroke-width="1.5" d="M756.009,-78.2128C778.531,-89.9292 808.374,-105.455 834.545,-119.07"/>
<polygon fill="black" stroke="black" stroke-width="1.5" points="833.144,-122.286 843.631,-123.796 836.375,-116.076 833.144,-122.286"/>
</g>
</g>
</svg>
