<?xml version="1.0" encoding="UTF-8" standalone="no"?>
<!DOCTYPE svg PUBLIC "-//W3C//DTD SVG 1.1//EN"
 "http://www.w3.org/Graphics/SVG/1.1/DTD/svg11.dtd">
<!-- Generated by graphviz version 2.28.0 (20140111.2315)
 -->
<!-- Title: one_gulp_streams_graph Pages: 1 -->
<svg width="1290pt" height="610pt"
 viewBox="0.00 0.00 1290.00 610.00" xmlns="http://www.w3.org/2000/svg" xmlns:xlink="http://www.w3.org/1999/xlink">
<g id="graph0" class="graph" transform="scale(1 1) rotate(0) translate(36 574)">
<title>one_gulp_streams_graph</title>
<polygon fill="white" stroke="none" points="-36,36 -36,-574 1254,-574 1254,36 -36,36"/>
<text text-anchor="middle" x="609" y="-516" font-family="sans-serif" font-size="20.00">one&#45;gulp streams graph</text>
<!-- 0a76b644&#45;6391&#45;49b5&#45;af5a&#45;db07ac91b385 -->
<g id="node1" class="node"><title>0a76b644&#45;6391&#45;49b5&#45;af5a&#45;db07ac91b385</title>
<ellipse fill="none" stroke="mediumslateblue" stroke-width="2" cx="470" cy="-399" rx="28.1045" ry="21.56"/>
<text text-anchor="middle" x="470" y="-394.8" font-family="sans-serif" font-size="14.00" fill="mediumslateblue">html</text>
</g>
<!-- 0d5aaa93&#45;643e&#45;4442&#45;84a3&#45;6d43918ddfe9 -->
<g id="node21" class="node"><title>0d5aaa93&#45;643e&#45;4442&#45;84a3&#45;6d43918ddfe9</title>
<polygon fill="none" stroke="black" stroke-width="2" points="686.423,-292 603.577,-292 603.577,-256 686.423,-256 686.423,-292"/>
<text text-anchor="middle" x="645" y="-269.8" font-family="sans-serif" font-size="14.00">injectDev</text>
</g>
<!-- 0a76b644&#45;6391&#45;49b5&#45;af5a&#45;db07ac91b385&#45;&gt;0d5aaa93&#45;643e&#45;4442&#45;84a3&#45;6d43918ddfe9 -->
<g id="edge16" class="edge"><title>0a76b644&#45;6391&#45;49b5&#45;af5a&#45;db07ac91b385&#45;&gt;0d5aaa93&#45;643e&#45;4442&#45;84a3&#45;6d43918ddfe9</title>
<path fill="none" stroke="mediumslateblue" stroke-width="1.5" d="M494.085,-387.53C505.264,-381.619 518.684,-373.984 530,-366 564.744,-341.488 568.45,-329.123 602,-303 604.019,-301.428 606.117,-299.842 608.25,-298.265"/>
<polygon fill="mediumslateblue" stroke="mediumslateblue" stroke-width="1.5" points="610.495,-300.961 616.561,-292.274 606.402,-295.282 610.495,-300.961"/>
</g>
<!-- 6f6cf469&#45;0b23&#45;4e94&#45;b4cf&#45;94f575490054 -->
<g id="node22" class="node"><title>6f6cf469&#45;0b23&#45;4e94&#45;b4cf&#45;94f575490054</title>
<polygon fill="none" stroke="black" stroke-width="2" points="850.545,-350 765.455,-350 765.455,-314 850.545,-314 850.545,-350"/>
<text text-anchor="middle" x="808" y="-327.8" font-family="sans-serif" font-size="14.00">injectProd</text>
</g>
<!-- 0a76b644&#45;6391&#45;49b5&#45;af5a&#45;db07ac91b385&#45;&gt;6f6cf469&#45;0b23&#45;4e94&#45;b4cf&#45;94f575490054 -->
<g id="edge22" class="edge"><title>0a76b644&#45;6391&#45;49b5&#45;af5a&#45;db07ac91b385&#45;&gt;6f6cf469&#45;0b23&#45;4e94&#45;b4cf&#45;94f575490054</title>
<path fill="none" stroke="mediumslateblue" stroke-width="1.5" d="M497.834,-394.883C538.931,-388.446 619.865,-375.252 688,-361 710.18,-356.361 734.514,-350.559 755.366,-345.366"/>
<polygon fill="mediumslateblue" stroke="mediumslateblue" stroke-width="1.5" points="756.45,-348.702 765.297,-342.874 754.746,-341.913 756.45,-348.702"/>
</g>
<!-- 4e03aee0&#45;35fa&#45;4a87&#45;a4c0&#45;68683a2bb680 -->
<g id="node2" class="node"><title>4e03aee0&#45;35fa&#45;4a87&#45;a4c0&#45;68683a2bb680</title>
<ellipse fill="none" stroke="mediumslateblue" stroke-width="2" cx="153" cy="-203" rx="27" ry="21.56"/>
<text text-anchor="middle" x="153" y="-198.8" font-family="sans-serif" font-size="14.00" fill="mediumslateblue">css</text>
</g>
<!-- b7dba3db&#45;91f8&#45;432d&#45;a471&#45;65b6225a960d -->
<g id="node13" class="node"><title>b7dba3db&#45;91f8&#45;432d&#45;a471&#45;65b6225a960d</title>
<polygon fill="none" stroke="black" stroke-width="2" points="337.533,-252 252.467,-252 252.467,-216 337.533,-216 337.533,-252"/>
<text text-anchor="middle" x="295" y="-229.8" font-family="sans-serif" font-size="14.00">autoprefix</text>
</g>
<!-- 4e03aee0&#45;35fa&#45;4a87&#45;a4c0&#45;68683a2bb680&#45;&gt;b7dba3db&#45;91f8&#45;432d&#45;a471&#45;65b6225a960d -->
<g id="edge4" class="edge"><title>4e03aee0&#45;35fa&#45;4a87&#45;a4c0&#45;68683a2bb680&#45;&gt;b7dba3db&#45;91f8&#45;432d&#45;a471&#45;65b6225a960d</title>
<path fill="none" stroke="mediumslateblue" stroke-width="1.5" d="M179.353,-208.614C196.903,-212.5 220.88,-217.809 242.37,-222.568"/>
<polygon fill="mediumslateblue" stroke="mediumslateblue" stroke-width="1.5" points="241.838,-226.035 252.358,-224.779 243.351,-219.2 241.838,-226.035"/>
</g>
<!-- 91017a36&#45;8bc0&#45;4497&#45;a73b&#45;e53a0510f607 -->
<g id="node3" class="node"><title>91017a36&#45;8bc0&#45;4497&#45;a73b&#45;e53a0510f607</title>
<ellipse fill="none" stroke="mediumslateblue" stroke-width="2" cx="295" cy="-21" rx="27" ry="21.56"/>
<text text-anchor="middle" x="295" y="-16.8" font-family="sans-serif" font-size="14.00" fill="mediumslateblue">js</text>
</g>
<!-- 50c7e771&#45;c199&#45;4aa7&#45;b9e9&#45;4a6765de5216 -->
<g id="node20" class="node"><title>50c7e771&#45;c199&#45;4aa7&#45;b9e9&#45;4a6765de5216</title>
<polygon fill="none" stroke="black" stroke-width="2" points="525.434,-231 414.566,-231 414.566,-195 525.434,-195 525.434,-231"/>
<text text-anchor="middle" x="470" y="-208.8" font-family="sans-serif" font-size="14.00">sortJsByDepth</text>
</g>
<!-- 91017a36&#45;8bc0&#45;4497&#45;a73b&#45;e53a0510f607&#45;&gt;50c7e771&#45;c199&#45;4aa7&#45;b9e9&#45;4a6765de5216 -->
<g id="edge14" class="edge"><title>91017a36&#45;8bc0&#45;4497&#45;a73b&#45;e53a0510f607&#45;&gt;50c7e771&#45;c199&#45;4aa7&#45;b9e9&#45;4a6765de5216</title>
<path fill="none" stroke="mediumslateblue" stroke-width="1.5" d="M307.835,-40.1785C331.507,-78.1172 384.594,-160.986 410,-183 412.642,-185.289 415.489,-187.458 418.456,-189.503"/>
<polygon fill="mediumslateblue" stroke="mediumslateblue" stroke-width="1.5" points="416.735,-192.556 427.06,-194.933 420.471,-186.636 416.735,-192.556"/>
</g>
<!-- eb0598b3&#45;60d2&#45;4f98&#45;a936&#45;9387d7bb99b1 -->
<g id="node24" class="node"><title>eb0598b3&#45;60d2&#45;4f98&#45;a936&#45;9387d7bb99b1</title>
<polygon fill="limegreen" stroke="limegreen" points="1037.58,-121.3 928.416,-121.3 928.416,-68.6996 1037.58,-68.6996 1037.58,-121.3"/>
<text text-anchor="middle" x="983" y="-90.8" font-family="sans-serif" font-size="14.00" fill="white">browserSync</text>
</g>
<!-- 91017a36&#45;8bc0&#45;4497&#45;a73b&#45;e53a0510f607&#45;&gt;eb0598b3&#45;60d2&#45;4f98&#45;a936&#45;9387d7bb99b1 -->
<g id="edge30" class="edge"><title>91017a36&#45;8bc0&#45;4497&#45;a73b&#45;e53a0510f607&#45;&gt;eb0598b3&#45;60d2&#45;4f98&#45;a936&#45;9387d7bb99b1</title>
<path fill="none" stroke="mediumslateblue" stroke-width="1.5" d="M322.115,-21.7437C402.3,-24.3165 651.887,-34.4826 856,-66 876.496,-69.1648 898.609,-73.8225 918.503,-78.4833"/>
<polygon fill="mediumslateblue" stroke="mediumslateblue" stroke-width="1.5" points="917.838,-81.9229 928.378,-80.8387 919.463,-75.1139 917.838,-81.9229"/>
</g>
<!-- a6bb76e3&#45;e8a3&#45;4423&#45;b981&#45;78874686abff -->
<g id="node4" class="node"><title>a6bb76e3&#45;e8a3&#45;4423&#45;b981&#45;78874686abff</title>
<ellipse fill="none" stroke="mediumslateblue" stroke-width="2" cx="808" cy="-157" rx="37.8797" ry="21.56"/>
<text text-anchor="middle" x="808" y="-152.8" font-family="sans-serif" font-size="14.00" fill="mediumslateblue">images</text>
</g>
<!-- a6bb76e3&#45;e8a3&#45;4423&#45;b981&#45;78874686abff&#45;&gt;eb0598b3&#45;60d2&#45;4f98&#45;a936&#45;9387d7bb99b1 -->
<g id="edge31" class="edge"><title>a6bb76e3&#45;e8a3&#45;4423&#45;b981&#45;78874686abff&#45;&gt;eb0598b3&#45;60d2&#45;4f98&#45;a936&#45;9387d7bb99b1</title>
<path fill="none" stroke="mediumslateblue" stroke-width="1.5" d="M840.329,-145.772C862.096,-137.971 891.862,-127.304 918.494,-117.76"/>
<polygon fill="mediumslateblue" stroke="mediumslateblue" stroke-width="1.5" points="919.91,-120.97 928.143,-114.302 917.548,-114.38 919.91,-120.97"/>
</g>
<!-- f4714a97&#45;119e&#45;416f&#45;aec9&#45;afcf6055e661 -->
<g id="node25" class="node"><title>f4714a97&#45;119e&#45;416f&#45;aec9&#45;afcf6055e661</title>
<polygon fill="limegreen" stroke="limegreen" points="1217.26,-268.3 1110.74,-268.3 1110.74,-215.7 1217.26,-215.7 1217.26,-268.3"/>
<text text-anchor="middle" x="1164" y="-237.8" font-family="sans-serif" font-size="14.00" fill="white">writeToProd</text>
</g>
<!-- a6bb76e3&#45;e8a3&#45;4423&#45;b981&#45;78874686abff&#45;&gt;f4714a97&#45;119e&#45;416f&#45;aec9&#45;afcf6055e661 -->
<g id="edge35" class="edge"><title>a6bb76e3&#45;e8a3&#45;4423&#45;b981&#45;78874686abff&#45;&gt;f4714a97&#45;119e&#45;416f&#45;aec9&#45;afcf6055e661</title>
<path fill="none" stroke="mediumslateblue" stroke-width="1.5" d="M846.189,-157.786C892.085,-159.57 972.134,-165.352 1038,-184 1061.36,-190.614 1085.84,-201.098 1106.89,-211.345"/>
<polygon fill="mediumslateblue" stroke="mediumslateblue" stroke-width="1.5" points="1105.48,-214.552 1115.99,-215.866 1108.59,-208.283 1105.48,-214.552"/>
</g>
<!-- 0e3b9291&#45;5c1e&#45;483b&#45;8e22&#45;4d7c7cfe884a -->
<g id="node5" class="node"><title>0e3b9291&#45;5c1e&#45;483b&#45;8e22&#45;4d7c7cfe884a</title>
<ellipse fill="none" stroke="mediumslateblue" stroke-width="2" cx="295" cy="-461" rx="27" ry="21.56"/>
<text text-anchor="middle" x="295" y="-456.8" font-family="sans-serif" font-size="14.00" fill="mediumslateblue">jade</text>
</g>
<!-- 1f01aa82&#45;eaac&#45;4406&#45;b9be&#45;7488428b434f -->
<g id="node10" class="node"><title>1f01aa82&#45;eaac&#45;4406&#45;b9be&#45;7488428b434f</title>
<polygon fill="none" stroke="black" stroke-width="2" points="497,-479 443,-479 443,-443 497,-443 497,-479"/>
<text text-anchor="middle" x="470" y="-456.8" font-family="sans-serif" font-size="14.00">jade</text>
</g>
<!-- 0e3b9291&#45;5c1e&#45;483b&#45;8e22&#45;4d7c7cfe884a&#45;&gt;1f01aa82&#45;eaac&#45;4406&#45;b9be&#45;7488428b434f -->
<g id="edge1" class="edge"><title>0e3b9291&#45;5c1e&#45;483b&#45;8e22&#45;4d7c7cfe884a&#45;&gt;1f01aa82&#45;eaac&#45;4406&#45;b9be&#45;7488428b434f</title>
<path fill="none" stroke="mediumslateblue" stroke-width="1.5" d="M322.275,-461C351.701,-461 399.587,-461 432.606,-461"/>
<polygon fill="mediumslateblue" stroke="mediumslateblue" stroke-width="1.5" points="432.762,-464.5 442.762,-461 432.762,-457.5 432.762,-464.5"/>
</g>
<!-- ee3a7a1e&#45;f833&#45;48e9&#45;922a&#45;9335cac76686 -->
<g id="node6" class="node"><title>ee3a7a1e&#45;f833&#45;48e9&#45;922a&#45;9335cac76686</title>
<ellipse fill="none" stroke="mediumslateblue" stroke-width="2" cx="27" cy="-265" rx="27" ry="21.56"/>
<text text-anchor="middle" x="27" y="-260.8" font-family="sans-serif" font-size="14.00" fill="mediumslateblue">scss</text>
</g>
<!-- 2f8496e4&#45;0c7b&#45;432e&#45;9198&#45;4b283863a0e8 -->
<g id="node11" class="node"><title>2f8496e4&#45;0c7b&#45;432e&#45;9198&#45;4b283863a0e8</title>
<polygon fill="none" stroke="black" stroke-width="2" points="180,-283 126,-283 126,-247 180,-247 180,-283"/>
<text text-anchor="middle" x="153" y="-260.8" font-family="sans-serif" font-size="14.00">sass</text>
</g>
<!-- ee3a7a1e&#45;f833&#45;48e9&#45;922a&#45;9335cac76686&#45;&gt;2f8496e4&#45;0c7b&#45;432e&#45;9198&#45;4b283863a0e8 -->
<g id="edge2" class="edge"><title>ee3a7a1e&#45;f833&#45;48e9&#45;922a&#45;9335cac76686&#45;&gt;2f8496e4&#45;0c7b&#45;432e&#45;9198&#45;4b283863a0e8</title>
<path fill="none" stroke="mediumslateblue" stroke-width="1.5" d="M54.2972,-265C72.1346,-265 95.9529,-265 115.607,-265"/>
<polygon fill="mediumslateblue" stroke="mediumslateblue" stroke-width="1.5" points="115.741,-268.5 125.741,-265 115.741,-261.5 115.741,-268.5"/>
</g>
<!-- 6e7ca2b5&#45;bd89&#45;466f&#45;9aee&#45;5db7f325b977 -->
<g id="node7" class="node"><title>6e7ca2b5&#45;bd89&#45;466f&#45;9aee&#45;5db7f325b977</title>
<ellipse fill="none" stroke="mediumslateblue" stroke-width="2" cx="153" cy="-119" rx="27" ry="21.56"/>
<text text-anchor="middle" x="153" y="-114.8" font-family="sans-serif" font-size="14.00" fill="mediumslateblue">ts</text>
</g>
<!-- c4575a4c&#45;980a&#45;431d&#45;b819&#45;2513bc0c4863 -->
<g id="node12" class="node"><title>c4575a4c&#45;980a&#45;431d&#45;b819&#45;2513bc0c4863</title>
<polygon fill="none" stroke="black" stroke-width="2" points="336.706,-137 253.294,-137 253.294,-101 336.706,-101 336.706,-137"/>
<text text-anchor="middle" x="295" y="-114.8" font-family="sans-serif" font-size="14.00">typescript</text>
</g>
<!-- 6e7ca2b5&#45;bd89&#45;466f&#45;9aee&#45;5db7f325b977&#45;&gt;c4575a4c&#45;980a&#45;431d&#45;b819&#45;2513bc0c4863 -->
<g id="edge3" class="edge"><title>6e7ca2b5&#45;bd89&#45;466f&#45;9aee&#45;5db7f325b977&#45;&gt;c4575a4c&#45;980a&#45;431d&#45;b819&#45;2513bc0c4863</title>
<path fill="none" stroke="mediumslateblue" stroke-width="1.5" d="M180.005,-119C197.673,-119 221.631,-119 243.023,-119"/>
<polygon fill="mediumslateblue" stroke="mediumslateblue" stroke-width="1.5" points="243.28,-122.5 253.28,-119 243.28,-115.5 243.28,-122.5"/>
</g>
<!-- ae6eb2aa&#45;106e&#45;42da&#45;8289&#45;34c85ca5a819 -->
<g id="node8" class="node"><title>ae6eb2aa&#45;106e&#45;42da&#45;8289&#45;34c85ca5a819</title>
<ellipse fill="none" stroke="mediumslateblue" stroke-width="2" cx="470" cy="-275" rx="48.8744" ry="21.56"/>
<text text-anchor="middle" x="470" y="-270.8" font-family="sans-serif" font-size="14.00" fill="mediumslateblue">bowerCss</text>
</g>
<!-- e86f45f2&#45;bcdf&#45;4bac&#45;96be&#45;cd92f0c4a717 -->
<g id="node16" class="node"><title>e86f45f2&#45;bcdf&#45;4bac&#45;96be&#45;cd92f0c4a717</title>
<polygon fill="none" stroke="black" stroke-width="2" points="687.261,-350 602.739,-350 602.739,-314 687.261,-314 687.261,-350"/>
<text text-anchor="middle" x="645" y="-327.8" font-family="sans-serif" font-size="14.00">concatCss</text>
</g>
<!-- ae6eb2aa&#45;106e&#45;42da&#45;8289&#45;34c85ca5a819&#45;&gt;e86f45f2&#45;bcdf&#45;4bac&#45;96be&#45;cd92f0c4a717 -->
<g id="edge8" class="edge"><title>ae6eb2aa&#45;106e&#45;42da&#45;8289&#45;34c85ca5a819&#45;&gt;e86f45f2&#45;bcdf&#45;4bac&#45;96be&#45;cd92f0c4a717</title>
<path fill="none" stroke="mediumslateblue" stroke-width="1.5" d="M509.825,-287.792C534.401,-295.89 566.446,-306.447 593.055,-315.215"/>
<polygon fill="mediumslateblue" stroke="mediumslateblue" stroke-width="1.5" points="591.996,-318.551 602.589,-318.356 594.186,-311.902 591.996,-318.551"/>
</g>
<!-- ae6eb2aa&#45;106e&#45;42da&#45;8289&#45;34c85ca5a819&#45;&gt;0d5aaa93&#45;643e&#45;4442&#45;84a3&#45;6d43918ddfe9 -->
<g id="edge18" class="edge"><title>ae6eb2aa&#45;106e&#45;42da&#45;8289&#45;34c85ca5a819&#45;&gt;0d5aaa93&#45;643e&#45;4442&#45;84a3&#45;6d43918ddfe9</title>
<path fill="none" stroke="mediumslateblue" stroke-dasharray="5,2" d="M519.19,-274.721C542.356,-274.588 570.117,-274.427 593.568,-274.292"/>
<polygon fill="none" stroke="mediumslateblue" points="593.688,-277.791 603.668,-274.233 593.648,-270.791 593.688,-277.791"/>
</g>
<!-- 6511e64f&#45;cfe1&#45;47a0&#45;b2f6&#45;bf13b9ea234a -->
<g id="node9" class="node"><title>6511e64f&#45;cfe1&#45;47a0&#45;b2f6&#45;bf13b9ea234a</title>
<ellipse fill="none" stroke="mediumslateblue" stroke-width="2" cx="470" cy="-151" rx="42.171" ry="21.56"/>
<text text-anchor="middle" x="470" y="-146.8" font-family="sans-serif" font-size="14.00" fill="mediumslateblue">bowerJs</text>
</g>
<!-- c08be5dd&#45;3361&#45;41dd&#45;86a9&#45;56803aeb7011 -->
<g id="node18" class="node"><title>c08be5dd&#45;3361&#45;41dd&#45;86a9&#45;56803aeb7011</title>
<polygon fill="none" stroke="black" stroke-width="2" points="682.925,-231 607.075,-231 607.075,-195 682.925,-195 682.925,-231"/>
<text text-anchor="middle" x="645" y="-208.8" font-family="sans-serif" font-size="14.00">concatJs</text>
</g>
<!-- 6511e64f&#45;cfe1&#45;47a0&#45;b2f6&#45;bf13b9ea234a&#45;&gt;c08be5dd&#45;3361&#45;41dd&#45;86a9&#45;56803aeb7011 -->
<g id="edge11" class="edge"><title>6511e64f&#45;cfe1&#45;47a0&#45;b2f6&#45;bf13b9ea234a&#45;&gt;c08be5dd&#45;3361&#45;41dd&#45;86a9&#45;56803aeb7011</title>
<path fill="none" stroke="mediumslateblue" stroke-width="1.5" d="M505.179,-163.249C531.632,-172.729 568.541,-185.957 597.653,-196.39"/>
<polygon fill="mediumslateblue" stroke="mediumslateblue" stroke-width="1.5" points="596.606,-199.733 607.2,-199.812 598.967,-193.143 596.606,-199.733"/>
</g>
<!-- 6511e64f&#45;cfe1&#45;47a0&#45;b2f6&#45;bf13b9ea234a&#45;&gt;0d5aaa93&#45;643e&#45;4442&#45;84a3&#45;6d43918ddfe9 -->
<g id="edge19" class="edge"><title>6511e64f&#45;cfe1&#45;47a0&#45;b2f6&#45;bf13b9ea234a&#45;&gt;0d5aaa93&#45;643e&#45;4442&#45;84a3&#45;6d43918ddfe9</title>
<path fill="none" stroke="mediumslateblue" stroke-dasharray="5,2" d="M500.391,-166.168C510.032,-171.476 520.663,-177.694 530,-184 564.052,-207 569.654,-216.657 602,-242 605.157,-244.473 608.462,-247.036 611.771,-249.585"/>
<polygon fill="none" stroke="mediumslateblue" points="609.86,-252.531 619.927,-255.835 614.118,-246.974 609.86,-252.531"/>
</g>
<!-- 1f01aa82&#45;eaac&#45;4406&#45;b9be&#45;7488428b434f&#45;&gt;0d5aaa93&#45;643e&#45;4442&#45;84a3&#45;6d43918ddfe9 -->
<g id="edge17" class="edge"><title>1f01aa82&#45;eaac&#45;4406&#45;b9be&#45;7488428b434f&#45;&gt;0d5aaa93&#45;643e&#45;4442&#45;84a3&#45;6d43918ddfe9</title>
<path fill="none" stroke="black" stroke-width="1.5" d="M497.185,-451.657C508.256,-446.763 520.71,-439.908 530,-431 577.112,-385.825 558.015,-351.225 602,-303 603.344,-301.527 604.775,-300.089 606.269,-298.691"/>
<polygon fill="black" stroke="black" stroke-width="1.5" points="608.748,-301.18 614.14,-292.06 604.237,-295.826 608.748,-301.18"/>
</g>
<!-- 1f01aa82&#45;eaac&#45;4406&#45;b9be&#45;7488428b434f&#45;&gt;6f6cf469&#45;0b23&#45;4e94&#45;b4cf&#45;94f575490054 -->
<g id="edge23" class="edge"><title>1f01aa82&#45;eaac&#45;4406&#45;b9be&#45;7488428b434f&#45;&gt;6f6cf469&#45;0b23&#45;4e94&#45;b4cf&#45;94f575490054</title>
<path fill="none" stroke="black" stroke-width="1.5" d="M497.007,-452.879C538.023,-439.878 620.057,-413.088 688,-386 712.14,-376.375 738.503,-364.552 760.266,-354.425"/>
<polygon fill="black" stroke="black" stroke-width="1.5" points="762.031,-357.463 769.603,-350.053 759.062,-351.124 762.031,-357.463"/>
</g>
<!-- 2f8496e4&#45;0c7b&#45;432e&#45;9198&#45;4b283863a0e8&#45;&gt;b7dba3db&#45;91f8&#45;432d&#45;a471&#45;65b6225a960d -->
<g id="edge5" class="edge"><title>2f8496e4&#45;0c7b&#45;432e&#45;9198&#45;4b283863a0e8&#45;&gt;b7dba3db&#45;91f8&#45;432d&#45;a471&#45;65b6225a960d</title>
<path fill="none" stroke="black" stroke-width="1.5" d="M180.005,-259.242C197.549,-255.357 221.293,-250.099 242.571,-245.388"/>
<polygon fill="black" stroke="black" stroke-width="1.5" points="243.453,-248.777 252.459,-243.198 241.939,-241.943 243.453,-248.777"/>
</g>
<!-- c4575a4c&#45;980a&#45;431d&#45;b819&#45;2513bc0c4863&#45;&gt;50c7e771&#45;c199&#45;4aa7&#45;b9e9&#45;4a6765de5216 -->
<g id="edge15" class="edge"><title>c4575a4c&#45;980a&#45;431d&#45;b819&#45;2513bc0c4863&#45;&gt;50c7e771&#45;c199&#45;4aa7&#45;b9e9&#45;4a6765de5216</title>
<path fill="none" stroke="black" stroke-width="1.5" d="M327.26,-137.007C350.061,-150.028 381.777,-167.911 410,-183 414.508,-185.41 419.231,-187.889 423.958,-190.339"/>
<polygon fill="black" stroke="black" stroke-width="1.5" points="422.504,-193.527 432.997,-194.99 425.707,-187.303 422.504,-193.527"/>
</g>
<!-- eb665168&#45;6fd1&#45;4ff3&#45;85fd&#45;c63c0051e575 -->
<g id="node23" class="node"><title>eb665168&#45;6fd1&#45;4ff3&#45;85fd&#45;c63c0051e575</title>
<polygon fill="none" stroke="black" stroke-width="2" points="855.637,-113 760.363,-113 760.363,-77 855.637,-77 855.637,-113"/>
<text text-anchor="middle" x="808" y="-90.8" font-family="sans-serif" font-size="14.00">writeToDev</text>
</g>
<!-- c4575a4c&#45;980a&#45;431d&#45;b819&#45;2513bc0c4863&#45;&gt;eb665168&#45;6fd1&#45;4ff3&#45;85fd&#45;c63c0051e575 -->
<g id="edge28" class="edge"><title>c4575a4c&#45;980a&#45;431d&#45;b819&#45;2513bc0c4863&#45;&gt;eb665168&#45;6fd1&#45;4ff3&#45;85fd&#45;c63c0051e575</title>
<path fill="none" stroke="black" stroke-width="1.5" d="M335.701,-100.898C357.202,-92.0821 384.514,-82.4436 410,-78 529.676,-57.1336 672.554,-73.0175 750.089,-84.9663"/>
<polygon fill="black" stroke="black" stroke-width="1.5" points="749.706,-88.4491 760.129,-86.5482 750.796,-81.5344 749.706,-88.4491"/>
</g>
<!-- 33250c29&#45;e33a&#45;46fc&#45;988d&#45;d33344b2f68d -->
<g id="node19" class="node"><title>33250c29&#45;e33a&#45;46fc&#45;988d&#45;d33344b2f68d</title>
<polygon fill="none" stroke="black" stroke-width="2" points="529.77,-355 410.23,-355 410.23,-319 529.77,-319 529.77,-355"/>
<text text-anchor="middle" x="470" y="-332.8" font-family="sans-serif" font-size="14.00">sortCssByDepth</text>
</g>
<!-- b7dba3db&#45;91f8&#45;432d&#45;a471&#45;65b6225a960d&#45;&gt;33250c29&#45;e33a&#45;46fc&#45;988d&#45;d33344b2f68d -->
<g id="edge13" class="edge"><title>b7dba3db&#45;91f8&#45;432d&#45;a471&#45;65b6225a960d&#45;&gt;33250c29&#45;e33a&#45;46fc&#45;988d&#45;d33344b2f68d</title>
<path fill="none" stroke="black" stroke-width="1.5" d="M322.714,-252.173C345.526,-267.432 379.407,-289.484 410,-307 414.204,-309.407 418.623,-311.835 423.073,-314.211"/>
<polygon fill="black" stroke="black" stroke-width="1.5" points="421.709,-317.448 432.19,-318.994 424.961,-311.249 421.709,-317.448"/>
</g>
<!-- b7dba3db&#45;91f8&#45;432d&#45;a471&#45;65b6225a960d&#45;&gt;eb665168&#45;6fd1&#45;4ff3&#45;85fd&#45;c63c0051e575 -->
<g id="edge27" class="edge"><title>b7dba3db&#45;91f8&#45;432d&#45;a471&#45;65b6225a960d&#45;&gt;eb665168&#45;6fd1&#45;4ff3&#45;85fd&#45;c63c0051e575</title>
<path fill="none" stroke="black" stroke-width="1.5" d="M307.339,-215.849C325.326,-188.907 363.203,-139.235 410,-118 469.067,-91.1974 655.308,-91.3496 750.211,-93.327"/>
<polygon fill="black" stroke="black" stroke-width="1.5" points="750.135,-96.8261 760.21,-93.5492 750.29,-89.8278 750.135,-96.8261"/>
</g>
<!-- 476077d4&#45;9fd5&#45;41b6&#45;8d7b&#45;589cc0db7815 -->
<g id="node14" class="node"><title>476077d4&#45;9fd5&#45;41b6&#45;8d7b&#45;589cc0db7815</title>
<polygon fill="none" stroke="black" stroke-width="2" points="1030.11,-348 935.889,-348 935.889,-312 1030.11,-312 1030.11,-348"/>
<text text-anchor="middle" x="983" y="-325.8" font-family="sans-serif" font-size="14.00">minifyHtml</text>
</g>
<!-- 476077d4&#45;9fd5&#45;41b6&#45;8d7b&#45;589cc0db7815&#45;&gt;f4714a97&#45;119e&#45;416f&#45;aec9&#45;afcf6055e661 -->
<g id="edge32" class="edge"><title>476077d4&#45;9fd5&#45;41b6&#45;8d7b&#45;589cc0db7815&#45;&gt;f4714a97&#45;119e&#45;416f&#45;aec9&#45;afcf6055e661</title>
<path fill="none" stroke="black" stroke-width="1.5" d="M1020.66,-311.98C1043.8,-300.599 1074.3,-285.607 1101.13,-272.419"/>
<polygon fill="black" stroke="black" stroke-width="1.5" points="1103.01,-275.391 1110.44,-267.838 1099.92,-269.109 1103.01,-275.391"/>
</g>
<!-- c20d40bb&#45;4c4e&#45;4f53&#45;9f67&#45;d9b58be28317 -->
<g id="node15" class="node"><title>c20d40bb&#45;4c4e&#45;4f53&#45;9f67&#45;d9b58be28317</title>
<polygon fill="none" stroke="black" stroke-width="2" points="1025.56,-290 940.441,-290 940.441,-254 1025.56,-254 1025.56,-290"/>
<text text-anchor="middle" x="983" y="-267.8" font-family="sans-serif" font-size="14.00">minifyCss</text>
</g>
<!-- c20d40bb&#45;4c4e&#45;4f53&#45;9f67&#45;d9b58be28317&#45;&gt;f4714a97&#45;119e&#45;416f&#45;aec9&#45;afcf6055e661 -->
<g id="edge33" class="edge"><title>c20d40bb&#45;4c4e&#45;4f53&#45;9f67&#45;d9b58be28317&#45;&gt;f4714a97&#45;119e&#45;416f&#45;aec9&#45;afcf6055e661</title>
<path fill="none" stroke="black" stroke-width="1.5" d="M1025.97,-264.966C1048.22,-261.237 1075.99,-256.582 1100.71,-252.44"/>
<polygon fill="black" stroke="black" stroke-width="1.5" points="1101.44,-255.866 1110.72,-250.761 1100.28,-248.962 1101.44,-255.866"/>
</g>
<!-- e86f45f2&#45;bcdf&#45;4bac&#45;96be&#45;cd92f0c4a717&#45;&gt;c20d40bb&#45;4c4e&#45;4f53&#45;9f67&#45;d9b58be28317 -->
<g id="edge7" class="edge"><title>e86f45f2&#45;bcdf&#45;4bac&#45;96be&#45;cd92f0c4a717&#45;&gt;c20d40bb&#45;4c4e&#45;4f53&#45;9f67&#45;d9b58be28317</title>
<path fill="none" stroke="black" stroke-width="1.5" d="M687.442,-320.285C708.958,-314.501 735.753,-307.762 760,-303 817.745,-291.659 884.733,-282.9 929.895,-277.629"/>
<polygon fill="black" stroke="black" stroke-width="1.5" points="930.502,-281.082 940.036,-276.461 929.701,-274.128 930.502,-281.082"/>
</g>
<!-- e86f45f2&#45;bcdf&#45;4bac&#45;96be&#45;cd92f0c4a717&#45;&gt;6f6cf469&#45;0b23&#45;4e94&#45;b4cf&#45;94f575490054 -->
<g id="edge24" class="edge"><title>e86f45f2&#45;bcdf&#45;4bac&#45;96be&#45;cd92f0c4a717&#45;&gt;6f6cf469&#45;0b23&#45;4e94&#45;b4cf&#45;94f575490054</title>
<path fill="none" stroke="black" stroke-dasharray="5,2" d="M687.462,-332C708.133,-332 733.335,-332 755.26,-332"/>
<polygon fill="none" stroke="black" points="755.4,-335.5 765.399,-332 755.399,-328.5 755.4,-335.5"/>
</g>
<!-- 8ec0d154&#45;08e6&#45;4b34&#45;8d43&#45;17babb72b00b -->
<g id="node17" class="node"><title>8ec0d154&#45;08e6&#45;4b34&#45;8d43&#45;17babb72b00b</title>
<polygon fill="none" stroke="black" stroke-width="2" points="1021.22,-231 944.778,-231 944.778,-195 1021.22,-195 1021.22,-231"/>
<text text-anchor="middle" x="983" y="-208.8" font-family="sans-serif" font-size="14.00">minifyJs</text>
</g>
<!-- 8ec0d154&#45;08e6&#45;4b34&#45;8d43&#45;17babb72b00b&#45;&gt;f4714a97&#45;119e&#45;416f&#45;aec9&#45;afcf6055e661 -->
<g id="edge34" class="edge"><title>8ec0d154&#45;08e6&#45;4b34&#45;8d43&#45;17babb72b00b&#45;&gt;f4714a97&#45;119e&#45;416f&#45;aec9&#45;afcf6055e661</title>
<path fill="none" stroke="black" stroke-width="1.5" d="M1021.52,-219.079C1044.43,-222.791 1074.29,-227.628 1100.67,-231.902"/>
<polygon fill="black" stroke="black" stroke-width="1.5" points="1100.16,-235.365 1110.59,-233.509 1101.28,-228.455 1100.16,-235.365"/>
</g>
<!-- c08be5dd&#45;3361&#45;41dd&#45;86a9&#45;56803aeb7011&#45;&gt;8ec0d154&#45;08e6&#45;4b34&#45;8d43&#45;17babb72b00b -->
<g id="edge10" class="edge"><title>c08be5dd&#45;3361&#45;41dd&#45;86a9&#45;56803aeb7011&#45;&gt;8ec0d154&#45;08e6&#45;4b34&#45;8d43&#45;17babb72b00b</title>
<path fill="none" stroke="black" stroke-width="1.5" d="M682.919,-213C744.167,-213 866.727,-213 934.393,-213"/>
<polygon fill="black" stroke="black" stroke-width="1.5" points="934.764,-216.5 944.764,-213 934.764,-209.5 934.764,-216.5"/>
</g>
<!-- c08be5dd&#45;3361&#45;41dd&#45;86a9&#45;56803aeb7011&#45;&gt;6f6cf469&#45;0b23&#45;4e94&#45;b4cf&#45;94f575490054 -->
<g id="edge25" class="edge"><title>c08be5dd&#45;3361&#45;41dd&#45;86a9&#45;56803aeb7011&#45;&gt;6f6cf469&#45;0b23&#45;4e94&#45;b4cf&#45;94f575490054</title>
<path fill="none" stroke="black" stroke-dasharray="5,2" d="M670.452,-231.074C698.193,-251.577 743.562,-285.111 774.321,-307.846"/>
<polygon fill="none" stroke="black" points="772.46,-310.822 782.582,-313.952 776.62,-305.193 772.46,-310.822"/>
</g>
<!-- 33250c29&#45;e33a&#45;46fc&#45;988d&#45;d33344b2f68d&#45;&gt;e86f45f2&#45;bcdf&#45;4bac&#45;96be&#45;cd92f0c4a717 -->
<g id="edge9" class="edge"><title>33250c29&#45;e33a&#45;46fc&#45;988d&#45;d33344b2f68d&#45;&gt;e86f45f2&#45;bcdf&#45;4bac&#45;96be&#45;cd92f0c4a717</title>
<path fill="none" stroke="black" stroke-width="1.5" d="M530.053,-335.293C550.298,-334.708 572.781,-334.058 592.39,-333.492"/>
<polygon fill="black" stroke="black" stroke-width="1.5" points="592.76,-336.982 602.655,-333.195 592.558,-329.985 592.76,-336.982"/>
</g>
<!-- 33250c29&#45;e33a&#45;46fc&#45;988d&#45;d33344b2f68d&#45;&gt;0d5aaa93&#45;643e&#45;4442&#45;84a3&#45;6d43918ddfe9 -->
<g id="edge20" class="edge"><title>33250c29&#45;e33a&#45;46fc&#45;988d&#45;d33344b2f68d&#45;&gt;0d5aaa93&#45;643e&#45;4442&#45;84a3&#45;6d43918ddfe9</title>
<path fill="none" stroke="black" stroke-dasharray="5,2" d="M520.575,-318.947C543.639,-310.548 571.016,-300.578 594.118,-292.165"/>
<polygon fill="none" stroke="black" points="595.534,-295.374 603.732,-288.664 593.138,-288.797 595.534,-295.374"/>
</g>
<!-- 50c7e771&#45;c199&#45;4aa7&#45;b9e9&#45;4a6765de5216&#45;&gt;c08be5dd&#45;3361&#45;41dd&#45;86a9&#45;56803aeb7011 -->
<g id="edge12" class="edge"><title>50c7e771&#45;c199&#45;4aa7&#45;b9e9&#45;4a6765de5216&#45;&gt;c08be5dd&#45;3361&#45;41dd&#45;86a9&#45;56803aeb7011</title>
<path fill="none" stroke="black" stroke-width="1.5" d="M525.264,-213C548.275,-213 574.838,-213 596.998,-213"/>
<polygon fill="black" stroke="black" stroke-width="1.5" points="597.163,-216.5 607.163,-213 597.163,-209.5 597.163,-216.5"/>
</g>
<!-- 50c7e771&#45;c199&#45;4aa7&#45;b9e9&#45;4a6765de5216&#45;&gt;0d5aaa93&#45;643e&#45;4442&#45;84a3&#45;6d43918ddfe9 -->
<g id="edge21" class="edge"><title>50c7e771&#45;c199&#45;4aa7&#45;b9e9&#45;4a6765de5216&#45;&gt;0d5aaa93&#45;643e&#45;4442&#45;84a3&#45;6d43918ddfe9</title>
<path fill="none" stroke="black" stroke-dasharray="5,2" d="M522.437,-231.137C545.082,-239.121 571.586,-248.467 594.057,-256.39"/>
<polygon fill="none" stroke="black" points="593.147,-259.78 603.742,-259.805 595.475,-253.179 593.147,-259.78"/>
</g>
<!-- 0d5aaa93&#45;643e&#45;4442&#45;84a3&#45;6d43918ddfe9&#45;&gt;eb665168&#45;6fd1&#45;4ff3&#45;85fd&#45;c63c0051e575 -->
<g id="edge26" class="edge"><title>0d5aaa93&#45;643e&#45;4442&#45;84a3&#45;6d43918ddfe9&#45;&gt;eb665168&#45;6fd1&#45;4ff3&#45;85fd&#45;c63c0051e575</title>
<path fill="none" stroke="black" stroke-width="1.5" d="M673.052,-255.766C678.324,-251.577 683.58,-246.902 688,-242 729.143,-196.375 716.666,-167.55 760,-124 761.593,-122.399 763.292,-120.846 765.062,-119.348"/>
<polygon fill="black" stroke="black" stroke-width="1.5" points="767.368,-121.99 773.184,-113.134 763.115,-116.431 767.368,-121.99"/>
</g>
<!-- 6f6cf469&#45;0b23&#45;4e94&#45;b4cf&#45;94f575490054&#45;&gt;476077d4&#45;9fd5&#45;41b6&#45;8d7b&#45;589cc0db7815 -->
<g id="edge6" class="edge"><title>6f6cf469&#45;0b23&#45;4e94&#45;b4cf&#45;94f575490054&#45;&gt;476077d4&#45;9fd5&#45;41b6&#45;8d7b&#45;589cc0db7815</title>
<path fill="none" stroke="black" stroke-width="1.5" d="M850.878,-331.516C873.278,-331.257 901.176,-330.934 925.473,-330.653"/>
<polygon fill="black" stroke="black" stroke-width="1.5" points="925.68,-334.151 935.639,-330.536 925.599,-327.152 925.68,-334.151"/>
</g>
<!-- eb665168&#45;6fd1&#45;4ff3&#45;85fd&#45;c63c0051e575&#45;&gt;eb0598b3&#45;60d2&#45;4f98&#45;a936&#45;9387d7bb99b1 -->
<g id="edge29" class="edge"><title>eb665168&#45;6fd1&#45;4ff3&#45;85fd&#45;c63c0051e575&#45;&gt;eb0598b3&#45;60d2&#45;4f98&#45;a936&#45;9387d7bb99b1</title>
<path fill="none" stroke="black" stroke-width="1.5" d="M855.816,-95C874.992,-95 897.489,-95 918.136,-95"/>
<polygon fill="black" stroke="black" stroke-width="1.5" points="918.417,-98.5001 928.417,-95 918.417,-91.5001 918.417,-98.5001"/>
</g>
</g>
</svg>
