<?xml version="1.0" encoding="UTF-8" standalone="no"?>
<!DOCTYPE svg PUBLIC "-//W3C//DTD SVG 1.1//EN"
 "http://www.w3.org/Graphics/SVG/1.1/DTD/svg11.dtd">
<!-- Generated by graphviz version 2.28.0 (20140111.2315)
 -->
<!-- Title: one_gulp_streams_graph Pages: 1 -->
<svg width="1384pt" height="792pt"
 viewBox="0.00 0.00 1384.00 792.00" xmlns="http://www.w3.org/2000/svg" xmlns:xlink="http://www.w3.org/1999/xlink">
<g id="graph0" class="graph" transform="scale(1 1) rotate(0) translate(36 756)">
<title>one_gulp_streams_graph</title>
<polygon fill="white" stroke="none" points="-36,36 -36,-756 1348,-756 1348,36 -36,36"/>
<text text-anchor="middle" x="656" y="-698" font-family="sans-serif" font-size="20.00">one&#45;gulp streams graph</text>
<!-- aabf6436&#45;46fc&#45;4356&#45;805f&#45;1fe2a81013a8 -->
<g id="node1" class="node"><title>aabf6436&#45;46fc&#45;4356&#45;805f&#45;1fe2a81013a8</title>
<ellipse fill="none" stroke="mediumslateblue" stroke-width="2" cx="553" cy="-335" rx="42.1359" ry="21.56"/>
<text text-anchor="middle" x="553" y="-330.8" font-family="sans-serif" font-size="14.00" fill="mediumslateblue">html (2)</text>
</g>
<!-- 211ff35d&#45;bf14&#45;4556&#45;930f&#45;76bd2e9b264c -->
<g id="node29" class="node"><title>211ff35d&#45;bf14&#45;4556&#45;930f&#45;76bd2e9b264c</title>
<polygon fill="none" stroke="black" stroke-width="2" points="772.423,-387 689.577,-387 689.577,-351 772.423,-351 772.423,-387"/>
<text text-anchor="middle" x="731" y="-364.8" font-family="sans-serif" font-size="14.00">injectDev</text>
</g>
<!-- aabf6436&#45;46fc&#45;4356&#45;805f&#45;1fe2a81013a8&#45;&gt;211ff35d&#45;bf14&#45;4556&#45;930f&#45;76bd2e9b264c -->
<g id="edge23" class="edge"><title>aabf6436&#45;46fc&#45;4356&#45;805f&#45;1fe2a81013a8&#45;&gt;211ff35d&#45;bf14&#45;4556&#45;930f&#45;76bd2e9b264c</title>
<path fill="none" stroke="mediumslateblue" stroke-width="1.5" d="M592.624,-342.461C618.218,-347.406 652.052,-353.942 679.737,-359.29"/>
<polygon fill="mediumslateblue" stroke="mediumslateblue" stroke-width="1.5" points="679.15,-362.741 689.632,-361.202 680.478,-355.868 679.15,-362.741"/>
</g>
<!-- f040a71d&#45;d6ef&#45;4eaf&#45;b82b&#45;4bea7153e1bf -->
<g id="node30" class="node"><title>f040a71d&#45;d6ef&#45;4eaf&#45;b82b&#45;4bea7153e1bf</title>
<polygon fill="none" stroke="black" stroke-width="2" points="940.545,-430 855.455,-430 855.455,-394 940.545,-394 940.545,-430"/>
<text text-anchor="middle" x="898" y="-407.8" font-family="sans-serif" font-size="14.00">injectProd</text>
</g>
<!-- aabf6436&#45;46fc&#45;4356&#45;805f&#45;1fe2a81013a8&#45;&gt;f040a71d&#45;d6ef&#45;4eaf&#45;b82b&#45;4bea7153e1bf -->
<g id="edge30" class="edge"><title>aabf6436&#45;46fc&#45;4356&#45;805f&#45;1fe2a81013a8&#45;&gt;f040a71d&#45;d6ef&#45;4eaf&#45;b82b&#45;4bea7153e1bf</title>
<path fill="none" stroke="mediumslateblue" stroke-width="1.5" d="M594.236,-329.969C639.042,-325.721 713.168,-322.76 774,-340 807.924,-349.614 842.192,-370.834 865.91,-387.76"/>
<polygon fill="mediumslateblue" stroke="mediumslateblue" stroke-width="1.5" points="864.01,-390.706 874.151,-393.773 868.136,-385.051 864.01,-390.706"/>
</g>
<!-- 50ca7d12&#45;a4e1&#45;44d7&#45;820e&#45;65cdfee02c75 -->
<g id="node2" class="node"><title>50ca7d12&#45;a4e1&#45;44d7&#45;820e&#45;65cdfee02c75</title>
<ellipse fill="none" stroke="mediumslateblue" stroke-width="2" cx="201" cy="-643" rx="36.0188" ry="21.56"/>
<text text-anchor="middle" x="201" y="-638.8" font-family="sans-serif" font-size="14.00" fill="mediumslateblue">css (3)</text>
</g>
<!-- bb31d9ab&#45;8b84&#45;4f41&#45;81fb&#45;b064b5061afd -->
<g id="node21" class="node"><title>bb31d9ab&#45;8b84&#45;4f41&#45;81fb&#45;b064b5061afd</title>
<polygon fill="none" stroke="black" stroke-width="2" points="412.533,-570 327.467,-570 327.467,-534 412.533,-534 412.533,-570"/>
<text text-anchor="middle" x="370" y="-547.8" font-family="sans-serif" font-size="14.00">autoprefix</text>
</g>
<!-- 50ca7d12&#45;a4e1&#45;44d7&#45;820e&#45;65cdfee02c75&#45;&gt;bb31d9ab&#45;8b84&#45;4f41&#45;81fb&#45;b064b5061afd -->
<g id="edge8" class="edge"><title>50ca7d12&#45;a4e1&#45;44d7&#45;820e&#45;65cdfee02c75&#45;&gt;bb31d9ab&#45;8b84&#45;4f41&#45;81fb&#45;b064b5061afd</title>
<path fill="none" stroke="mediumslateblue" stroke-width="1.5" d="M228.094,-628.781C254.561,-614.359 295.944,-591.809 327.027,-574.872"/>
<polygon fill="mediumslateblue" stroke="mediumslateblue" stroke-width="1.5" points="328.8,-577.891 335.906,-570.033 325.451,-571.745 328.8,-577.891"/>
</g>
<!-- afc81d5d&#45;5e8a&#45;40cb&#45;9772&#45;e3567769ad94 -->
<g id="node3" class="node"><title>afc81d5d&#45;5e8a&#45;40cb&#45;9772&#45;e3567769ad94</title>
<ellipse fill="none" stroke="mediumslateblue" stroke-width="2" cx="370" cy="-153" rx="30.5324" ry="21.56"/>
<text text-anchor="middle" x="370" y="-148.8" font-family="sans-serif" font-size="14.00" fill="mediumslateblue">js (2)</text>
</g>
<!-- a195d7d9&#45;df5f&#45;443a&#45;81fd&#45;f2c9832ccbb4 -->
<g id="node28" class="node"><title>a195d7d9&#45;df5f&#45;443a&#45;81fd&#45;f2c9832ccbb4</title>
<polygon fill="none" stroke="black" stroke-width="2" points="608.434,-179 497.566,-179 497.566,-143 608.434,-143 608.434,-179"/>
<text text-anchor="middle" x="553" y="-156.8" font-family="sans-serif" font-size="14.00">sortJsByDepth</text>
</g>
<!-- afc81d5d&#45;5e8a&#45;40cb&#45;9772&#45;e3567769ad94&#45;&gt;a195d7d9&#45;df5f&#45;443a&#45;81fd&#45;f2c9832ccbb4 -->
<g id="edge20" class="edge"><title>afc81d5d&#45;5e8a&#45;40cb&#45;9772&#45;e3567769ad94&#45;&gt;a195d7d9&#45;df5f&#45;443a&#45;81fd&#45;f2c9832ccbb4</title>
<path fill="none" stroke="mediumslateblue" stroke-width="1.5" d="M400.484,-154.303C423.961,-155.341 457.693,-156.832 487.371,-158.143"/>
<polygon fill="mediumslateblue" stroke="mediumslateblue" stroke-width="1.5" points="487.532,-161.654 497.677,-158.599 487.841,-154.661 487.532,-161.654"/>
</g>
<!-- 2dea9804&#45;2b39&#45;4787&#45;93fd&#45;8609a46bb615 -->
<g id="node33" class="node"><title>2dea9804&#45;2b39&#45;4787&#45;93fd&#45;8609a46bb615</title>
<polygon fill="limegreen" stroke="limegreen" points="1131.58,-213.3 1022.42,-213.3 1022.42,-160.7 1131.58,-160.7 1131.58,-213.3"/>
<text text-anchor="middle" x="1077" y="-182.8" font-family="sans-serif" font-size="14.00" fill="white">browserSync</text>
</g>
<!-- afc81d5d&#45;5e8a&#45;40cb&#45;9772&#45;e3567769ad94&#45;&gt;2dea9804&#45;2b39&#45;4787&#45;93fd&#45;8609a46bb615 -->
<g id="edge41" class="edge"><title>afc81d5d&#45;5e8a&#45;40cb&#45;9772&#45;e3567769ad94&#45;&gt;2dea9804&#45;2b39&#45;4787&#45;93fd&#45;8609a46bb615</title>
<path fill="none" stroke="mediumslateblue" stroke-width="1.5" d="M399.187,-146.592C423.184,-141.483 458.652,-134.745 490,-132 693.99,-114.139 747.589,-127.004 950,-158 970.5,-161.139 992.614,-165.79 1012.51,-170.452"/>
<polygon fill="mediumslateblue" stroke="mediumslateblue" stroke-width="1.5" points="1011.84,-173.891 1022.38,-172.809 1013.47,-167.083 1011.84,-173.891"/>
</g>
<!-- a67664ca&#45;32f1&#45;437c&#45;a3c8&#45;5a27882299a1 -->
<g id="node4" class="node"><title>a67664ca&#45;32f1&#45;437c&#45;a3c8&#45;5a27882299a1</title>
<ellipse fill="none" stroke="mediumslateblue" stroke-width="2" cx="898" cy="-257" rx="51.9111" ry="21.56"/>
<text text-anchor="middle" x="898" y="-252.8" font-family="sans-serif" font-size="14.00" fill="mediumslateblue">images (6)</text>
</g>
<!-- 0fde4bab&#45;7c10&#45;4663&#45;8c14&#45;a7e5a376dc11 -->
<g id="node31" class="node"><title>0fde4bab&#45;7c10&#45;4663&#45;8c14&#45;a7e5a376dc11</title>
<polygon fill="none" stroke="black" stroke-width="2" points="1118.99,-282 1035.01,-282 1035.01,-246 1118.99,-246 1118.99,-282"/>
<text text-anchor="middle" x="1077" y="-259.8" font-family="sans-serif" font-size="14.00">imagemin</text>
</g>
<!-- a67664ca&#45;32f1&#45;437c&#45;a3c8&#45;5a27882299a1&#45;&gt;0fde4bab&#45;7c10&#45;4663&#45;8c14&#45;a7e5a376dc11 -->
<g id="edge35" class="edge"><title>a67664ca&#45;32f1&#45;437c&#45;a3c8&#45;5a27882299a1&#45;&gt;0fde4bab&#45;7c10&#45;4663&#45;8c14&#45;a7e5a376dc11</title>
<path fill="none" stroke="mediumslateblue" stroke-width="1.5" d="M950.196,-259.025C973.586,-259.95 1001.23,-261.043 1024.64,-261.969"/>
<polygon fill="mediumslateblue" stroke="mediumslateblue" stroke-width="1.5" points="1024.6,-265.47 1034.73,-262.368 1024.88,-258.475 1024.6,-265.47"/>
</g>
<!-- a67664ca&#45;32f1&#45;437c&#45;a3c8&#45;5a27882299a1&#45;&gt;2dea9804&#45;2b39&#45;4787&#45;93fd&#45;8609a46bb615 -->
<g id="edge42" class="edge"><title>a67664ca&#45;32f1&#45;437c&#45;a3c8&#45;5a27882299a1&#45;&gt;2dea9804&#45;2b39&#45;4787&#45;93fd&#45;8609a46bb615</title>
<path fill="none" stroke="mediumslateblue" stroke-width="1.5" d="M936.105,-242.326C958.315,-233.542 987.133,-222.145 1012.84,-211.979"/>
<polygon fill="mediumslateblue" stroke="mediumslateblue" stroke-width="1.5" points="1014.14,-215.23 1022.15,-208.297 1011.56,-208.72 1014.14,-215.23"/>
</g>
<!-- d2a19663&#45;2f08&#45;42b9&#45;9f28&#45;9dab7473cc97 -->
<g id="node5" class="node"><title>d2a19663&#45;2f08&#45;42b9&#45;9f28&#45;9dab7473cc97</title>
<ellipse fill="none" stroke="aliceblue" stroke-width="2" cx="370" cy="-459" rx="27" ry="21.56"/>
<text text-anchor="middle" x="370" y="-454.8" font-family="sans-serif" font-size="14.00" fill="aliceblue">jade</text>
</g>
<!-- a28beaa9&#45;2d4f&#45;4f5b&#45;a454&#45;e66469541908 -->
<g id="node14" class="node"><title>a28beaa9&#45;2d4f&#45;4f5b&#45;a454&#45;e66469541908</title>
<polygon fill="none" stroke="black" stroke-width="2" points="580,-473 526,-473 526,-437 580,-437 580,-473"/>
<text text-anchor="middle" x="553" y="-450.8" font-family="sans-serif" font-size="14.00">jade</text>
</g>
<!-- d2a19663&#45;2f08&#45;42b9&#45;9f28&#45;9dab7473cc97&#45;&gt;a28beaa9&#45;2d4f&#45;4f5b&#45;a454&#45;e66469541908 -->
<g id="edge1" class="edge"><title>d2a19663&#45;2f08&#45;42b9&#45;9f28&#45;9dab7473cc97&#45;&gt;a28beaa9&#45;2d4f&#45;4f5b&#45;a454&#45;e66469541908</title>
<path fill="none" stroke="aliceblue" stroke-width="1.5" d="M397.319,-458.418C428.507,-457.729 480.647,-456.577 515.667,-455.803"/>
<polygon fill="aliceblue" stroke="aliceblue" stroke-width="1.5" points="516.023,-459.296 525.943,-455.576 515.868,-452.298 516.023,-459.296"/>
</g>
<!-- 294e7d34&#45;9da3&#45;4722&#45;8f7c&#45;80fbac40387d -->
<g id="node6" class="node"><title>294e7d34&#45;9da3&#45;4722&#45;8f7c&#45;80fbac40387d</title>
<ellipse fill="none" stroke="mediumslateblue" stroke-width="2" cx="370" cy="-393" rx="36.6316" ry="21.56"/>
<text text-anchor="middle" x="370" y="-388.8" font-family="sans-serif" font-size="14.00" fill="mediumslateblue">md (1)</text>
</g>
<!-- 602a9178&#45;2a98&#45;4bd0&#45;84c3&#45;608a249df1fc -->
<g id="node15" class="node"><title>602a9178&#45;2a98&#45;4bd0&#45;84c3&#45;608a249df1fc</title>
<polygon fill="none" stroke="black" stroke-width="2" points="596.872,-415 509.128,-415 509.128,-379 596.872,-379 596.872,-415"/>
<text text-anchor="middle" x="553" y="-392.8" font-family="sans-serif" font-size="14.00">markdown</text>
</g>
<!-- 294e7d34&#45;9da3&#45;4722&#45;8f7c&#45;80fbac40387d&#45;&gt;602a9178&#45;2a98&#45;4bd0&#45;84c3&#45;608a249df1fc -->
<g id="edge2" class="edge"><title>294e7d34&#45;9da3&#45;4722&#45;8f7c&#45;80fbac40387d&#45;&gt;602a9178&#45;2a98&#45;4bd0&#45;84c3&#45;608a249df1fc</title>
<path fill="none" stroke="mediumslateblue" stroke-width="1.5" d="M406.76,-393.79C433.025,-394.371 469.144,-395.169 498.792,-395.824"/>
<polygon fill="mediumslateblue" stroke="mediumslateblue" stroke-width="1.5" points="498.907,-399.327 508.982,-396.049 499.062,-392.329 498.907,-399.327"/>
</g>
<!-- 1a53b692&#45;dfe6&#45;4054&#45;a5e3&#45;a21a9338aaec -->
<g id="node7" class="node"><title>1a53b692&#45;dfe6&#45;4054&#45;a5e3&#45;a21a9338aaec</title>
<ellipse fill="none" stroke="mediumslateblue" stroke-width="2" cx="40" cy="-589" rx="39.7191" ry="21.56"/>
<text text-anchor="middle" x="40" y="-584.8" font-family="sans-serif" font-size="14.00" fill="mediumslateblue">scss (1)</text>
</g>
<!-- 4c06bc49&#45;d281&#45;4853&#45;a507&#45;8f3cfb39873d -->
<g id="node16" class="node"><title>4c06bc49&#45;d281&#45;4853&#45;a507&#45;8f3cfb39873d</title>
<polygon fill="none" stroke="black" stroke-width="2" points="228,-599 174,-599 174,-563 228,-563 228,-599"/>
<text text-anchor="middle" x="201" y="-576.8" font-family="sans-serif" font-size="14.00">sass</text>
</g>
<!-- 1a53b692&#45;dfe6&#45;4054&#45;a5e3&#45;a21a9338aaec&#45;&gt;4c06bc49&#45;d281&#45;4853&#45;a507&#45;8f3cfb39873d -->
<g id="edge3" class="edge"><title>1a53b692&#45;dfe6&#45;4054&#45;a5e3&#45;a21a9338aaec&#45;&gt;4c06bc49&#45;d281&#45;4853&#45;a507&#45;8f3cfb39873d</title>
<path fill="none" stroke="mediumslateblue" stroke-width="1.5" d="M79.8958,-587.043C105.477,-585.756 138.726,-584.083 163.753,-582.824"/>
<polygon fill="mediumslateblue" stroke="mediumslateblue" stroke-width="1.5" points="164.118,-586.31 173.929,-582.312 163.766,-579.319 164.118,-586.31"/>
</g>
<!-- 1fab94ce&#45;2c4c&#45;4833&#45;a86c&#45;0750657104a0 -->
<g id="node8" class="node"><title>1fab94ce&#45;2c4c&#45;4833&#45;a86c&#45;0750657104a0</title>
<ellipse fill="none" stroke="aliceblue" stroke-width="2" cx="40" cy="-523" rx="27" ry="21.56"/>
<text text-anchor="middle" x="40" y="-518.8" font-family="sans-serif" font-size="14.00" fill="aliceblue">less</text>
</g>
<!-- a1215ff7&#45;ae4d&#45;430e&#45;b664&#45;2da3cbb76aae -->
<g id="node17" class="node"><title>a1215ff7&#45;ae4d&#45;430e&#45;b664&#45;2da3cbb76aae</title>
<polygon fill="none" stroke="black" stroke-width="2" points="228,-541 174,-541 174,-505 228,-505 228,-541"/>
<text text-anchor="middle" x="201" y="-518.8" font-family="sans-serif" font-size="14.00">less</text>
</g>
<!-- 1fab94ce&#45;2c4c&#45;4833&#45;a86c&#45;0750657104a0&#45;&gt;a1215ff7&#45;ae4d&#45;430e&#45;b664&#45;2da3cbb76aae -->
<g id="edge4" class="edge"><title>1fab94ce&#45;2c4c&#45;4833&#45;a86c&#45;0750657104a0&#45;&gt;a1215ff7&#45;ae4d&#45;430e&#45;b664&#45;2da3cbb76aae</title>
<path fill="none" stroke="aliceblue" stroke-width="1.5" d="M67.2556,-523C93.5721,-523 134.295,-523 163.697,-523"/>
<polygon fill="aliceblue" stroke="aliceblue" stroke-width="1.5" points="163.97,-526.5 173.97,-523 163.97,-519.5 163.97,-526.5"/>
</g>
<!-- b67bf85b&#45;1621&#45;418d&#45;94f1&#45;60d6ac0e94a6 -->
<g id="node9" class="node"><title>b67bf85b&#45;1621&#45;418d&#45;94f1&#45;60d6ac0e94a6</title>
<ellipse fill="none" stroke="aliceblue" stroke-width="2" cx="40" cy="-457" rx="27" ry="21.56"/>
<text text-anchor="middle" x="40" y="-452.8" font-family="sans-serif" font-size="14.00" fill="aliceblue">styl</text>
</g>
<!-- ede6f2fd&#45;80c4&#45;4632&#45;b93a&#45;46de5ad37e6f -->
<g id="node18" class="node"><title>ede6f2fd&#45;80c4&#45;4632&#45;b93a&#45;46de5ad37e6f</title>
<polygon fill="none" stroke="black" stroke-width="2" points="231.171,-479 170.829,-479 170.829,-443 231.171,-443 231.171,-479"/>
<text text-anchor="middle" x="201" y="-456.8" font-family="sans-serif" font-size="14.00">stylus</text>
</g>
<!-- b67bf85b&#45;1621&#45;418d&#45;94f1&#45;60d6ac0e94a6&#45;&gt;ede6f2fd&#45;80c4&#45;4632&#45;b93a&#45;46de5ad37e6f -->
<g id="edge5" class="edge"><title>b67bf85b&#45;1621&#45;418d&#45;94f1&#45;60d6ac0e94a6&#45;&gt;ede6f2fd&#45;80c4&#45;4632&#45;b93a&#45;46de5ad37e6f</title>
<path fill="none" stroke="aliceblue" stroke-width="1.5" d="M67.2556,-457.661C92.6294,-458.299 131.396,-459.274 160.495,-460.006"/>
<polygon fill="aliceblue" stroke="aliceblue" stroke-width="1.5" points="160.651,-463.511 170.736,-460.264 160.827,-456.513 160.651,-463.511"/>
</g>
<!-- ed004b95&#45;0d8c&#45;4ca7&#45;91ec&#45;782c18047433 -->
<g id="node10" class="node"><title>ed004b95&#45;0d8c&#45;4ca7&#45;91ec&#45;782c18047433</title>
<ellipse fill="none" stroke="aliceblue" stroke-width="2" cx="201" cy="-21" rx="27" ry="21.56"/>
<text text-anchor="middle" x="201" y="-16.8" font-family="sans-serif" font-size="14.00" fill="aliceblue">ts</text>
</g>
<!-- 423a6871&#45;79dc&#45;4a41&#45;91ac&#45;8981df06ac49 -->
<g id="node19" class="node"><title>423a6871&#45;79dc&#45;4a41&#45;91ac&#45;8981df06ac49</title>
<polygon fill="none" stroke="black" stroke-width="2" points="411.706,-39 328.294,-39 328.294,-3 411.706,-3 411.706,-39"/>
<text text-anchor="middle" x="370" y="-16.8" font-family="sans-serif" font-size="14.00">typescript</text>
</g>
<!-- ed004b95&#45;0d8c&#45;4ca7&#45;91ec&#45;782c18047433&#45;&gt;423a6871&#45;79dc&#45;4a41&#45;91ac&#45;8981df06ac49 -->
<g id="edge6" class="edge"><title>ed004b95&#45;0d8c&#45;4ca7&#45;91ec&#45;782c18047433&#45;&gt;423a6871&#45;79dc&#45;4a41&#45;91ac&#45;8981df06ac49</title>
<path fill="none" stroke="aliceblue" stroke-width="1.5" d="M228.094,-21C252.055,-21 288.241,-21 317.943,-21"/>
<polygon fill="aliceblue" stroke="aliceblue" stroke-width="1.5" points="318.147,-24.5001 328.147,-21 318.147,-17.5001 318.147,-24.5001"/>
</g>
<!-- 4c5767cd&#45;e171&#45;435d&#45;a9df&#45;2194ed426059 -->
<g id="node11" class="node"><title>4c5767cd&#45;e171&#45;435d&#45;a9df&#45;2194ed426059</title>
<ellipse fill="none" stroke="mediumslateblue" stroke-width="2" cx="201" cy="-89" rx="48.7788" ry="21.56"/>
<text text-anchor="middle" x="201" y="-84.8" font-family="sans-serif" font-size="14.00" fill="mediumslateblue">coffee (1)</text>
</g>
<!-- 2ff3d108&#45;3d1f&#45;4ed7&#45;a7fc&#45;6faa1c580bab -->
<g id="node20" class="node"><title>2ff3d108&#45;3d1f&#45;4ed7&#45;a7fc&#45;6faa1c580bab</title>
<polygon fill="none" stroke="black" stroke-width="2" points="418.405,-107 321.595,-107 321.595,-71 418.405,-71 418.405,-107"/>
<text text-anchor="middle" x="370" y="-84.8" font-family="sans-serif" font-size="14.00">coffeeScript</text>
</g>
<!-- 4c5767cd&#45;e171&#45;435d&#45;a9df&#45;2194ed426059&#45;&gt;2ff3d108&#45;3d1f&#45;4ed7&#45;a7fc&#45;6faa1c580bab -->
<g id="edge7" class="edge"><title>4c5767cd&#45;e171&#45;435d&#45;a9df&#45;2194ed426059&#45;&gt;2ff3d108&#45;3d1f&#45;4ed7&#45;a7fc&#45;6faa1c580bab</title>
<path fill="none" stroke="mediumslateblue" stroke-width="1.5" d="M249.855,-89C269.061,-89 291.364,-89 311.445,-89"/>
<polygon fill="mediumslateblue" stroke="mediumslateblue" stroke-width="1.5" points="311.715,-92.5001 321.715,-89 311.715,-85.5001 311.715,-92.5001"/>
</g>
<!-- 2d16c9b2&#45;080d&#45;4e87&#45;9801&#45;feabf42d25d6 -->
<g id="node12" class="node"><title>2d16c9b2&#45;080d&#45;4e87&#45;9801&#45;feabf42d25d6</title>
<ellipse fill="none" stroke="mediumslateblue" stroke-width="2" cx="553" cy="-517" rx="62.9058" ry="21.56"/>
<text text-anchor="middle" x="553" y="-512.8" font-family="sans-serif" font-size="14.00" fill="mediumslateblue">bowerCss (2)</text>
</g>
<!-- 4144164b&#45;3927&#45;490d&#45;9c6d&#45;ab030934fa07 -->
<g id="node24" class="node"><title>4144164b&#45;3927&#45;490d&#45;9c6d&#45;ab030934fa07</title>
<polygon fill="none" stroke="black" stroke-width="2" points="773.261,-537 688.739,-537 688.739,-501 773.261,-501 773.261,-537"/>
<text text-anchor="middle" x="731" y="-514.8" font-family="sans-serif" font-size="14.00">concatCss</text>
</g>
<!-- 2d16c9b2&#45;080d&#45;4e87&#45;9801&#45;feabf42d25d6&#45;&gt;4144164b&#45;3927&#45;490d&#45;9c6d&#45;ab030934fa07 -->
<g id="edge14" class="edge"><title>2d16c9b2&#45;080d&#45;4e87&#45;9801&#45;feabf42d25d6&#45;&gt;4144164b&#45;3927&#45;490d&#45;9c6d&#45;ab030934fa07</title>
<path fill="none" stroke="mediumslateblue" stroke-width="1.5" d="M616.051,-517.705C636.436,-517.937 658.862,-518.192 678.387,-518.413"/>
<polygon fill="mediumslateblue" stroke="mediumslateblue" stroke-width="1.5" points="678.565,-521.916 688.605,-518.53 678.645,-514.916 678.565,-521.916"/>
</g>
<!-- 2d16c9b2&#45;080d&#45;4e87&#45;9801&#45;feabf42d25d6&#45;&gt;211ff35d&#45;bf14&#45;4556&#45;930f&#45;76bd2e9b264c -->
<g id="edge26" class="edge"><title>2d16c9b2&#45;080d&#45;4e87&#45;9801&#45;feabf42d25d6&#45;&gt;211ff35d&#45;bf14&#45;4556&#45;930f&#45;76bd2e9b264c</title>
<path fill="none" stroke="mediumslateblue" stroke-dasharray="5,2" d="M590.846,-499.732C599.407,-495.092 608.27,-489.748 616,-484 651.826,-457.357 687.074,-419.513 708.674,-394.619"/>
<polygon fill="none" stroke="mediumslateblue" points="711.337,-396.891 715.191,-387.022 706.024,-392.333 711.337,-396.891"/>
</g>
<!-- 3a3bca82&#45;9aba&#45;47c7&#45;a66e&#45;9e26b8ab6c98 -->
<g id="node13" class="node"><title>3a3bca82&#45;9aba&#45;47c7&#45;a66e&#45;9e26b8ab6c98</title>
<ellipse fill="none" stroke="mediumslateblue" stroke-width="2" cx="553" cy="-269" rx="56.2022" ry="21.56"/>
<text text-anchor="middle" x="553" y="-264.8" font-family="sans-serif" font-size="14.00" fill="mediumslateblue">bowerJs (5)</text>
</g>
<!-- 45fbb5a0&#45;98a8&#45;4c8f&#45;aa13&#45;e3858b87cc42 -->
<g id="node26" class="node"><title>45fbb5a0&#45;98a8&#45;4c8f&#45;aa13&#45;e3858b87cc42</title>
<polygon fill="none" stroke="black" stroke-width="2" points="768.925,-283 693.075,-283 693.075,-247 768.925,-247 768.925,-283"/>
<text text-anchor="middle" x="731" y="-260.8" font-family="sans-serif" font-size="14.00">concatJs</text>
</g>
<!-- 3a3bca82&#45;9aba&#45;47c7&#45;a66e&#45;9e26b8ab6c98&#45;&gt;45fbb5a0&#45;98a8&#45;4c8f&#45;aa13&#45;e3858b87cc42 -->
<g id="edge17" class="edge"><title>3a3bca82&#45;9aba&#45;47c7&#45;a66e&#45;9e26b8ab6c98&#45;&gt;45fbb5a0&#45;98a8&#45;4c8f&#45;aa13&#45;e3858b87cc42</title>
<path fill="none" stroke="mediumslateblue" stroke-width="1.5" d="M609.688,-267.734C633.355,-267.196 660.643,-266.576 683.242,-266.063"/>
<polygon fill="mediumslateblue" stroke="mediumslateblue" stroke-width="1.5" points="683.347,-269.561 693.265,-265.835 683.188,-262.563 683.347,-269.561"/>
</g>
<!-- 3a3bca82&#45;9aba&#45;47c7&#45;a66e&#45;9e26b8ab6c98&#45;&gt;211ff35d&#45;bf14&#45;4556&#45;930f&#45;76bd2e9b264c -->
<g id="edge27" class="edge"><title>3a3bca82&#45;9aba&#45;47c7&#45;a66e&#45;9e26b8ab6c98&#45;&gt;211ff35d&#45;bf14&#45;4556&#45;930f&#45;76bd2e9b264c</title>
<path fill="none" stroke="mediumslateblue" stroke-dasharray="5,2" d="M586.96,-286.212C596.384,-291.222 606.636,-296.76 616,-302 641.178,-316.091 669.111,-332.495 691.026,-345.545"/>
<polygon fill="none" stroke="mediumslateblue" points="689.338,-348.613 699.718,-350.733 692.925,-342.603 689.338,-348.613"/>
</g>
<!-- a28beaa9&#45;2d4f&#45;4f5b&#45;a454&#45;e66469541908&#45;&gt;211ff35d&#45;bf14&#45;4556&#45;930f&#45;76bd2e9b264c -->
<g id="edge24" class="edge"><title>a28beaa9&#45;2d4f&#45;4f5b&#45;a454&#45;e66469541908&#45;&gt;211ff35d&#45;bf14&#45;4556&#45;930f&#45;76bd2e9b264c</title>
<path fill="none" stroke="black" stroke-width="1.5" d="M580.014,-443.016C591.131,-437.847 604.233,-431.692 616,-426 638.991,-414.878 664.424,-402.198 685.423,-391.626"/>
<polygon fill="black" stroke="black" stroke-width="1.5" points="687.079,-394.711 694.432,-387.083 683.927,-388.461 687.079,-394.711"/>
</g>
<!-- a28beaa9&#45;2d4f&#45;4f5b&#45;a454&#45;e66469541908&#45;&gt;f040a71d&#45;d6ef&#45;4eaf&#45;b82b&#45;4bea7153e1bf -->
<g id="edge31" class="edge"><title>a28beaa9&#45;2d4f&#45;4f5b&#45;a454&#45;e66469541908&#45;&gt;f040a71d&#45;d6ef&#45;4eaf&#45;b82b&#45;4bea7153e1bf</title>
<path fill="none" stroke="black" stroke-width="1.5" d="M580.062,-451.733C636.503,-444.657 770.927,-427.805 845.298,-418.482"/>
<polygon fill="black" stroke="black" stroke-width="1.5" points="845.892,-421.935 855.379,-417.218 845.022,-414.989 845.892,-421.935"/>
</g>
<!-- 602a9178&#45;2a98&#45;4bd0&#45;84c3&#45;608a249df1fc&#45;&gt;211ff35d&#45;bf14&#45;4556&#45;930f&#45;76bd2e9b264c -->
<g id="edge25" class="edge"><title>602a9178&#45;2a98&#45;4bd0&#45;84c3&#45;608a249df1fc&#45;&gt;211ff35d&#45;bf14&#45;4556&#45;930f&#45;76bd2e9b264c</title>
<path fill="none" stroke="black" stroke-width="1.5" d="M597.054,-390.15C621.94,-386.191 653.382,-381.189 679.439,-377.044"/>
<polygon fill="black" stroke="black" stroke-width="1.5" points="680.178,-380.47 689.504,-375.443 679.078,-373.557 680.178,-380.47"/>
</g>
<!-- 602a9178&#45;2a98&#45;4bd0&#45;84c3&#45;608a249df1fc&#45;&gt;f040a71d&#45;d6ef&#45;4eaf&#45;b82b&#45;4bea7153e1bf -->
<g id="edge32" class="edge"><title>602a9178&#45;2a98&#45;4bd0&#45;84c3&#45;608a249df1fc&#45;&gt;f040a71d&#45;d6ef&#45;4eaf&#45;b82b&#45;4bea7153e1bf</title>
<path fill="none" stroke="black" stroke-width="1.5" d="M597.094,-398.885C660.245,-401.646 777.749,-406.785 845.409,-409.744"/>
<polygon fill="black" stroke="black" stroke-width="1.5" points="845.278,-413.241 855.421,-410.182 845.584,-406.248 845.278,-413.241"/>
</g>
<!-- 4c06bc49&#45;d281&#45;4853&#45;a507&#45;8f3cfb39873d&#45;&gt;bb31d9ab&#45;8b84&#45;4f41&#45;81fb&#45;b064b5061afd -->
<g id="edge9" class="edge"><title>4c06bc49&#45;d281&#45;4853&#45;a507&#45;8f3cfb39873d&#45;&gt;bb31d9ab&#45;8b84&#45;4f41&#45;81fb&#45;b064b5061afd</title>
<path fill="none" stroke="black" stroke-width="1.5" d="M228.094,-576.469C251.809,-572.35 287.499,-566.153 317.025,-561.026"/>
<polygon fill="black" stroke="black" stroke-width="1.5" points="317.928,-564.421 327.182,-559.262 316.731,-557.524 317.928,-564.421"/>
</g>
<!-- a1215ff7&#45;ae4d&#45;430e&#45;b664&#45;2da3cbb76aae&#45;&gt;bb31d9ab&#45;8b84&#45;4f41&#45;81fb&#45;b064b5061afd -->
<g id="edge10" class="edge"><title>a1215ff7&#45;ae4d&#45;430e&#45;b664&#45;2da3cbb76aae&#45;&gt;bb31d9ab&#45;8b84&#45;4f41&#45;81fb&#45;b064b5061afd</title>
<path fill="none" stroke="black" stroke-width="1.5" d="M228.094,-527.531C251.809,-531.65 287.499,-537.847 317.025,-542.974"/>
<polygon fill="black" stroke="black" stroke-width="1.5" points="316.731,-546.476 327.182,-544.738 317.928,-539.579 316.731,-546.476"/>
</g>
<!-- ede6f2fd&#45;80c4&#45;4632&#45;b93a&#45;46de5ad37e6f&#45;&gt;bb31d9ab&#45;8b84&#45;4f41&#45;81fb&#45;b064b5061afd -->
<g id="edge11" class="edge"><title>ede6f2fd&#45;80c4&#45;4632&#45;b93a&#45;46de5ad37e6f&#45;&gt;bb31d9ab&#45;8b84&#45;4f41&#45;81fb&#45;b064b5061afd</title>
<path fill="none" stroke="black" stroke-width="1.5" d="M231.472,-477.059C257.948,-491.487 297.124,-512.834 326.899,-529.059"/>
<polygon fill="black" stroke="black" stroke-width="1.5" points="325.357,-532.204 335.813,-533.916 328.706,-526.058 325.357,-532.204"/>
</g>
<!-- 423a6871&#45;79dc&#45;4a41&#45;91ac&#45;8981df06ac49&#45;&gt;a195d7d9&#45;df5f&#45;443a&#45;81fd&#45;f2c9832ccbb4 -->
<g id="edge21" class="edge"><title>423a6871&#45;79dc&#45;4a41&#45;91ac&#45;8981df06ac49&#45;&gt;a195d7d9&#45;df5f&#45;443a&#45;81fd&#45;f2c9832ccbb4</title>
<path fill="none" stroke="black" stroke-width="1.5" d="M394.292,-39.0159C426.379,-63.8342 484.287,-108.625 520.297,-136.478"/>
<polygon fill="black" stroke="black" stroke-width="1.5" points="518.459,-139.482 528.511,-142.831 522.742,-133.945 518.459,-139.482"/>
</g>
<!-- 4276fb17&#45;e95e&#45;4f32&#45;89d8&#45;9bb23fe10e09 -->
<g id="node32" class="node"><title>4276fb17&#45;e95e&#45;4f32&#45;89d8&#45;9bb23fe10e09</title>
<polygon fill="none" stroke="black" stroke-width="2" points="945.637,-205 850.363,-205 850.363,-169 945.637,-169 945.637,-205"/>
<text text-anchor="middle" x="898" y="-182.8" font-family="sans-serif" font-size="14.00">writeToDev</text>
</g>
<!-- 423a6871&#45;79dc&#45;4a41&#45;91ac&#45;8981df06ac49&#45;&gt;4276fb17&#45;e95e&#45;4f32&#45;89d8&#45;9bb23fe10e09 -->
<g id="edge39" class="edge"><title>423a6871&#45;79dc&#45;4a41&#45;91ac&#45;8981df06ac49&#45;&gt;4276fb17&#45;e95e&#45;4f32&#45;89d8&#45;9bb23fe10e09</title>
<path fill="none" stroke="black" stroke-width="1.5" d="M411.863,-32.4054C484.936,-52.9926 642.649,-98.2956 774,-142 795.885,-149.282 819.738,-157.858 840.564,-165.56"/>
<polygon fill="black" stroke="black" stroke-width="1.5" points="839.617,-168.942 850.21,-169.144 842.056,-162.38 839.617,-168.942"/>
</g>
<!-- 2ff3d108&#45;3d1f&#45;4ed7&#45;a7fc&#45;6faa1c580bab&#45;&gt;a195d7d9&#45;df5f&#45;443a&#45;81fd&#45;f2c9832ccbb4 -->
<g id="edge22" class="edge"><title>2ff3d108&#45;3d1f&#45;4ed7&#45;a7fc&#45;6faa1c580bab&#45;&gt;a195d7d9&#45;df5f&#45;443a&#45;81fd&#45;f2c9832ccbb4</title>
<path fill="none" stroke="black" stroke-width="1.5" d="M416.674,-107.169C441.097,-116.884 471.347,-128.917 497.048,-139.141"/>
<polygon fill="black" stroke="black" stroke-width="1.5" points="496.069,-142.518 506.654,-142.962 498.656,-136.014 496.069,-142.518"/>
</g>
<!-- 2ff3d108&#45;3d1f&#45;4ed7&#45;a7fc&#45;6faa1c580bab&#45;&gt;4276fb17&#45;e95e&#45;4f32&#45;89d8&#45;9bb23fe10e09 -->
<g id="edge38" class="edge"><title>2ff3d108&#45;3d1f&#45;4ed7&#45;a7fc&#45;6faa1c580bab&#45;&gt;4276fb17&#45;e95e&#45;4f32&#45;89d8&#45;9bb23fe10e09</title>
<path fill="none" stroke="black" stroke-width="1.5" d="M418.475,-97.0495C467.868,-105.49 547.428,-119.273 616,-132 693.921,-146.462 783.771,-164.242 840.472,-175.599"/>
<polygon fill="black" stroke="black" stroke-width="1.5" points="839.824,-179.038 850.316,-177.573 841.2,-172.175 839.824,-179.038"/>
</g>
<!-- bf9775aa&#45;f60c&#45;402a&#45;b50b&#45;eac2bb655bc9 -->
<g id="node27" class="node"><title>bf9775aa&#45;f60c&#45;402a&#45;b50b&#45;eac2bb655bc9</title>
<polygon fill="none" stroke="black" stroke-width="2" points="612.77,-597 493.23,-597 493.23,-561 612.77,-561 612.77,-597"/>
<text text-anchor="middle" x="553" y="-574.8" font-family="sans-serif" font-size="14.00">sortCssByDepth</text>
</g>
<!-- bb31d9ab&#45;8b84&#45;4f41&#45;81fb&#45;b064b5061afd&#45;&gt;bf9775aa&#45;f60c&#45;402a&#45;b50b&#45;eac2bb655bc9 -->
<g id="edge19" class="edge"><title>bb31d9ab&#45;8b84&#45;4f41&#45;81fb&#45;b064b5061afd&#45;&gt;bf9775aa&#45;f60c&#45;402a&#45;b50b&#45;eac2bb655bc9</title>
<path fill="none" stroke="black" stroke-width="1.5" d="M412.98,-558.262C433.814,-561.37 459.519,-565.205 483.136,-568.727"/>
<polygon fill="black" stroke="black" stroke-width="1.5" points="482.702,-572.201 493.109,-570.215 483.735,-565.278 482.702,-572.201"/>
</g>
<!-- bb31d9ab&#45;8b84&#45;4f41&#45;81fb&#45;b064b5061afd&#45;&gt;4276fb17&#45;e95e&#45;4f32&#45;89d8&#45;9bb23fe10e09 -->
<g id="edge37" class="edge"><title>bb31d9ab&#45;8b84&#45;4f41&#45;81fb&#45;b064b5061afd&#45;&gt;4276fb17&#45;e95e&#45;4f32&#45;89d8&#45;9bb23fe10e09</title>
<path fill="none" stroke="black" stroke-width="1.5" d="M388.047,-533.764C398.011,-522.254 410.133,-506.647 418,-491 470.896,-385.784 400.517,-312.558 490,-236 541.381,-192.04 740.736,-186.343 840.076,-186.327"/>
<polygon fill="black" stroke="black" stroke-width="1.5" points="840.23,-189.827 850.236,-186.345 840.242,-182.827 840.23,-189.827"/>
</g>
<!-- 98091ecf&#45;058a&#45;40c4&#45;bf95&#45;e4a2d45bf044 -->
<g id="node22" class="node"><title>98091ecf&#45;058a&#45;40c4&#45;bf95&#45;e4a2d45bf044</title>
<polygon fill="none" stroke="black" stroke-width="2" points="1124.11,-407 1029.89,-407 1029.89,-371 1124.11,-371 1124.11,-407"/>
<text text-anchor="middle" x="1077" y="-384.8" font-family="sans-serif" font-size="14.00">minifyHtml</text>
</g>
<!-- e290e0d8&#45;75fc&#45;4a3d&#45;8733&#45;3e9fe02753b8 -->
<g id="node34" class="node"><title>e290e0d8&#45;75fc&#45;4a3d&#45;8733&#45;3e9fe02753b8</title>
<polygon fill="limegreen" stroke="limegreen" points="1311.26,-384.3 1204.74,-384.3 1204.74,-331.7 1311.26,-331.7 1311.26,-384.3"/>
<text text-anchor="middle" x="1258" y="-353.8" font-family="sans-serif" font-size="14.00" fill="white">writeToProd</text>
</g>
<!-- 98091ecf&#45;058a&#45;40c4&#45;bf95&#45;e4a2d45bf044&#45;&gt;e290e0d8&#45;75fc&#45;4a3d&#45;8733&#45;3e9fe02753b8 -->
<g id="edge43" class="edge"><title>98091ecf&#45;058a&#45;40c4&#45;bf95&#45;e4a2d45bf044&#45;&gt;e290e0d8&#45;75fc&#45;4a3d&#45;8733&#45;3e9fe02753b8</title>
<path fill="none" stroke="black" stroke-width="1.5" d="M1124.1,-381.017C1145.57,-377.297 1171.45,-372.816 1194.64,-368.8"/>
<polygon fill="black" stroke="black" stroke-width="1.5" points="1195.48,-372.207 1204.73,-367.052 1194.28,-365.31 1195.48,-372.207"/>
</g>
<!-- 723c9fa9&#45;bf71&#45;487f&#45;b1d7&#45;9ab1c91bc828 -->
<g id="node23" class="node"><title>723c9fa9&#45;bf71&#45;487f&#45;b1d7&#45;9ab1c91bc828</title>
<polygon fill="none" stroke="black" stroke-width="2" points="940.559,-534 855.441,-534 855.441,-498 940.559,-498 940.559,-534"/>
<text text-anchor="middle" x="898" y="-511.8" font-family="sans-serif" font-size="14.00">minifyCss</text>
</g>
<!-- 723c9fa9&#45;bf71&#45;487f&#45;b1d7&#45;9ab1c91bc828&#45;&gt;e290e0d8&#45;75fc&#45;4a3d&#45;8733&#45;3e9fe02753b8 -->
<g id="edge44" class="edge"><title>723c9fa9&#45;bf71&#45;487f&#45;b1d7&#45;9ab1c91bc828&#45;&gt;e290e0d8&#45;75fc&#45;4a3d&#45;8733&#45;3e9fe02753b8</title>
<path fill="none" stroke="black" stroke-width="1.5" d="M940.937,-499.091C987.792,-480.029 1065.77,-447.802 1132,-418 1152.84,-408.62 1175.42,-397.944 1195.58,-388.223"/>
<polygon fill="black" stroke="black" stroke-width="1.5" points="1197.18,-391.338 1204.66,-383.832 1194.13,-385.036 1197.18,-391.338"/>
</g>
<!-- 4144164b&#45;3927&#45;490d&#45;9c6d&#45;ab030934fa07&#45;&gt;723c9fa9&#45;bf71&#45;487f&#45;b1d7&#45;9ab1c91bc828 -->
<g id="edge13" class="edge"><title>4144164b&#45;3927&#45;490d&#45;9c6d&#45;ab030934fa07&#45;&gt;723c9fa9&#45;bf71&#45;487f&#45;b1d7&#45;9ab1c91bc828</title>
<path fill="none" stroke="black" stroke-width="1.5" d="M773.636,-518.243C795.327,-517.849 822.06,-517.363 845.088,-516.944"/>
<polygon fill="black" stroke="black" stroke-width="1.5" points="845.442,-520.438 855.377,-516.757 845.315,-513.439 845.442,-520.438"/>
</g>
<!-- 4144164b&#45;3927&#45;490d&#45;9c6d&#45;ab030934fa07&#45;&gt;f040a71d&#45;d6ef&#45;4eaf&#45;b82b&#45;4bea7153e1bf -->
<g id="edge33" class="edge"><title>4144164b&#45;3927&#45;490d&#45;9c6d&#45;ab030934fa07&#45;&gt;f040a71d&#45;d6ef&#45;4eaf&#45;b82b&#45;4bea7153e1bf</title>
<path fill="none" stroke="black" stroke-dasharray="5,2" d="M759.99,-500.849C787.689,-482.886 830.227,-455.301 860.551,-435.636"/>
<polygon fill="none" stroke="black" points="862.663,-438.439 869.149,-430.061 858.854,-432.566 862.663,-438.439"/>
</g>
<!-- b5972b9b&#45;372d&#45;49c2&#45;b780&#45;e8b346835b73 -->
<g id="node25" class="node"><title>b5972b9b&#45;372d&#45;49c2&#45;b780&#45;e8b346835b73</title>
<polygon fill="none" stroke="black" stroke-width="2" points="1115.22,-346 1038.78,-346 1038.78,-310 1115.22,-310 1115.22,-346"/>
<text text-anchor="middle" x="1077" y="-323.8" font-family="sans-serif" font-size="14.00">minifyJs</text>
</g>
<!-- b5972b9b&#45;372d&#45;49c2&#45;b780&#45;e8b346835b73&#45;&gt;e290e0d8&#45;75fc&#45;4a3d&#45;8733&#45;3e9fe02753b8 -->
<g id="edge45" class="edge"><title>b5972b9b&#45;372d&#45;49c2&#45;b780&#45;e8b346835b73&#45;&gt;e290e0d8&#45;75fc&#45;4a3d&#45;8733&#45;3e9fe02753b8</title>
<path fill="none" stroke="black" stroke-width="1.5" d="M1115.52,-334.289C1138.43,-338.128 1168.29,-343.133 1194.67,-347.554"/>
<polygon fill="black" stroke="black" stroke-width="1.5" points="1194.15,-351.015 1204.59,-349.216 1195.31,-344.111 1194.15,-351.015"/>
</g>
<!-- 45fbb5a0&#45;98a8&#45;4c8f&#45;aa13&#45;e3858b87cc42&#45;&gt;b5972b9b&#45;372d&#45;49c2&#45;b780&#45;e8b346835b73 -->
<g id="edge16" class="edge"><title>45fbb5a0&#45;98a8&#45;4c8f&#45;aa13&#45;e3858b87cc42&#45;&gt;b5972b9b&#45;372d&#45;49c2&#45;b780&#45;e8b346835b73</title>
<path fill="none" stroke="black" stroke-width="1.5" d="M768.891,-273.153C791.175,-277.981 820.169,-284.093 846,-289 909.07,-300.981 982.216,-313.078 1028.78,-320.553"/>
<polygon fill="black" stroke="black" stroke-width="1.5" points="1028.45,-324.044 1038.87,-322.168 1029.55,-317.132 1028.45,-324.044"/>
</g>
<!-- 45fbb5a0&#45;98a8&#45;4c8f&#45;aa13&#45;e3858b87cc42&#45;&gt;f040a71d&#45;d6ef&#45;4eaf&#45;b82b&#45;4bea7153e1bf -->
<g id="edge34" class="edge"><title>45fbb5a0&#45;98a8&#45;4c8f&#45;aa13&#45;e3858b87cc42&#45;&gt;f040a71d&#45;d6ef&#45;4eaf&#45;b82b&#45;4bea7153e1bf</title>
<path fill="none" stroke="black" stroke-dasharray="5,2" d="M754.387,-283.347C760.771,-288.663 767.702,-294.513 774,-300 807.6,-329.273 845.381,-363.947 870.096,-386.876"/>
<polygon fill="none" stroke="black" points="867.932,-389.643 877.64,-393.887 872.697,-384.515 867.932,-389.643"/>
</g>
<!-- bf9775aa&#45;f60c&#45;402a&#45;b50b&#45;eac2bb655bc9&#45;&gt;4144164b&#45;3927&#45;490d&#45;9c6d&#45;ab030934fa07 -->
<g id="edge15" class="edge"><title>bf9775aa&#45;f60c&#45;402a&#45;b50b&#45;eac2bb655bc9&#45;&gt;4144164b&#45;3927&#45;490d&#45;9c6d&#45;ab030934fa07</title>
<path fill="none" stroke="black" stroke-width="1.5" d="M606.806,-560.998C629.65,-553.21 656.283,-544.131 678.929,-536.411"/>
<polygon fill="black" stroke="black" stroke-width="1.5" points="680.36,-539.621 688.696,-533.081 678.101,-532.995 680.36,-539.621"/>
</g>
<!-- bf9775aa&#45;f60c&#45;402a&#45;b50b&#45;eac2bb655bc9&#45;&gt;211ff35d&#45;bf14&#45;4556&#45;930f&#45;76bd2e9b264c -->
<g id="edge28" class="edge"><title>bf9775aa&#45;f60c&#45;402a&#45;b50b&#45;eac2bb655bc9&#45;&gt;211ff35d&#45;bf14&#45;4556&#45;930f&#45;76bd2e9b264c</title>
<path fill="none" stroke="black" stroke-dasharray="5,2" d="M599.248,-560.841C605.226,-557.401 611.003,-553.458 616,-549 665.156,-505.147 701.089,-435.2 718.408,-396.685"/>
<polygon fill="none" stroke="black" points="721.778,-397.716 722.602,-387.153 715.371,-394.897 721.778,-397.716"/>
</g>
<!-- a195d7d9&#45;df5f&#45;443a&#45;81fd&#45;f2c9832ccbb4&#45;&gt;45fbb5a0&#45;98a8&#45;4c8f&#45;aa13&#45;e3858b87cc42 -->
<g id="edge18" class="edge"><title>a195d7d9&#45;df5f&#45;443a&#45;81fd&#45;f2c9832ccbb4&#45;&gt;45fbb5a0&#45;98a8&#45;4c8f&#45;aa13&#45;e3858b87cc42</title>
<path fill="none" stroke="black" stroke-width="1.5" d="M584.657,-179.115C614.094,-196.51 658.695,-222.865 690.723,-241.791"/>
<polygon fill="black" stroke="black" stroke-width="1.5" points="689.01,-244.844 699.4,-246.918 692.571,-238.817 689.01,-244.844"/>
</g>
<!-- a195d7d9&#45;df5f&#45;443a&#45;81fd&#45;f2c9832ccbb4&#45;&gt;211ff35d&#45;bf14&#45;4556&#45;930f&#45;76bd2e9b264c -->
<g id="edge29" class="edge"><title>a195d7d9&#45;df5f&#45;443a&#45;81fd&#45;f2c9832ccbb4&#45;&gt;211ff35d&#45;bf14&#45;4556&#45;930f&#45;76bd2e9b264c</title>
<path fill="none" stroke="black" stroke-dasharray="5,2" d="M569.311,-179.095C600.581,-216.051 671.876,-300.308 708.061,-343.072"/>
<polygon fill="none" stroke="black" points="705.468,-345.426 714.599,-350.799 710.812,-340.904 705.468,-345.426"/>
</g>
<!-- 211ff35d&#45;bf14&#45;4556&#45;930f&#45;76bd2e9b264c&#45;&gt;4276fb17&#45;e95e&#45;4f32&#45;89d8&#45;9bb23fe10e09 -->
<g id="edge36" class="edge"><title>211ff35d&#45;bf14&#45;4556&#45;930f&#45;76bd2e9b264c&#45;&gt;4276fb17&#45;e95e&#45;4f32&#45;89d8&#45;9bb23fe10e09</title>
<path fill="none" stroke="black" stroke-width="1.5" d="M743.904,-350.737C763.223,-321.886 803.539,-264.851 846,-224 850.604,-219.57 855.762,-215.236 860.981,-211.184"/>
<polygon fill="black" stroke="black" stroke-width="1.5" points="863.244,-213.863 869.163,-205.076 859.056,-208.254 863.244,-213.863"/>
</g>
<!-- f040a71d&#45;d6ef&#45;4eaf&#45;b82b&#45;4bea7153e1bf&#45;&gt;98091ecf&#45;058a&#45;40c4&#45;bf95&#45;e4a2d45bf044 -->
<g id="edge12" class="edge"><title>f040a71d&#45;d6ef&#45;4eaf&#45;b82b&#45;4bea7153e1bf&#45;&gt;98091ecf&#45;058a&#45;40c4&#45;bf95&#45;e4a2d45bf044</title>
<path fill="none" stroke="black" stroke-width="1.5" d="M940.947,-406.549C964.502,-403.488 994.207,-399.628 1019.76,-396.308"/>
<polygon fill="black" stroke="black" stroke-width="1.5" points="1020.22,-399.777 1029.69,-395.018 1019.32,-392.836 1020.22,-399.777"/>
</g>
<!-- 0fde4bab&#45;7c10&#45;4663&#45;8c14&#45;a7e5a376dc11&#45;&gt;e290e0d8&#45;75fc&#45;4a3d&#45;8733&#45;3e9fe02753b8 -->
<g id="edge46" class="edge"><title>0fde4bab&#45;7c10&#45;4663&#45;8c14&#45;a7e5a376dc11&#45;&gt;e290e0d8&#45;75fc&#45;4a3d&#45;8733&#45;3e9fe02753b8</title>
<path fill="none" stroke="black" stroke-width="1.5" d="M1112.51,-282.124C1136.71,-294.833 1169.67,-312.141 1198,-327.018"/>
<polygon fill="black" stroke="black" stroke-width="1.5" points="1196.54,-330.203 1207.02,-331.753 1199.79,-324.005 1196.54,-330.203"/>
</g>
<!-- 4276fb17&#45;e95e&#45;4f32&#45;89d8&#45;9bb23fe10e09&#45;&gt;2dea9804&#45;2b39&#45;4787&#45;93fd&#45;8609a46bb615 -->
<g id="edge40" class="edge"><title>4276fb17&#45;e95e&#45;4f32&#45;89d8&#45;9bb23fe10e09&#45;&gt;2dea9804&#45;2b39&#45;4787&#45;93fd&#45;8609a46bb615</title>
<path fill="none" stroke="black" stroke-width="1.5" d="M945.968,-187C966.215,-187 990.212,-187 1012.05,-187"/>
<polygon fill="black" stroke="black" stroke-width="1.5" points="1012.23,-190.5 1022.23,-187 1012.23,-183.5 1012.23,-190.5"/>
</g>
</g>
</svg>
