<?xml version="1.0" encoding="UTF-8" standalone="no"?>
<!DOCTYPE svg PUBLIC "-//W3C//DTD SVG 1.1//EN"
 "http://www.w3.org/Graphics/SVG/1.1/DTD/svg11.dtd">
<!-- Generated by graphviz version 2.28.0 (20140111.2315)
 -->
<!-- Title: one_gulp_streams_graph Pages: 1 -->
<svg width="1192pt" height="867pt"
 viewBox="0.00 0.00 1192.00 867.00" xmlns="http://www.w3.org/2000/svg" xmlns:xlink="http://www.w3.org/1999/xlink">
<g id="graph0" class="graph" transform="scale(1 1) rotate(0) translate(36 831)">
<title>one_gulp_streams_graph</title>
<polygon fill="white" stroke="none" points="-36,36 -36,-831 1156,-831 1156,36 -36,36"/>
<text text-anchor="middle" x="560" y="-773" font-family="sans-serif" font-size="20.00">one&#45;gulp streams graph</text>
<!-- 7fd907a4&#45;46cf&#45;425c&#45;bf50&#45;ac05946fba56 -->
<g id="node1" class="node"><title>7fd907a4&#45;46cf&#45;425c&#45;bf50&#45;ac05946fba56</title>
<ellipse fill="none" stroke="mediumslateblue" stroke-width="2" cx="552" cy="-386" rx="28.1045" ry="21.56"/>
<text text-anchor="middle" x="552" y="-381.8" font-family="sans-serif" font-size="14.00" fill="mediumslateblue">html</text>
</g>
<!-- ba778213&#45;7c7f&#45;42ce&#45;940c&#45;f973bbd9294f -->
<g id="node28" class="node"><title>ba778213&#45;7c7f&#45;42ce&#45;940c&#45;f973bbd9294f</title>
<polygon fill="none" stroke="black" stroke-width="2" points="768.423,-402 685.577,-402 685.577,-366 768.423,-366 768.423,-402"/>
<text text-anchor="middle" x="727" y="-379.8" font-family="sans-serif" font-size="14.00">injectDev</text>
</g>
<!-- 7fd907a4&#45;46cf&#45;425c&#45;bf50&#45;ac05946fba56&#45;&gt;ba778213&#45;7c7f&#45;42ce&#45;940c&#45;f973bbd9294f -->
<g id="edge22" class="edge"><title>7fd907a4&#45;46cf&#45;425c&#45;bf50&#45;ac05946fba56&#45;&gt;ba778213&#45;7c7f&#45;42ce&#45;940c&#45;f973bbd9294f</title>
<path fill="none" stroke="mediumslateblue" stroke-width="1.5" d="M580.412,-385.683C605.835,-385.389 644.303,-384.944 675.313,-384.586"/>
<polygon fill="mediumslateblue" stroke="mediumslateblue" stroke-width="1.5" points="675.555,-388.084 685.513,-384.468 675.474,-381.084 675.555,-388.084"/>
</g>
<!-- bf8b0b9f&#45;0c73&#45;4ef5&#45;b363&#45;94fadf1a8796 -->
<g id="node29" class="node"><title>bf8b0b9f&#45;0c73&#45;4ef5&#45;b363&#45;94fadf1a8796</title>
<polygon fill="none" stroke="black" stroke-width="2" points="769.545,-342 684.455,-342 684.455,-306 769.545,-306 769.545,-342"/>
<text text-anchor="middle" x="727" y="-319.8" font-family="sans-serif" font-size="14.00">injectProd</text>
</g>
<!-- 7fd907a4&#45;46cf&#45;425c&#45;bf50&#45;ac05946fba56&#45;&gt;bf8b0b9f&#45;0c73&#45;4ef5&#45;b363&#45;94fadf1a8796 -->
<g id="edge29" class="edge"><title>7fd907a4&#45;46cf&#45;425c&#45;bf50&#45;ac05946fba56&#45;&gt;bf8b0b9f&#45;0c73&#45;4ef5&#45;b363&#45;94fadf1a8796</title>
<path fill="none" stroke="mediumslateblue" stroke-width="1.5" d="M577.787,-377.117C602.934,-368.105 642.601,-353.889 674.573,-342.431"/>
<polygon fill="mediumslateblue" stroke="mediumslateblue" stroke-width="1.5" points="675.99,-345.641 684.223,-338.972 673.629,-339.051 675.99,-345.641"/>
</g>
<!-- 27c2a96a&#45;42fc&#45;4c51&#45;842f&#45;f79bdd926bfe -->
<g id="node2" class="node"><title>27c2a96a&#45;42fc&#45;4c51&#45;842f&#45;f79bdd926bfe</title>
<ellipse fill="none" stroke="mediumslateblue" stroke-width="2" cx="190" cy="-207" rx="27" ry="21.56"/>
<text text-anchor="middle" x="190" y="-202.8" font-family="sans-serif" font-size="14.00" fill="mediumslateblue">css</text>
</g>
<!-- fb3a43cd&#45;08f6&#45;4d77&#45;928a&#45;9630f2334632 -->
<g id="node21" class="node"><title>fb3a43cd&#45;08f6&#45;4d77&#45;928a&#45;9630f2334632</title>
<polygon fill="none" stroke="black" stroke-width="2" points="407.533,-134 322.467,-134 322.467,-98 407.533,-98 407.533,-134"/>
<text text-anchor="middle" x="365" y="-111.8" font-family="sans-serif" font-size="14.00">autoprefix</text>
</g>
<!-- 27c2a96a&#45;42fc&#45;4c51&#45;842f&#45;f79bdd926bfe&#45;&gt;fb3a43cd&#45;08f6&#45;4d77&#45;928a&#45;9630f2334632 -->
<g id="edge8" class="edge"><title>27c2a96a&#45;42fc&#45;4c51&#45;842f&#45;f79bdd926bfe&#45;&gt;fb3a43cd&#45;08f6&#45;4d77&#45;928a&#45;9630f2334632</title>
<path fill="none" stroke="mediumslateblue" stroke-width="1.5" d="M212.911,-195.475C239.953,-181.25 286.562,-156.733 320.88,-138.682"/>
<polygon fill="mediumslateblue" stroke="mediumslateblue" stroke-width="1.5" points="322.542,-141.762 329.763,-134.009 319.283,-135.567 322.542,-141.762"/>
</g>
<!-- 922826ed&#45;f6be&#45;40b2&#45;ac9d&#45;c7807f6aec8b -->
<g id="node3" class="node"><title>922826ed&#45;f6be&#45;40b2&#45;ac9d&#45;c7807f6aec8b</title>
<ellipse fill="none" stroke="mediumslateblue" stroke-width="2" cx="190" cy="-691" rx="27" ry="21.56"/>
<text text-anchor="middle" x="190" y="-686.8" font-family="sans-serif" font-size="14.00" fill="mediumslateblue">js</text>
</g>
<!-- f0099f8b&#45;13b7&#45;48b2&#45;9309&#45;3ab655f8e7f8 -->
<g id="node27" class="node"><title>f0099f8b&#45;13b7&#45;48b2&#45;9309&#45;3ab655f8e7f8</title>
<polygon fill="none" stroke="black" stroke-width="2" points="420.434,-604 309.566,-604 309.566,-568 420.434,-568 420.434,-604"/>
<text text-anchor="middle" x="365" y="-581.8" font-family="sans-serif" font-size="14.00">sortJsByDepth</text>
</g>
<!-- 922826ed&#45;f6be&#45;40b2&#45;ac9d&#45;c7807f6aec8b&#45;&gt;f0099f8b&#45;13b7&#45;48b2&#45;9309&#45;3ab655f8e7f8 -->
<g id="edge19" class="edge"><title>922826ed&#45;f6be&#45;40b2&#45;ac9d&#45;c7807f6aec8b&#45;&gt;f0099f8b&#45;13b7&#45;48b2&#45;9309&#45;3ab655f8e7f8</title>
<path fill="none" stroke="mediumslateblue" stroke-width="1.5" d="M211.868,-678.335C239.953,-661.289 290.432,-630.651 325.504,-609.365"/>
<polygon fill="mediumslateblue" stroke="mediumslateblue" stroke-width="1.5" points="327.333,-612.349 334.066,-604.168 323.701,-606.365 327.333,-612.349"/>
</g>
<!-- 891634d1&#45;ef77&#45;4c62&#45;9da9&#45;10813ce4844a -->
<g id="node32" class="node"><title>891634d1&#45;ef77&#45;4c62&#45;9da9&#45;10813ce4844a</title>
<polygon fill="limegreen" stroke="limegreen" points="1119.58,-709.3 1010.42,-709.3 1010.42,-656.7 1119.58,-656.7 1119.58,-709.3"/>
<text text-anchor="middle" x="1065" y="-678.8" font-family="sans-serif" font-size="14.00" fill="white">browserSync</text>
</g>
<!-- 922826ed&#45;f6be&#45;40b2&#45;ac9d&#45;c7807f6aec8b&#45;&gt;891634d1&#45;ef77&#45;4c62&#45;9da9&#45;10813ce4844a -->
<g id="edge41" class="edge"><title>922826ed&#45;f6be&#45;40b2&#45;ac9d&#45;c7807f6aec8b&#45;&gt;891634d1&#45;ef77&#45;4c62&#45;9da9&#45;10813ce4844a</title>
<path fill="none" stroke="mediumslateblue" stroke-width="1.5" d="M216.161,-696.695C274.613,-709.409 424.263,-739 551,-739 551,-739 551,-739 728,-739 823.907,-739 933.143,-716.526 1000.33,-700.053"/>
<polygon fill="mediumslateblue" stroke="mediumslateblue" stroke-width="1.5" points="1001.48,-703.375 1010.34,-697.567 999.79,-696.581 1001.48,-703.375"/>
</g>
<!-- 4908c06d&#45;134b&#45;4965&#45;ab09&#45;9b284c6a9e94 -->
<g id="node4" class="node"><title>4908c06d&#45;134b&#45;4965&#45;ab09&#45;9b284c6a9e94</title>
<ellipse fill="none" stroke="mediumslateblue" stroke-width="2" cx="727" cy="-683" rx="37.8797" ry="21.56"/>
<text text-anchor="middle" x="727" y="-678.8" font-family="sans-serif" font-size="14.00" fill="mediumslateblue">images</text>
</g>
<!-- 8c4a0e84&#45;e1ed&#45;4b12&#45;8036&#45;7f24208e61f8 -->
<g id="node30" class="node"><title>8c4a0e84&#45;e1ed&#45;4b12&#45;8036&#45;7f24208e61f8</title>
<polygon fill="none" stroke="black" stroke-width="2" points="931.992,-638 848.008,-638 848.008,-602 931.992,-602 931.992,-638"/>
<text text-anchor="middle" x="890" y="-615.8" font-family="sans-serif" font-size="14.00">imagemin</text>
</g>
<!-- 4908c06d&#45;134b&#45;4965&#45;ab09&#45;9b284c6a9e94&#45;&gt;8c4a0e84&#45;e1ed&#45;4b12&#45;8036&#45;7f24208e61f8 -->
<g id="edge35" class="edge"><title>4908c06d&#45;134b&#45;4965&#45;ab09&#45;9b284c6a9e94&#45;&gt;8c4a0e84&#45;e1ed&#45;4b12&#45;8036&#45;7f24208e61f8</title>
<path fill="none" stroke="mediumslateblue" stroke-width="1.5" d="M758.662,-671.002C781.17,-662.194 812.248,-650.033 838.412,-639.795"/>
<polygon fill="mediumslateblue" stroke="mediumslateblue" stroke-width="1.5" points="839.767,-643.024 847.804,-636.12 837.216,-636.505 839.767,-643.024"/>
</g>
<!-- 4908c06d&#45;134b&#45;4965&#45;ab09&#45;9b284c6a9e94&#45;&gt;891634d1&#45;ef77&#45;4c62&#45;9da9&#45;10813ce4844a -->
<g id="edge42" class="edge"><title>4908c06d&#45;134b&#45;4965&#45;ab09&#45;9b284c6a9e94&#45;&gt;891634d1&#45;ef77&#45;4c62&#45;9da9&#45;10813ce4844a</title>
<path fill="none" stroke="mediumslateblue" stroke-width="1.5" d="M765.242,-683C821.88,-683 930.408,-683 999.896,-683"/>
<polygon fill="mediumslateblue" stroke="mediumslateblue" stroke-width="1.5" points="1000.28,-686.5 1010.28,-683 1000.28,-679.5 1000.28,-686.5"/>
</g>
<!-- e52c5ac5&#45;21aa&#45;47de&#45;b0f1&#45;be954e3e2961 -->
<g id="node5" class="node"><title>e52c5ac5&#45;21aa&#45;47de&#45;b0f1&#45;be954e3e2961</title>
<ellipse fill="none" stroke="mediumslateblue" stroke-width="2" cx="365" cy="-328" rx="27" ry="21.56"/>
<text text-anchor="middle" x="365" y="-323.8" font-family="sans-serif" font-size="14.00" fill="mediumslateblue">jade</text>
</g>
<!-- e4dc4c98&#45;d0d8&#45;4106&#45;857e&#45;7019534358c0 -->
<g id="node14" class="node"><title>e4dc4c98&#45;d0d8&#45;4106&#45;857e&#45;7019534358c0</title>
<polygon fill="none" stroke="black" stroke-width="2" points="579,-342 525,-342 525,-306 579,-306 579,-342"/>
<text text-anchor="middle" x="552" y="-319.8" font-family="sans-serif" font-size="14.00">jade</text>
</g>
<!-- e52c5ac5&#45;21aa&#45;47de&#45;b0f1&#45;be954e3e2961&#45;&gt;e4dc4c98&#45;d0d8&#45;4106&#45;857e&#45;7019534358c0 -->
<g id="edge1" class="edge"><title>e52c5ac5&#45;21aa&#45;47de&#45;b0f1&#45;be954e3e2961&#45;&gt;e4dc4c98&#45;d0d8&#45;4106&#45;857e&#45;7019534358c0</title>
<path fill="none" stroke="mediumslateblue" stroke-width="1.5" d="M392.114,-327.435C424.114,-326.743 478.518,-325.567 514.607,-324.787"/>
<polygon fill="mediumslateblue" stroke="mediumslateblue" stroke-width="1.5" points="514.798,-328.284 524.72,-324.568 514.647,-321.285 514.798,-328.284"/>
</g>
<!-- 16cb899e&#45;7ac8&#45;434c&#45;9528&#45;3bd1500b18da -->
<g id="node6" class="node"><title>16cb899e&#45;7ac8&#45;434c&#45;9528&#45;3bd1500b18da</title>
<ellipse fill="none" stroke="mediumslateblue" stroke-width="2" cx="365" cy="-262" rx="27" ry="21.56"/>
<text text-anchor="middle" x="365" y="-257.8" font-family="sans-serif" font-size="14.00" fill="mediumslateblue">md</text>
</g>
<!-- 353ce4cb&#45;3709&#45;400c&#45;9437&#45;8de5957857d7 -->
<g id="node15" class="node"><title>353ce4cb&#45;3709&#45;400c&#45;9437&#45;8de5957857d7</title>
<polygon fill="none" stroke="black" stroke-width="2" points="595.872,-284 508.128,-284 508.128,-248 595.872,-248 595.872,-284"/>
<text text-anchor="middle" x="552" y="-261.8" font-family="sans-serif" font-size="14.00">markdown</text>
</g>
<!-- 16cb899e&#45;7ac8&#45;434c&#45;9528&#45;3bd1500b18da&#45;&gt;353ce4cb&#45;3709&#45;400c&#45;9437&#45;8de5957857d7 -->
<g id="edge2" class="edge"><title>16cb899e&#45;7ac8&#45;434c&#45;9528&#45;3bd1500b18da&#45;&gt;353ce4cb&#45;3709&#45;400c&#45;9437&#45;8de5957857d7</title>
<path fill="none" stroke="mediumslateblue" stroke-width="1.5" d="M392.114,-262.565C419.373,-263.154 462.89,-264.095 497.494,-264.843"/>
<polygon fill="mediumslateblue" stroke="mediumslateblue" stroke-width="1.5" points="497.846,-268.351 507.919,-265.069 497.997,-261.353 497.846,-268.351"/>
</g>
<!-- 5387d835&#45;10f3&#45;4b36&#45;b515&#45;bfaf04b95d6a -->
<g id="node7" class="node"><title>5387d835&#45;10f3&#45;4b36&#45;b515&#45;bfaf04b95d6a</title>
<ellipse fill="none" stroke="mediumslateblue" stroke-width="2" cx="35" cy="-153" rx="27" ry="21.56"/>
<text text-anchor="middle" x="35" y="-148.8" font-family="sans-serif" font-size="14.00" fill="mediumslateblue">scss</text>
</g>
<!-- b7e7c0ba&#45;bec1&#45;487a&#45;9664&#45;9261f004c1f0 -->
<g id="node16" class="node"><title>b7e7c0ba&#45;bec1&#45;487a&#45;9664&#45;9261f004c1f0</title>
<polygon fill="none" stroke="black" stroke-width="2" points="217,-163 163,-163 163,-127 217,-127 217,-163"/>
<text text-anchor="middle" x="190" y="-140.8" font-family="sans-serif" font-size="14.00">sass</text>
</g>
<!-- 5387d835&#45;10f3&#45;4b36&#45;b515&#45;bfaf04b95d6a&#45;&gt;b7e7c0ba&#45;bec1&#45;487a&#45;9664&#45;9261f004c1f0 -->
<g id="edge3" class="edge"><title>5387d835&#45;10f3&#45;4b36&#45;b515&#45;bfaf04b95d6a&#45;&gt;b7e7c0ba&#45;bec1&#45;487a&#45;9664&#45;9261f004c1f0</title>
<path fill="none" stroke="mediumslateblue" stroke-width="1.5" d="M61.9544,-151.643C86.902,-150.338 124.831,-148.355 152.754,-146.895"/>
<polygon fill="mediumslateblue" stroke="mediumslateblue" stroke-width="1.5" points="153.115,-150.381 162.918,-146.364 152.749,-143.391 153.115,-150.381"/>
</g>
<!-- 520638c3&#45;9191&#45;4226&#45;a8d3&#45;c18caeaded16 -->
<g id="node8" class="node"><title>520638c3&#45;9191&#45;4226&#45;a8d3&#45;c18caeaded16</title>
<ellipse fill="none" stroke="mediumslateblue" stroke-width="2" cx="35" cy="-87" rx="27" ry="21.56"/>
<text text-anchor="middle" x="35" y="-82.8" font-family="sans-serif" font-size="14.00" fill="mediumslateblue">less</text>
</g>
<!-- b3870e6e&#45;63d4&#45;4033&#45;8ac9&#45;f476dd49a0e8 -->
<g id="node17" class="node"><title>b3870e6e&#45;63d4&#45;4033&#45;8ac9&#45;f476dd49a0e8</title>
<polygon fill="none" stroke="black" stroke-width="2" points="217,-105 163,-105 163,-69 217,-69 217,-105"/>
<text text-anchor="middle" x="190" y="-82.8" font-family="sans-serif" font-size="14.00">less</text>
</g>
<!-- 520638c3&#45;9191&#45;4226&#45;a8d3&#45;c18caeaded16&#45;&gt;b3870e6e&#45;63d4&#45;4033&#45;8ac9&#45;f476dd49a0e8 -->
<g id="edge4" class="edge"><title>520638c3&#45;9191&#45;4226&#45;a8d3&#45;c18caeaded16&#45;&gt;b3870e6e&#45;63d4&#45;4033&#45;8ac9&#45;f476dd49a0e8</title>
<path fill="none" stroke="mediumslateblue" stroke-width="1.5" d="M62.3016,-87C87.2269,-87 124.881,-87 152.667,-87"/>
<polygon fill="mediumslateblue" stroke="mediumslateblue" stroke-width="1.5" points="152.786,-90.5001 162.786,-87 152.786,-83.5001 152.786,-90.5001"/>
</g>
<!-- fe3d4bbb&#45;e4d3&#45;41d5&#45;ac45&#45;a89cea011412 -->
<g id="node9" class="node"><title>fe3d4bbb&#45;e4d3&#45;41d5&#45;ac45&#45;a89cea011412</title>
<ellipse fill="none" stroke="mediumslateblue" stroke-width="2" cx="35" cy="-21" rx="27" ry="21.56"/>
<text text-anchor="middle" x="35" y="-16.8" font-family="sans-serif" font-size="14.00" fill="mediumslateblue">styl</text>
</g>
<!-- 4d3d04fd&#45;19e4&#45;4234&#45;9147&#45;7a24879353e2 -->
<g id="node18" class="node"><title>4d3d04fd&#45;19e4&#45;4234&#45;9147&#45;7a24879353e2</title>
<polygon fill="none" stroke="black" stroke-width="2" points="220.171,-43 159.829,-43 159.829,-7 220.171,-7 220.171,-43"/>
<text text-anchor="middle" x="190" y="-20.8" font-family="sans-serif" font-size="14.00">stylus</text>
</g>
<!-- fe3d4bbb&#45;e4d3&#45;41d5&#45;ac45&#45;a89cea011412&#45;&gt;4d3d04fd&#45;19e4&#45;4234&#45;9147&#45;7a24879353e2 -->
<g id="edge5" class="edge"><title>fe3d4bbb&#45;e4d3&#45;41d5&#45;ac45&#45;a89cea011412&#45;&gt;4d3d04fd&#45;19e4&#45;4234&#45;9147&#45;7a24879353e2</title>
<path fill="none" stroke="mediumslateblue" stroke-width="1.5" d="M62.3016,-21.6876C86.3178,-22.3155 122.152,-23.2523 149.589,-23.9696"/>
<polygon fill="mediumslateblue" stroke="mediumslateblue" stroke-width="1.5" points="149.563,-27.4701 159.651,-24.2327 149.746,-20.4724 149.563,-27.4701"/>
</g>
<!-- 4bdc8443&#45;7002&#45;4010&#45;bc21&#45;6aa5ab4377f0 -->
<g id="node10" class="node"><title>4bdc8443&#45;7002&#45;4010&#45;bc21&#45;6aa5ab4377f0</title>
<ellipse fill="none" stroke="mediumslateblue" stroke-width="2" cx="35" cy="-600" rx="27" ry="21.56"/>
<text text-anchor="middle" x="35" y="-595.8" font-family="sans-serif" font-size="14.00" fill="mediumslateblue">ts</text>
</g>
<!-- d1a4df89&#45;ed61&#45;475a&#45;8931&#45;9a00b445baba -->
<g id="node19" class="node"><title>d1a4df89&#45;ed61&#45;475a&#45;8931&#45;9a00b445baba</title>
<polygon fill="none" stroke="black" stroke-width="2" points="231.706,-618 148.294,-618 148.294,-582 231.706,-582 231.706,-618"/>
<text text-anchor="middle" x="190" y="-595.8" font-family="sans-serif" font-size="14.00">typescript</text>
</g>
<!-- 4bdc8443&#45;7002&#45;4010&#45;bc21&#45;6aa5ab4377f0&#45;&gt;d1a4df89&#45;ed61&#45;475a&#45;8931&#45;9a00b445baba -->
<g id="edge6" class="edge"><title>4bdc8443&#45;7002&#45;4010&#45;bc21&#45;6aa5ab4377f0&#45;&gt;d1a4df89&#45;ed61&#45;475a&#45;8931&#45;9a00b445baba</title>
<path fill="none" stroke="mediumslateblue" stroke-width="1.5" d="M62.3016,-600C83.1025,-600 112.768,-600 138.166,-600"/>
<polygon fill="mediumslateblue" stroke="mediumslateblue" stroke-width="1.5" points="138.386,-603.5 148.386,-600 138.386,-596.5 138.386,-603.5"/>
</g>
<!-- 8c1f193a&#45;5335&#45;47b7&#45;9e90&#45;b613cfd5337b -->
<g id="node11" class="node"><title>8c1f193a&#45;5335&#45;47b7&#45;9e90&#45;b613cfd5337b</title>
<ellipse fill="none" stroke="mediumslateblue" stroke-width="2" cx="35" cy="-511" rx="34.7474" ry="21.56"/>
<text text-anchor="middle" x="35" y="-506.8" font-family="sans-serif" font-size="14.00" fill="mediumslateblue">coffee</text>
</g>
<!-- 199b1e60&#45;1b18&#45;44a4&#45;8db5&#45;d40172cd83c7 -->
<g id="node20" class="node"><title>199b1e60&#45;1b18&#45;44a4&#45;8db5&#45;d40172cd83c7</title>
<polygon fill="none" stroke="black" stroke-width="2" points="238.405,-529 141.595,-529 141.595,-493 238.405,-493 238.405,-529"/>
<text text-anchor="middle" x="190" y="-506.8" font-family="sans-serif" font-size="14.00">coffeeScript</text>
</g>
<!-- 8c1f193a&#45;5335&#45;47b7&#45;9e90&#45;b613cfd5337b&#45;&gt;199b1e60&#45;1b18&#45;44a4&#45;8db5&#45;d40172cd83c7 -->
<g id="edge7" class="edge"><title>8c1f193a&#45;5335&#45;47b7&#45;9e90&#45;b613cfd5337b&#45;&gt;199b1e60&#45;1b18&#45;44a4&#45;8db5&#45;d40172cd83c7</title>
<path fill="none" stroke="mediumslateblue" stroke-width="1.5" d="M69.9557,-511C88.1133,-511 110.96,-511 131.771,-511"/>
<polygon fill="mediumslateblue" stroke="mediumslateblue" stroke-width="1.5" points="131.794,-514.5 141.794,-511 131.794,-507.5 131.794,-514.5"/>
</g>
<!-- cbb06458&#45;3f59&#45;4a9a&#45;9901&#45;50abeb3facd4 -->
<g id="node12" class="node"><title>cbb06458&#45;3f59&#45;4a9a&#45;9901&#45;50abeb3facd4</title>
<ellipse fill="none" stroke="mediumslateblue" stroke-width="2" cx="552" cy="-204" rx="48.8744" ry="21.56"/>
<text text-anchor="middle" x="552" y="-199.8" font-family="sans-serif" font-size="14.00" fill="mediumslateblue">bowerCss</text>
</g>
<!-- 912eb3f8&#45;6fbc&#45;4b0e&#45;87a1&#45;5b0ef624a112 -->
<g id="node23" class="node"><title>912eb3f8&#45;6fbc&#45;4b0e&#45;87a1&#45;5b0ef624a112</title>
<polygon fill="none" stroke="black" stroke-width="2" points="769.559,-222 684.441,-222 684.441,-186 769.559,-186 769.559,-222"/>
<text text-anchor="middle" x="727" y="-199.8" font-family="sans-serif" font-size="14.00">minifyCss</text>
</g>
<!-- cbb06458&#45;3f59&#45;4a9a&#45;9901&#45;50abeb3facd4&#45;&gt;912eb3f8&#45;6fbc&#45;4b0e&#45;87a1&#45;5b0ef624a112 -->
<g id="edge13" class="edge"><title>cbb06458&#45;3f59&#45;4a9a&#45;9901&#45;50abeb3facd4&#45;&gt;912eb3f8&#45;6fbc&#45;4b0e&#45;87a1&#45;5b0ef624a112</title>
<path fill="none" stroke="mediumslateblue" stroke-width="1.5" d="M601.19,-204C623.819,-204 650.831,-204 673.93,-204"/>
<polygon fill="mediumslateblue" stroke="mediumslateblue" stroke-width="1.5" points="674.237,-207.5 684.237,-204 674.237,-200.5 674.237,-207.5"/>
</g>
<!-- cbb06458&#45;3f59&#45;4a9a&#45;9901&#45;50abeb3facd4&#45;&gt;ba778213&#45;7c7f&#45;42ce&#45;940c&#45;f973bbd9294f -->
<g id="edge25" class="edge"><title>cbb06458&#45;3f59&#45;4a9a&#45;9901&#45;50abeb3facd4&#45;&gt;ba778213&#45;7c7f&#45;42ce&#45;940c&#45;f973bbd9294f</title>
<path fill="none" stroke="mediumslateblue" stroke-dasharray="5,2" d="M586.844,-219.105C595.649,-224.015 604.702,-230.027 612,-237 655.872,-278.919 642.851,-308.405 684,-353 685.959,-355.123 688.081,-357.198 690.296,-359.204"/>
<polygon fill="none" stroke="mediumslateblue" points="688.165,-361.985 698.077,-365.728 692.663,-356.621 688.165,-361.985"/>
</g>
<!-- cbb06458&#45;3f59&#45;4a9a&#45;9901&#45;50abeb3facd4&#45;&gt;bf8b0b9f&#45;0c73&#45;4ef5&#45;b363&#45;94fadf1a8796 -->
<g id="edge33" class="edge"><title>cbb06458&#45;3f59&#45;4a9a&#45;9901&#45;50abeb3facd4&#45;&gt;bf8b0b9f&#45;0c73&#45;4ef5&#45;b363&#45;94fadf1a8796</title>
<path fill="none" stroke="mediumslateblue" stroke-dasharray="5,2" d="M584.112,-220.32C593.256,-225.404 603.17,-231.203 612,-237 641.658,-256.47 673.621,-281.221 696.133,-299.341"/>
<polygon fill="none" stroke="mediumslateblue" points="694.004,-302.121 703.978,-305.695 698.41,-296.681 694.004,-302.121"/>
</g>
<!-- 360518a9&#45;d363&#45;4a05&#45;871a&#45;b79ad225ffab -->
<g id="node13" class="node"><title>360518a9&#45;d363&#45;4a05&#45;871a&#45;b79ad225ffab</title>
<ellipse fill="none" stroke="mediumslateblue" stroke-width="2" cx="365" cy="-432" rx="42.171" ry="21.56"/>
<text text-anchor="middle" x="365" y="-427.8" font-family="sans-serif" font-size="14.00" fill="mediumslateblue">bowerJs</text>
</g>
<!-- b5775f0f&#45;2ae9&#45;4c98&#45;804c&#45;5b62767e9c7a -->
<g id="node25" class="node"><title>b5775f0f&#45;2ae9&#45;4c98&#45;804c&#45;5b62767e9c7a</title>
<polygon fill="none" stroke="black" stroke-width="2" points="589.925,-558 514.075,-558 514.075,-522 589.925,-522 589.925,-558"/>
<text text-anchor="middle" x="552" y="-535.8" font-family="sans-serif" font-size="14.00">concatJs</text>
</g>
<!-- 360518a9&#45;d363&#45;4a05&#45;871a&#45;b79ad225ffab&#45;&gt;b5775f0f&#45;2ae9&#45;4c98&#45;804c&#45;5b62767e9c7a -->
<g id="edge16" class="edge"><title>360518a9&#45;d363&#45;4a05&#45;871a&#45;b79ad225ffab&#45;&gt;b5775f0f&#45;2ae9&#45;4c98&#45;804c&#45;5b62767e9c7a</title>
<path fill="none" stroke="mediumslateblue" stroke-width="1.5" d="M393.297,-447.936C424.43,-466.111 475.613,-495.99 511.191,-516.76"/>
<polygon fill="mediumslateblue" stroke="mediumslateblue" stroke-width="1.5" points="509.478,-519.813 519.879,-521.832 513.007,-513.768 509.478,-519.813"/>
</g>
<!-- 360518a9&#45;d363&#45;4a05&#45;871a&#45;b79ad225ffab&#45;&gt;ba778213&#45;7c7f&#45;42ce&#45;940c&#45;f973bbd9294f -->
<g id="edge26" class="edge"><title>360518a9&#45;d363&#45;4a05&#45;871a&#45;b79ad225ffab&#45;&gt;ba778213&#45;7c7f&#45;42ce&#45;940c&#45;f973bbd9294f</title>
<path fill="none" stroke="mediumslateblue" stroke-dasharray="5,2" d="M407.687,-432.569C456.89,-432.564 541,-430.432 612,-418 633.319,-414.267 656.287,-407.893 675.982,-401.665"/>
<polygon fill="none" stroke="mediumslateblue" points="677.222,-404.943 685.66,-398.535 675.068,-398.282 677.222,-404.943"/>
</g>
<!-- e4dc4c98&#45;d0d8&#45;4106&#45;857e&#45;7019534358c0&#45;&gt;ba778213&#45;7c7f&#45;42ce&#45;940c&#45;f973bbd9294f -->
<g id="edge23" class="edge"><title>e4dc4c98&#45;d0d8&#45;4106&#45;857e&#45;7019534358c0&#45;&gt;ba778213&#45;7c7f&#45;42ce&#45;940c&#45;f973bbd9294f</title>
<path fill="none" stroke="black" stroke-width="1.5" d="M579.275,-333.113C604.888,-341.996 644.487,-355.729 676.094,-366.691"/>
<polygon fill="black" stroke="black" stroke-width="1.5" points="675.027,-370.026 685.622,-369.996 677.321,-363.412 675.027,-370.026"/>
</g>
<!-- e4dc4c98&#45;d0d8&#45;4106&#45;857e&#45;7019534358c0&#45;&gt;bf8b0b9f&#45;0c73&#45;4ef5&#45;b363&#45;94fadf1a8796 -->
<g id="edge30" class="edge"><title>e4dc4c98&#45;d0d8&#45;4106&#45;857e&#45;7019534358c0&#45;&gt;bf8b0b9f&#45;0c73&#45;4ef5&#45;b363&#45;94fadf1a8796</title>
<path fill="none" stroke="black" stroke-width="1.5" d="M579.275,-324C604.327,-324 642.76,-324 674.007,-324"/>
<polygon fill="black" stroke="black" stroke-width="1.5" points="674.299,-327.5 684.299,-324 674.299,-320.5 674.299,-327.5"/>
</g>
<!-- 353ce4cb&#45;3709&#45;400c&#45;9437&#45;8de5957857d7&#45;&gt;ba778213&#45;7c7f&#45;42ce&#45;940c&#45;f973bbd9294f -->
<g id="edge24" class="edge"><title>353ce4cb&#45;3709&#45;400c&#45;9437&#45;8de5957857d7&#45;&gt;ba778213&#45;7c7f&#45;42ce&#45;940c&#45;f973bbd9294f</title>
<path fill="none" stroke="black" stroke-width="1.5" d="M592.7,-284.005C599.284,-287.416 605.937,-291.135 612,-295 646.651,-317.087 651.462,-327.904 684,-353 686.897,-355.235 689.926,-357.536 692.971,-359.826"/>
<polygon fill="black" stroke="black" stroke-width="1.5" points="690.888,-362.639 700.996,-365.813 695.074,-357.028 690.888,-362.639"/>
</g>
<!-- 353ce4cb&#45;3709&#45;400c&#45;9437&#45;8de5957857d7&#45;&gt;bf8b0b9f&#45;0c73&#45;4ef5&#45;b363&#45;94fadf1a8796 -->
<g id="edge31" class="edge"><title>353ce4cb&#45;3709&#45;400c&#45;9437&#45;8de5957857d7&#45;&gt;bf8b0b9f&#45;0c73&#45;4ef5&#45;b363&#45;94fadf1a8796</title>
<path fill="none" stroke="black" stroke-width="1.5" d="M596.209,-280.486C619.976,-288.454 649.617,-298.392 674.571,-306.758"/>
<polygon fill="black" stroke="black" stroke-width="1.5" points="673.642,-310.138 684.236,-309.998 675.867,-303.501 673.642,-310.138"/>
</g>
<!-- b7e7c0ba&#45;bec1&#45;487a&#45;9664&#45;9261f004c1f0&#45;&gt;fb3a43cd&#45;08f6&#45;4d77&#45;928a&#45;9630f2334632 -->
<g id="edge9" class="edge"><title>b7e7c0ba&#45;bec1&#45;487a&#45;9664&#45;9261f004c1f0&#45;&gt;fb3a43cd&#45;08f6&#45;4d77&#45;928a&#45;9630f2334632</title>
<path fill="none" stroke="black" stroke-width="1.5" d="M217.275,-140.596C242.436,-136.378 281.095,-129.897 312.414,-124.647"/>
<polygon fill="black" stroke="black" stroke-width="1.5" points="313.015,-128.095 322.299,-122.99 311.858,-121.192 313.015,-128.095"/>
</g>
<!-- b3870e6e&#45;63d4&#45;4033&#45;8ac9&#45;f476dd49a0e8&#45;&gt;fb3a43cd&#45;08f6&#45;4d77&#45;928a&#45;9630f2334632 -->
<g id="edge10" class="edge"><title>b3870e6e&#45;63d4&#45;4033&#45;8ac9&#45;f476dd49a0e8&#45;&gt;fb3a43cd&#45;08f6&#45;4d77&#45;928a&#45;9630f2334632</title>
<path fill="none" stroke="black" stroke-width="1.5" d="M217.275,-91.4045C242.436,-95.6223 281.095,-102.103 312.414,-107.353"/>
<polygon fill="black" stroke="black" stroke-width="1.5" points="311.858,-110.808 322.299,-109.01 313.015,-103.905 311.858,-110.808"/>
</g>
<!-- 4d3d04fd&#45;19e4&#45;4234&#45;9147&#45;7a24879353e2&#45;&gt;fb3a43cd&#45;08f6&#45;4d77&#45;928a&#45;9630f2334632 -->
<g id="edge11" class="edge"><title>4d3d04fd&#45;19e4&#45;4234&#45;9147&#45;7a24879353e2&#45;&gt;fb3a43cd&#45;08f6&#45;4d77&#45;928a&#45;9630f2334632</title>
<path fill="none" stroke="black" stroke-width="1.5" d="M220.347,-40.4369C247.898,-54.9288 289.449,-76.7854 320.788,-93.2699"/>
<polygon fill="black" stroke="black" stroke-width="1.5" points="319.267,-96.4245 329.746,-97.9823 322.526,-90.2292 319.267,-96.4245"/>
</g>
<!-- d1a4df89&#45;ed61&#45;475a&#45;8931&#45;9a00b445baba&#45;&gt;f0099f8b&#45;13b7&#45;48b2&#45;9309&#45;3ab655f8e7f8 -->
<g id="edge20" class="edge"><title>d1a4df89&#45;ed61&#45;475a&#45;8931&#45;9a00b445baba&#45;&gt;f0099f8b&#45;13b7&#45;48b2&#45;9309&#45;3ab655f8e7f8</title>
<path fill="none" stroke="black" stroke-width="1.5" d="M231.999,-596.682C252.101,-595.055 276.787,-593.058 299.35,-591.232"/>
<polygon fill="black" stroke="black" stroke-width="1.5" points="299.859,-594.702 309.544,-590.407 299.294,-587.725 299.859,-594.702"/>
</g>
<!-- 35e6e8f5&#45;07ed&#45;4e1f&#45;b20c&#45;fd17f4c295e3 -->
<g id="node31" class="node"><title>35e6e8f5&#45;07ed&#45;4e1f&#45;b20c&#45;fd17f4c295e3</title>
<polygon fill="none" stroke="black" stroke-width="2" points="937.637,-500 842.363,-500 842.363,-464 937.637,-464 937.637,-500"/>
<text text-anchor="middle" x="890" y="-477.8" font-family="sans-serif" font-size="14.00">writeToDev</text>
</g>
<!-- d1a4df89&#45;ed61&#45;475a&#45;8931&#45;9a00b445baba&#45;&gt;35e6e8f5&#45;07ed&#45;4e1f&#45;b20c&#45;fd17f4c295e3 -->
<g id="edge39" class="edge"><title>d1a4df89&#45;ed61&#45;475a&#45;8931&#45;9a00b445baba&#45;&gt;35e6e8f5&#45;07ed&#45;4e1f&#45;b20c&#45;fd17f4c295e3</title>
<path fill="none" stroke="black" stroke-width="1.5" d="M231.805,-606.607C307.879,-617.523 475.983,-635.027 612,-602 699.921,-580.651 795.229,-533.525 847.979,-505.096"/>
<polygon fill="black" stroke="black" stroke-width="1.5" points="849.895,-508.039 857.009,-500.188 846.552,-501.889 849.895,-508.039"/>
</g>
<!-- 199b1e60&#45;1b18&#45;44a4&#45;8db5&#45;d40172cd83c7&#45;&gt;f0099f8b&#45;13b7&#45;48b2&#45;9309&#45;3ab655f8e7f8 -->
<g id="edge21" class="edge"><title>199b1e60&#45;1b18&#45;44a4&#45;8db5&#45;d40172cd83c7&#45;&gt;f0099f8b&#45;13b7&#45;48b2&#45;9309&#45;3ab655f8e7f8</title>
<path fill="none" stroke="black" stroke-width="1.5" d="M232.878,-529.155C256.908,-539.573 287.265,-552.733 312.717,-563.767"/>
<polygon fill="black" stroke="black" stroke-width="1.5" points="311.641,-567.116 322.208,-567.882 314.425,-560.693 311.641,-567.116"/>
</g>
<!-- 199b1e60&#45;1b18&#45;44a4&#45;8db5&#45;d40172cd83c7&#45;&gt;35e6e8f5&#45;07ed&#45;4e1f&#45;b20c&#45;fd17f4c295e3 -->
<g id="edge38" class="edge"><title>199b1e60&#45;1b18&#45;44a4&#45;8db5&#45;d40172cd83c7&#45;&gt;35e6e8f5&#45;07ed&#45;4e1f&#45;b20c&#45;fd17f4c295e3</title>
<path fill="none" stroke="black" stroke-width="1.5" d="M238.428,-509.03C362.682,-503.867 697.353,-489.962 831.868,-484.374"/>
<polygon fill="black" stroke="black" stroke-width="1.5" points="832.121,-487.866 841.967,-483.954 831.83,-480.872 832.121,-487.866"/>
</g>
<!-- e75ee404&#45;e8a6&#45;42ba&#45;bf93&#45;ecdc42d50864 -->
<g id="node26" class="node"><title>e75ee404&#45;e8a6&#45;42ba&#45;bf93&#45;ecdc42d50864</title>
<polygon fill="none" stroke="black" stroke-width="2" points="611.77,-160 492.23,-160 492.23,-124 611.77,-124 611.77,-160"/>
<text text-anchor="middle" x="552" y="-137.8" font-family="sans-serif" font-size="14.00">sortCssByDepth</text>
</g>
<!-- fb3a43cd&#45;08f6&#45;4d77&#45;928a&#45;9630f2334632&#45;&gt;e75ee404&#45;e8a6&#45;42ba&#45;bf93&#45;ecdc42d50864 -->
<g id="edge18" class="edge"><title>fb3a43cd&#45;08f6&#45;4d77&#45;928a&#45;9630f2334632&#45;&gt;e75ee404&#45;e8a6&#45;42ba&#45;bf93&#45;ecdc42d50864</title>
<path fill="none" stroke="black" stroke-width="1.5" d="M407.979,-121.9C429.811,-124.968 457.058,-128.797 481.897,-132.288"/>
<polygon fill="black" stroke="black" stroke-width="1.5" points="481.616,-135.783 492.006,-133.709 482.59,-128.851 481.616,-135.783"/>
</g>
<!-- fb3a43cd&#45;08f6&#45;4d77&#45;928a&#45;9630f2334632&#45;&gt;35e6e8f5&#45;07ed&#45;4e1f&#45;b20c&#45;fd17f4c295e3 -->
<g id="edge37" class="edge"><title>fb3a43cd&#45;08f6&#45;4d77&#45;928a&#45;9630f2334632&#45;&gt;35e6e8f5&#45;07ed&#45;4e1f&#45;b20c&#45;fd17f4c295e3</title>
<path fill="none" stroke="black" stroke-width="1.5" d="M407.577,-107.227C490.387,-92.4611 676.019,-73.4041 770,-175 844.467,-255.5 795.248,-311.804 842,-411 849.322,-426.536 859.679,-442.595 868.808,-455.502"/>
<polygon fill="black" stroke="black" stroke-width="1.5" points="866.181,-457.841 874.88,-463.889 871.851,-453.736 866.181,-457.841"/>
</g>
<!-- d7d675de&#45;a283&#45;4140&#45;800a&#45;16212c72cfa6 -->
<g id="node22" class="node"><title>d7d675de&#45;a283&#45;4140&#45;800a&#45;16212c72cfa6</title>
<polygon fill="none" stroke="black" stroke-width="2" points="937.111,-400 842.889,-400 842.889,-364 937.111,-364 937.111,-400"/>
<text text-anchor="middle" x="890" y="-377.8" font-family="sans-serif" font-size="14.00">minifyHtml</text>
</g>
<!-- 7be9aed0&#45;aaa5&#45;4978&#45;9c05&#45;a78a69544d33 -->
<g id="node33" class="node"><title>7be9aed0&#45;aaa5&#45;4978&#45;9c05&#45;a78a69544d33</title>
<polygon fill="limegreen" stroke="limegreen" points="1118.26,-487.3 1011.74,-487.3 1011.74,-434.7 1118.26,-434.7 1118.26,-487.3"/>
<text text-anchor="middle" x="1065" y="-456.8" font-family="sans-serif" font-size="14.00" fill="white">writeToProd</text>
</g>
<!-- d7d675de&#45;a283&#45;4140&#45;800a&#45;16212c72cfa6&#45;&gt;7be9aed0&#45;aaa5&#45;4978&#45;9c05&#45;a78a69544d33 -->
<g id="edge43" class="edge"><title>d7d675de&#45;a283&#45;4140&#45;800a&#45;16212c72cfa6&#45;&gt;7be9aed0&#45;aaa5&#45;4978&#45;9c05&#45;a78a69544d33</title>
<path fill="none" stroke="black" stroke-width="1.5" d="M930.69,-400.124C951.914,-409.816 978.518,-421.965 1002.37,-432.855"/>
<polygon fill="black" stroke="black" stroke-width="1.5" points="1001.15,-436.147 1011.7,-437.117 1004.06,-429.779 1001.15,-436.147"/>
</g>
<!-- 912eb3f8&#45;6fbc&#45;4b0e&#45;87a1&#45;5b0ef624a112&#45;&gt;7be9aed0&#45;aaa5&#45;4978&#45;9c05&#45;a78a69544d33 -->
<g id="edge44" class="edge"><title>912eb3f8&#45;6fbc&#45;4b0e&#45;87a1&#45;5b0ef624a112&#45;&gt;7be9aed0&#45;aaa5&#45;4978&#45;9c05&#45;a78a69544d33</title>
<path fill="none" stroke="black" stroke-width="1.5" d="M755.09,-222.052C795.652,-249.341 874.222,-303.209 938,-353 968.841,-377.077 1002.42,-406.002 1027.15,-427.855"/>
<polygon fill="black" stroke="black" stroke-width="1.5" points="1025.05,-430.671 1034.85,-434.687 1029.69,-425.433 1025.05,-430.671"/>
</g>
<!-- 21cabf2a&#45;4d8c&#45;482f&#45;ae79&#45;7cf6bfaf5276 -->
<g id="node24" class="node"><title>21cabf2a&#45;4d8c&#45;482f&#45;ae79&#45;7cf6bfaf5276</title>
<polygon fill="none" stroke="black" stroke-width="2" points="928.222,-558 851.778,-558 851.778,-522 928.222,-522 928.222,-558"/>
<text text-anchor="middle" x="890" y="-535.8" font-family="sans-serif" font-size="14.00">minifyJs</text>
</g>
<!-- 21cabf2a&#45;4d8c&#45;482f&#45;ae79&#45;7cf6bfaf5276&#45;&gt;7be9aed0&#45;aaa5&#45;4978&#45;9c05&#45;a78a69544d33 -->
<g id="edge45" class="edge"><title>21cabf2a&#45;4d8c&#45;482f&#45;ae79&#45;7cf6bfaf5276&#45;&gt;7be9aed0&#45;aaa5&#45;4978&#45;9c05&#45;a78a69544d33</title>
<path fill="none" stroke="black" stroke-width="1.5" d="M928.113,-523.053C949.682,-513.203 977.412,-500.54 1002.19,-489.225"/>
<polygon fill="black" stroke="black" stroke-width="1.5" points="1003.88,-492.3 1011.52,-484.963 1000.97,-485.933 1003.88,-492.3"/>
</g>
<!-- b5775f0f&#45;2ae9&#45;4c98&#45;804c&#45;5b62767e9c7a&#45;&gt;21cabf2a&#45;4d8c&#45;482f&#45;ae79&#45;7cf6bfaf5276 -->
<g id="edge15" class="edge"><title>b5775f0f&#45;2ae9&#45;4c98&#45;804c&#45;5b62767e9c7a&#45;&gt;21cabf2a&#45;4d8c&#45;482f&#45;ae79&#45;7cf6bfaf5276</title>
<path fill="none" stroke="black" stroke-width="1.5" d="M589.919,-540C651.167,-540 773.727,-540 841.393,-540"/>
<polygon fill="black" stroke="black" stroke-width="1.5" points="841.764,-543.5 851.764,-540 841.764,-536.5 841.764,-543.5"/>
</g>
<!-- b5775f0f&#45;2ae9&#45;4c98&#45;804c&#45;5b62767e9c7a&#45;&gt;bf8b0b9f&#45;0c73&#45;4ef5&#45;b363&#45;94fadf1a8796 -->
<g id="edge32" class="edge"><title>b5775f0f&#45;2ae9&#45;4c98&#45;804c&#45;5b62767e9c7a&#45;&gt;bf8b0b9f&#45;0c73&#45;4ef5&#45;b363&#45;94fadf1a8796</title>
<path fill="none" stroke="black" stroke-dasharray="5,2" d="M563.235,-521.756C583.37,-486.843 630.823,-409.235 684,-355 686.082,-352.877 688.32,-350.788 690.64,-348.761"/>
<polygon fill="none" stroke="black" points="693.211,-351.18 698.737,-342.14 688.78,-345.761 693.211,-351.18"/>
</g>
<!-- e75ee404&#45;e8a6&#45;42ba&#45;bf93&#45;ecdc42d50864&#45;&gt;912eb3f8&#45;6fbc&#45;4b0e&#45;87a1&#45;5b0ef624a112 -->
<g id="edge14" class="edge"><title>e75ee404&#45;e8a6&#45;42ba&#45;bf93&#45;ecdc42d50864&#45;&gt;912eb3f8&#45;6fbc&#45;4b0e&#45;87a1&#45;5b0ef624a112</title>
<path fill="none" stroke="black" stroke-width="1.5" d="M603.504,-160.1C625.831,-168.101 652.053,-177.499 674.495,-185.541"/>
<polygon fill="black" stroke="black" stroke-width="1.5" points="673.59,-188.935 684.184,-189.014 675.952,-182.346 673.59,-188.935"/>
</g>
<!-- e75ee404&#45;e8a6&#45;42ba&#45;bf93&#45;ecdc42d50864&#45;&gt;ba778213&#45;7c7f&#45;42ce&#45;940c&#45;f973bbd9294f -->
<g id="edge27" class="edge"><title>e75ee404&#45;e8a6&#45;42ba&#45;bf93&#45;ecdc42d50864&#45;&gt;ba778213&#45;7c7f&#45;42ce&#45;940c&#45;f973bbd9294f</title>
<path fill="none" stroke="black" stroke-dasharray="5,2" d="M598.903,-160.158C603.704,-163.291 608.207,-166.89 612,-171 670.997,-234.925 630.953,-284.058 684,-353 685.596,-355.074 687.366,-357.074 689.251,-358.992"/>
<polygon fill="none" stroke="black" points="687.195,-361.851 696.963,-365.953 691.885,-356.654 687.195,-361.851"/>
</g>
<!-- e75ee404&#45;e8a6&#45;42ba&#45;bf93&#45;ecdc42d50864&#45;&gt;bf8b0b9f&#45;0c73&#45;4ef5&#45;b363&#45;94fadf1a8796 -->
<g id="edge34" class="edge"><title>e75ee404&#45;e8a6&#45;42ba&#45;bf93&#45;ecdc42d50864&#45;&gt;bf8b0b9f&#45;0c73&#45;4ef5&#45;b363&#45;94fadf1a8796</title>
<path fill="none" stroke="black" stroke-dasharray="5,2" d="M596.073,-160.137C601.697,-163.359 607.173,-166.987 612,-171 655.77,-207.394 692.145,-263.869 711.331,-297.067"/>
<polygon fill="none" stroke="black" points="708.296,-298.81 716.279,-305.777 714.383,-295.353 708.296,-298.81"/>
</g>
<!-- f0099f8b&#45;13b7&#45;48b2&#45;9309&#45;3ab655f8e7f8&#45;&gt;b5775f0f&#45;2ae9&#45;4c98&#45;804c&#45;5b62767e9c7a -->
<g id="edge17" class="edge"><title>f0099f8b&#45;13b7&#45;48b2&#45;9309&#45;3ab655f8e7f8&#45;&gt;b5775f0f&#45;2ae9&#45;4c98&#45;804c&#45;5b62767e9c7a</title>
<path fill="none" stroke="black" stroke-width="1.5" d="M420.506,-572.447C447.134,-565.826 478.846,-557.941 504.341,-551.602"/>
<polygon fill="black" stroke="black" stroke-width="1.5" points="505.279,-554.975 514.139,-549.165 503.59,-548.182 505.279,-554.975"/>
</g>
<!-- f0099f8b&#45;13b7&#45;48b2&#45;9309&#45;3ab655f8e7f8&#45;&gt;ba778213&#45;7c7f&#45;42ce&#45;940c&#45;f973bbd9294f -->
<g id="edge28" class="edge"><title>f0099f8b&#45;13b7&#45;48b2&#45;9309&#45;3ab655f8e7f8&#45;&gt;ba778213&#45;7c7f&#45;42ce&#45;940c&#45;f973bbd9294f</title>
<path fill="none" stroke="black" stroke-dasharray="5,2" d="M420.601,-595.757C473.469,-602.257 553.933,-604.105 612,-569 671.055,-533.298 703.92,-454.165 717.871,-411.894"/>
<polygon fill="none" stroke="black" points="721.248,-412.825 720.94,-402.234 714.576,-410.705 721.248,-412.825"/>
</g>
<!-- ba778213&#45;7c7f&#45;42ce&#45;940c&#45;f973bbd9294f&#45;&gt;35e6e8f5&#45;07ed&#45;4e1f&#45;b20c&#45;fd17f4c295e3 -->
<g id="edge36" class="edge"><title>ba778213&#45;7c7f&#45;42ce&#45;940c&#45;f973bbd9294f&#45;&gt;35e6e8f5&#45;07ed&#45;4e1f&#45;b20c&#45;fd17f4c295e3</title>
<path fill="none" stroke="black" stroke-width="1.5" d="M757.906,-402.203C784,-418.087 822.021,-441.23 850.405,-458.507"/>
<polygon fill="black" stroke="black" stroke-width="1.5" points="848.893,-461.684 859.255,-463.894 852.532,-455.705 848.893,-461.684"/>
</g>
<!-- bf8b0b9f&#45;0c73&#45;4ef5&#45;b363&#45;94fadf1a8796&#45;&gt;d7d675de&#45;a283&#45;4140&#45;800a&#45;16212c72cfa6 -->
<g id="edge12" class="edge"><title>bf8b0b9f&#45;0c73&#45;4ef5&#45;b363&#45;94fadf1a8796&#45;&gt;d7d675de&#45;a283&#45;4140&#45;800a&#45;16212c72cfa6</title>
<path fill="none" stroke="black" stroke-width="1.5" d="M769.881,-339.087C789.184,-346.042 812.371,-354.395 833.137,-361.876"/>
<polygon fill="black" stroke="black" stroke-width="1.5" points="832.202,-365.259 842.796,-365.355 834.575,-358.673 832.202,-365.259"/>
</g>
<!-- 8c4a0e84&#45;e1ed&#45;4b12&#45;8036&#45;7f24208e61f8&#45;&gt;7be9aed0&#45;aaa5&#45;4978&#45;9c05&#45;a78a69544d33 -->
<g id="edge46" class="edge"><title>8c4a0e84&#45;e1ed&#45;4b12&#45;8036&#45;7f24208e61f8&#45;&gt;7be9aed0&#45;aaa5&#45;4978&#45;9c05&#45;a78a69544d33</title>
<path fill="none" stroke="black" stroke-width="1.5" d="M910.845,-601.761C939.312,-575.598 992.217,-526.974 1027.77,-494.298"/>
<polygon fill="black" stroke="black" stroke-width="1.5" points="1030.53,-496.519 1035.52,-487.175 1025.79,-491.365 1030.53,-496.519"/>
</g>
<!-- 35e6e8f5&#45;07ed&#45;4e1f&#45;b20c&#45;fd17f4c295e3&#45;&gt;891634d1&#45;ef77&#45;4c62&#45;9da9&#45;10813ce4844a -->
<g id="edge40" class="edge"><title>35e6e8f5&#45;07ed&#45;4e1f&#45;b20c&#45;fd17f4c295e3&#45;&gt;891634d1&#45;ef77&#45;4c62&#45;9da9&#45;10813ce4844a</title>
<path fill="none" stroke="black" stroke-width="1.5" d="M924.033,-500.104C928.947,-503.43 933.774,-507.097 938,-511 982.371,-551.98 1021.37,-610.598 1043.82,-647.72"/>
<polygon fill="black" stroke="black" stroke-width="1.5" points="1041.03,-649.878 1049.16,-656.67 1047.04,-646.29 1041.03,-649.878"/>
</g>
</g>
</svg>
