<?xml version="1.0" encoding="UTF-8" standalone="no"?>
<!DOCTYPE svg PUBLIC "-//W3C//DTD SVG 1.1//EN"
 "http://www.w3.org/Graphics/SVG/1.1/DTD/svg11.dtd">
<!-- Generated by graphviz version 2.28.0 (20140111.2315)
 -->
<!-- Title: one_gulp_streams_graph Pages: 1 -->
<svg width="972pt" height="475pt"
 viewBox="0.00 0.00 972.00 474.65" xmlns="http://www.w3.org/2000/svg" xmlns:xlink="http://www.w3.org/1999/xlink">
<g id="graph0" class="graph" transform="scale(1 1) rotate(0) translate(36 438.652)">
<title>one_gulp_streams_graph</title>
<polygon fill="white" stroke="none" points="-36,36 -36,-438.652 936,-438.652 936,36 -36,36"/>
<text text-anchor="middle" x="450" y="-380.652" font-family="sans-serif" font-size="20.00">one&#45;gulp streams graph</text>
<!-- ed1db27b&#45;9c0c&#45;4043&#45;a1a3&#45;1d63297c9d0c -->
<g id="node1" class="node"><title>ed1db27b&#45;9c0c&#45;4043&#45;a1a3&#45;1d63297c9d0c</title>
<ellipse fill="none" stroke="mediumslateblue" stroke-width="2" cx="316" cy="-256.596" rx="28.1045" ry="21.56"/>
<text text-anchor="middle" x="316" y="-252.396" font-family="sans-serif" font-size="14.00" fill="mediumslateblue">html</text>
</g>
<!-- c5303864&#45;a5be&#45;4290&#45;a0b3&#45;66307a4fa83c -->
<g id="node10" class="node"><title>c5303864&#45;a5be&#45;4290&#45;a0b3&#45;66307a4fa83c</title>
<polygon fill="none" stroke="black" stroke-width="2" points="536.423,-271.596 453.577,-271.596 453.577,-235.596 536.423,-235.596 536.423,-271.596"/>
<text text-anchor="middle" x="495" y="-249.396" font-family="sans-serif" font-size="14.00">injectDev</text>
</g>
<!-- ed1db27b&#45;9c0c&#45;4043&#45;a1a3&#45;1d63297c9d0c&#45;&gt;c5303864&#45;a5be&#45;4290&#45;a0b3&#45;66307a4fa83c -->
<g id="edge4" class="edge"><title>ed1db27b&#45;9c0c&#45;4043&#45;a1a3&#45;1d63297c9d0c&#45;&gt;c5303864&#45;a5be&#45;4290&#45;a0b3&#45;66307a4fa83c</title>
<path fill="none" stroke="mediumslateblue" stroke-width="1.5" d="M344.268,-256.134C370.607,-255.688 411.137,-255.001 443.39,-254.454"/>
<polygon fill="mediumslateblue" stroke="mediumslateblue" stroke-width="1.5" points="443.603,-257.951 453.543,-254.282 443.485,-250.952 443.603,-257.951"/>
</g>
<!-- e4d8a8aa&#45;ce13&#45;468d&#45;b3c5&#45;59f8168e11dd -->
<g id="node2" class="node"><title>e4d8a8aa&#45;ce13&#45;468d&#45;b3c5&#45;59f8168e11dd</title>
<ellipse fill="none" stroke="mediumslateblue" stroke-width="2" cx="153" cy="-53.5963" rx="27" ry="21.56"/>
<text text-anchor="middle" x="153" y="-49.3963" font-family="sans-serif" font-size="14.00" fill="mediumslateblue">css</text>
</g>
<!-- a477a86e&#45;6eed&#45;4452&#45;bef6&#45;ac7d250eb33c -->
<g id="node11" class="node"><title>a477a86e&#45;6eed&#45;4452&#45;bef6&#45;ac7d250eb33c</title>
<polygon fill="none" stroke="black" stroke-width="2" points="380.327,-146.596 251.673,-146.596 251.673,-110.596 380.327,-110.596 380.327,-146.596"/>
<text text-anchor="middle" x="316" y="-124.396" font-family="sans-serif" font-size="14.00">groupAndSortCss</text>
</g>
<!-- e4d8a8aa&#45;ce13&#45;468d&#45;b3c5&#45;59f8168e11dd&#45;&gt;a477a86e&#45;6eed&#45;4452&#45;bef6&#45;ac7d250eb33c -->
<g id="edge7" class="edge"><title>e4d8a8aa&#45;ce13&#45;468d&#45;b3c5&#45;59f8168e11dd&#45;&gt;a477a86e&#45;6eed&#45;4452&#45;bef6&#45;ac7d250eb33c</title>
<path fill="none" stroke="mediumslateblue" stroke-width="1.5" d="M176.726,-64.1829C200.034,-75.0407 236.999,-92.2605 266.847,-106.165"/>
<polygon fill="mediumslateblue" stroke="mediumslateblue" stroke-width="1.5" points="265.719,-109.501 276.262,-110.551 268.675,-103.155 265.719,-109.501"/>
</g>
<!-- 781e26a0&#45;f26a&#45;4e2f&#45;89f4&#45;95c0d70e1e09 -->
<g id="node13" class="node"><title>781e26a0&#45;f26a&#45;4e2f&#45;89f4&#45;95c0d70e1e09</title>
<polygon fill="limegreen" stroke="limegreen" points="899.584,-155.897 790.416,-155.897 790.416,-103.296 899.584,-103.296 899.584,-155.897"/>
<text text-anchor="middle" x="845" y="-125.396" font-family="sans-serif" font-size="14.00" fill="white">browserSync</text>
</g>
<!-- e4d8a8aa&#45;ce13&#45;468d&#45;b3c5&#45;59f8168e11dd&#45;&gt;781e26a0&#45;f26a&#45;4e2f&#45;89f4&#45;95c0d70e1e09 -->
<g id="edge15" class="edge"><title>e4d8a8aa&#45;ce13&#45;468d&#45;b3c5&#45;59f8168e11dd&#45;&gt;781e26a0&#45;f26a&#45;4e2f&#45;89f4&#45;95c0d70e1e09</title>
<path fill="none" stroke="mediumslateblue" stroke-width="1.5" d="M178.545,-46.5187C258.798,-24.639 519.649,36.4593 718,-31.5963 755.135,-44.3376 789.756,-72.9887 813.273,-96.039"/>
<polygon fill="mediumslateblue" stroke="mediumslateblue" stroke-width="1.5" points="810.97,-98.6859 820.508,-103.299 815.928,-93.7448 810.97,-98.6859"/>
</g>
<!-- 60bb3628&#45;acca&#45;4db4&#45;84a6&#45;4d0c26ecdb01 -->
<g id="node3" class="node"><title>60bb3628&#45;acca&#45;4db4&#45;84a6&#45;4d0c26ecdb01</title>
<ellipse fill="none" stroke="mediumslateblue" stroke-width="2" cx="316" cy="-190.596" rx="27" ry="21.56"/>
<text text-anchor="middle" x="316" y="-186.396" font-family="sans-serif" font-size="14.00" fill="mediumslateblue">js</text>
</g>
<!-- 60bb3628&#45;acca&#45;4db4&#45;84a6&#45;4d0c26ecdb01&#45;&gt;c5303864&#45;a5be&#45;4290&#45;a0b3&#45;66307a4fa83c -->
<g id="edge5" class="edge"><title>60bb3628&#45;acca&#45;4db4&#45;84a6&#45;4d0c26ecdb01&#45;&gt;c5303864&#45;a5be&#45;4290&#45;a0b3&#45;66307a4fa83c</title>
<path fill="none" stroke="mediumslateblue" stroke-dasharray="5,2" d="M340.871,-199.093C367.152,-208.447 410.151,-223.752 443.904,-235.765"/>
<polygon fill="none" stroke="mediumslateblue" points="443.009,-239.162 453.604,-239.218 445.357,-232.567 443.009,-239.162"/>
</g>
<!-- 60bb3628&#45;acca&#45;4db4&#45;84a6&#45;4d0c26ecdb01&#45;&gt;781e26a0&#45;f26a&#45;4e2f&#45;89f4&#45;95c0d70e1e09 -->
<g id="edge14" class="edge"><title>60bb3628&#45;acca&#45;4db4&#45;84a6&#45;4d0c26ecdb01&#45;&gt;781e26a0&#45;f26a&#45;4e2f&#45;89f4&#45;95c0d70e1e09</title>
<path fill="none" stroke="mediumslateblue" stroke-width="1.5" d="M343.086,-191.811C407.422,-194.277 578.577,-197.623 718,-171.596 738.843,-167.706 760.969,-161.191 780.767,-154.44"/>
<polygon fill="mediumslateblue" stroke="mediumslateblue" stroke-width="1.5" points="781.996,-157.718 790.283,-151.117 779.689,-151.109 781.996,-157.718"/>
</g>
<!-- f3739e3e&#45;ac04&#45;4816&#45;b0e7&#45;78cce2ed4c3c -->
<g id="node4" class="node"><title>f3739e3e&#45;ac04&#45;4816&#45;b0e7&#45;78cce2ed4c3c</title>
<ellipse fill="none" stroke="mediumslateblue" stroke-width="2" cx="664" cy="-64.5963" rx="37.8797" ry="21.56"/>
<text text-anchor="middle" x="664" y="-60.3963" font-family="sans-serif" font-size="14.00" fill="mediumslateblue">images</text>
</g>
<!-- f3739e3e&#45;ac04&#45;4816&#45;b0e7&#45;78cce2ed4c3c&#45;&gt;781e26a0&#45;f26a&#45;4e2f&#45;89f4&#45;95c0d70e1e09 -->
<g id="edge16" class="edge"><title>f3739e3e&#45;ac04&#45;4816&#45;b0e7&#45;78cce2ed4c3c&#45;&gt;781e26a0&#45;f26a&#45;4e2f&#45;89f4&#45;95c0d70e1e09</title>
<path fill="none" stroke="mediumslateblue" stroke-width="1.5" d="M696.59,-76.0674C719.854,-84.5154 752.267,-96.2856 780.777,-106.638"/>
<polygon fill="mediumslateblue" stroke="mediumslateblue" stroke-width="1.5" points="779.683,-109.965 790.277,-110.088 782.072,-103.385 779.683,-109.965"/>
</g>
<!-- 76664faf&#45;3eaa&#45;4c26&#45;bad1&#45;a45361eaf755 -->
<g id="node5" class="node"><title>76664faf&#45;3eaa&#45;4c26&#45;bad1&#45;a45361eaf755</title>
<ellipse fill="none" stroke="mediumslateblue" stroke-width="2" cx="27" cy="-291.596" rx="27" ry="21.56"/>
<text text-anchor="middle" x="27" y="-287.396" font-family="sans-serif" font-size="14.00" fill="mediumslateblue">scss</text>
</g>
<!-- e80bc9a9&#45;89ce&#45;428b&#45;96d4&#45;00e35a98c5d4 -->
<g id="node7" class="node"><title>e80bc9a9&#45;89ce&#45;428b&#45;96d4&#45;00e35a98c5d4</title>
<polygon fill="none" stroke="black" stroke-width="2" points="180,-309.596 126,-309.596 126,-273.596 180,-273.596 180,-309.596"/>
<text text-anchor="middle" x="153" y="-287.396" font-family="sans-serif" font-size="14.00">sass</text>
</g>
<!-- 76664faf&#45;3eaa&#45;4c26&#45;bad1&#45;a45361eaf755&#45;&gt;e80bc9a9&#45;89ce&#45;428b&#45;96d4&#45;00e35a98c5d4 -->
<g id="edge1" class="edge"><title>76664faf&#45;3eaa&#45;4c26&#45;bad1&#45;a45361eaf755&#45;&gt;e80bc9a9&#45;89ce&#45;428b&#45;96d4&#45;00e35a98c5d4</title>
<path fill="none" stroke="mediumslateblue" stroke-width="1.5" d="M54.2972,-291.596C72.1346,-291.596 95.9529,-291.596 115.607,-291.596"/>
<polygon fill="mediumslateblue" stroke="mediumslateblue" stroke-width="1.5" points="115.741,-295.096 125.741,-291.596 115.741,-288.096 115.741,-295.096"/>
</g>
<!-- 93bd51c5&#45;24bb&#45;4989&#45;a3d1&#45;e50fbbc69234 -->
<g id="node6" class="node"><title>93bd51c5&#45;24bb&#45;4989&#45;a3d1&#45;e50fbbc69234</title>
<ellipse fill="none" stroke="mediumslateblue" stroke-width="2" cx="27" cy="-159.596" rx="27" ry="21.56"/>
<text text-anchor="middle" x="27" y="-155.396" font-family="sans-serif" font-size="14.00" fill="mediumslateblue">less</text>
</g>
<!-- 31bcc9c9&#45;4e64&#45;4a08&#45;b5e1&#45;7af5dc40922c -->
<g id="node8" class="node"><title>31bcc9c9&#45;4e64&#45;4a08&#45;b5e1&#45;7af5dc40922c</title>
<polygon fill="none" stroke="black" stroke-width="2" points="180,-177.596 126,-177.596 126,-141.596 180,-141.596 180,-177.596"/>
<text text-anchor="middle" x="153" y="-155.396" font-family="sans-serif" font-size="14.00">less</text>
</g>
<!-- 93bd51c5&#45;24bb&#45;4989&#45;a3d1&#45;e50fbbc69234&#45;&gt;31bcc9c9&#45;4e64&#45;4a08&#45;b5e1&#45;7af5dc40922c -->
<g id="edge2" class="edge"><title>93bd51c5&#45;24bb&#45;4989&#45;a3d1&#45;e50fbbc69234&#45;&gt;31bcc9c9&#45;4e64&#45;4a08&#45;b5e1&#45;7af5dc40922c</title>
<path fill="none" stroke="mediumslateblue" stroke-width="1.5" d="M54.2972,-159.596C72.1346,-159.596 95.9529,-159.596 115.607,-159.596"/>
<polygon fill="mediumslateblue" stroke="mediumslateblue" stroke-width="1.5" points="115.741,-163.096 125.741,-159.596 115.741,-156.096 115.741,-163.096"/>
</g>
<!-- e80bc9a9&#45;89ce&#45;428b&#45;96d4&#45;00e35a98c5d4&#45;&gt;a477a86e&#45;6eed&#45;4452&#45;bef6&#45;ac7d250eb33c -->
<g id="edge9" class="edge"><title>e80bc9a9&#45;89ce&#45;428b&#45;96d4&#45;00e35a98c5d4&#45;&gt;a477a86e&#45;6eed&#45;4452&#45;bef6&#45;ac7d250eb33c</title>
<path fill="none" stroke="black" stroke-width="1.5" d="M163.401,-273.266C178.634,-245.11 211.167,-190.981 252,-157.596 254.393,-155.64 256.94,-153.784 259.585,-152.029"/>
<polygon fill="black" stroke="black" stroke-width="1.5" points="261.553,-154.929 268.303,-146.762 257.933,-148.937 261.553,-154.929"/>
</g>
<!-- e92fcd50&#45;4286&#45;416f&#45;946b&#45;23756e913a8e -->
<g id="node12" class="node"><title>e92fcd50&#45;4286&#45;416f&#45;946b&#45;23756e913a8e</title>
<polygon fill="none" stroke="black" stroke-width="2" points="711.637,-302.596 616.363,-302.596 616.363,-266.596 711.637,-266.596 711.637,-302.596"/>
<text text-anchor="middle" x="664" y="-280.396" font-family="sans-serif" font-size="14.00">writeToDev</text>
</g>
<!-- e80bc9a9&#45;89ce&#45;428b&#45;96d4&#45;00e35a98c5d4&#45;&gt;e92fcd50&#45;4286&#45;416f&#45;946b&#45;23756e913a8e -->
<g id="edge11" class="edge"><title>e80bc9a9&#45;89ce&#45;428b&#45;96d4&#45;00e35a98c5d4&#45;&gt;e92fcd50&#45;4286&#45;416f&#45;946b&#45;23756e913a8e</title>
<path fill="none" stroke="black" stroke-width="1.5" d="M180.25,-304.847C199.548,-313.817 226.709,-324.865 252,-329.596 376.943,-352.972 412.781,-351.449 538,-329.596 563.945,-325.068 591.614,-315.627 614.308,-306.556"/>
<polygon fill="black" stroke="black" stroke-width="1.5" points="615.781,-309.735 623.709,-302.706 613.129,-303.257 615.781,-309.735"/>
</g>
<!-- 31bcc9c9&#45;4e64&#45;4a08&#45;b5e1&#45;7af5dc40922c&#45;&gt;a477a86e&#45;6eed&#45;4452&#45;bef6&#45;ac7d250eb33c -->
<g id="edge8" class="edge"><title>31bcc9c9&#45;4e64&#45;4a08&#45;b5e1&#45;7af5dc40922c&#45;&gt;a477a86e&#45;6eed&#45;4452&#45;bef6&#45;ac7d250eb33c</title>
<path fill="none" stroke="black" stroke-width="1.5" d="M180.226,-154.547C196.993,-151.318 219.641,-146.957 241.582,-142.733"/>
<polygon fill="black" stroke="black" stroke-width="1.5" points="242.432,-146.133 251.59,-140.806 241.108,-139.26 242.432,-146.133"/>
</g>
<!-- 31bcc9c9&#45;4e64&#45;4a08&#45;b5e1&#45;7af5dc40922c&#45;&gt;e92fcd50&#45;4286&#45;416f&#45;946b&#45;23756e913a8e -->
<g id="edge10" class="edge"><title>31bcc9c9&#45;4e64&#45;4a08&#45;b5e1&#45;7af5dc40922c&#45;&gt;e92fcd50&#45;4286&#45;416f&#45;946b&#45;23756e913a8e</title>
<path fill="none" stroke="black" stroke-width="1.5" d="M161.463,-178.042C174.638,-207.783 205.137,-265.346 252,-288.596 367.173,-345.739 523.815,-320.465 606.502,-300.48"/>
<polygon fill="black" stroke="black" stroke-width="1.5" points="607.346,-303.877 616.212,-298.075 605.663,-297.082 607.346,-303.877"/>
</g>
<!-- a80445ce&#45;4813&#45;4b64&#45;afa4&#45;f507ad729b69 -->
<g id="node9" class="node"><title>a80445ce&#45;4813&#45;4b64&#45;afa4&#45;f507ad729b69</title>
<polygon fill="none" stroke="black" stroke-width="2" points="537.261,-149.596 452.739,-149.596 452.739,-113.596 537.261,-113.596 537.261,-149.596"/>
<text text-anchor="middle" x="495" y="-127.396" font-family="sans-serif" font-size="14.00">concatCss</text>
</g>
<!-- 4430cd9a&#45;fb64&#45;4535&#45;a5fd&#45;636d57d1c249 -->
<g id="node14" class="node"><title>4430cd9a&#45;fb64&#45;4535&#45;a5fd&#45;636d57d1c249</title>
<polygon fill="limegreen" stroke="limegreen" points="717.259,-160.897 610.741,-160.897 610.741,-108.296 717.259,-108.296 717.259,-160.897"/>
<text text-anchor="middle" x="664" y="-130.396" font-family="sans-serif" font-size="14.00" fill="white">writeToProd</text>
</g>
<!-- a80445ce&#45;4813&#45;4b64&#45;afa4&#45;f507ad729b69&#45;&gt;4430cd9a&#45;fb64&#45;4535&#45;a5fd&#45;636d57d1c249 -->
<g id="edge17" class="edge"><title>a80445ce&#45;4813&#45;4b64&#45;afa4&#45;f507ad729b69&#45;&gt;4430cd9a&#45;fb64&#45;4535&#45;a5fd&#45;636d57d1c249</title>
<path fill="none" stroke="black" stroke-width="1.5" d="M537.281,-132.338C556.289,-132.679 579.259,-133.092 600.336,-133.471"/>
<polygon fill="black" stroke="black" stroke-width="1.5" points="600.444,-136.973 610.506,-133.653 600.57,-129.974 600.444,-136.973"/>
</g>
<!-- c5303864&#45;a5be&#45;4290&#45;a0b3&#45;66307a4fa83c&#45;&gt;e92fcd50&#45;4286&#45;416f&#45;946b&#45;23756e913a8e -->
<g id="edge12" class="edge"><title>c5303864&#45;a5be&#45;4290&#45;a0b3&#45;66307a4fa83c&#45;&gt;e92fcd50&#45;4286&#45;416f&#45;946b&#45;23756e913a8e</title>
<path fill="none" stroke="black" stroke-width="1.5" d="M536.426,-261.101C557.364,-264.987 583.278,-269.798 606.194,-274.051"/>
<polygon fill="black" stroke="black" stroke-width="1.5" points="605.674,-277.515 616.145,-275.899 606.951,-270.632 605.674,-277.515"/>
</g>
<!-- a477a86e&#45;6eed&#45;4452&#45;bef6&#45;ac7d250eb33c&#45;&gt;a80445ce&#45;4813&#45;4b64&#45;afa4&#45;f507ad729b69 -->
<g id="edge3" class="edge"><title>a477a86e&#45;6eed&#45;4452&#45;bef6&#45;ac7d250eb33c&#45;&gt;a80445ce&#45;4813&#45;4b64&#45;afa4&#45;f507ad729b69</title>
<path fill="none" stroke="black" stroke-width="1.5" d="M380.401,-129.671C400.749,-130.016 423.028,-130.393 442.423,-130.722"/>
<polygon fill="black" stroke="black" stroke-width="1.5" points="442.515,-134.224 452.573,-130.894 442.634,-127.225 442.515,-134.224"/>
</g>
<!-- a477a86e&#45;6eed&#45;4452&#45;bef6&#45;ac7d250eb33c&#45;&gt;c5303864&#45;a5be&#45;4290&#45;a0b3&#45;66307a4fa83c -->
<g id="edge6" class="edge"><title>a477a86e&#45;6eed&#45;4452&#45;bef6&#45;ac7d250eb33c&#45;&gt;c5303864&#45;a5be&#45;4290&#45;a0b3&#45;66307a4fa83c</title>
<path fill="none" stroke="black" stroke-dasharray="5,2" d="M360.515,-146.755C367.2,-150.074 373.901,-153.724 380,-157.596 412.633,-178.313 446,-207.542 468.132,-228.293"/>
<polygon fill="none" stroke="black" points="465.807,-230.912 475.472,-235.252 470.623,-225.832 465.807,-230.912"/>
</g>
<!-- e92fcd50&#45;4286&#45;416f&#45;946b&#45;23756e913a8e&#45;&gt;781e26a0&#45;f26a&#45;4e2f&#45;89f4&#45;95c0d70e1e09 -->
<g id="edge13" class="edge"><title>e92fcd50&#45;4286&#45;416f&#45;946b&#45;23756e913a8e&#45;&gt;781e26a0&#45;f26a&#45;4e2f&#45;89f4&#45;95c0d70e1e09</title>
<path fill="none" stroke="black" stroke-width="1.5" d="M685.884,-266.513C715.207,-241.121 769.087,-194.465 805.716,-162.747"/>
<polygon fill="black" stroke="black" stroke-width="1.5" points="808.444,-165.015 813.713,-155.823 803.862,-159.723 808.444,-165.015"/>
</g>
</g>
</svg>
