<?xml version="1.0" encoding="UTF-8" standalone="no"?>
<!DOCTYPE svg PUBLIC "-//W3C//DTD SVG 1.1//EN"
 "http://www.w3.org/Graphics/SVG/1.1/DTD/svg11.dtd">
<!-- Generated by graphviz version 2.28.0 (20140111.2315)
 -->
<!-- Title: one_gulp_streams_graph Pages: 1 -->
<svg width="632pt" height="344pt"
 viewBox="0.00 0.00 632.00 344.00" xmlns="http://www.w3.org/2000/svg" xmlns:xlink="http://www.w3.org/1999/xlink">
<g id="graph0" class="graph" transform="scale(1 1) rotate(0) translate(36 308)">
<title>one_gulp_streams_graph</title>
<polygon fill="white" stroke="none" points="-36,36 -36,-308 596,-308 596,36 -36,36"/>
<text text-anchor="middle" x="280" y="-250" font-family="sans-serif" font-size="20.00">one&#45;gulp streams graph</text>
<!-- aeff6709&#45;ad27&#45;49f1&#45;8eab&#45;3e651c1ca61d -->
<g id="node1" class="node"><title>aeff6709&#45;ad27&#45;49f1&#45;8eab&#45;3e651c1ca61d</title>
<ellipse fill="none" stroke="mediumslateblue" stroke-width="2" cx="28" cy="-129" rx="28.1045" ry="21.56"/>
<text text-anchor="middle" x="28" y="-124.8" font-family="sans-serif" font-size="14.00" fill="mediumslateblue">html</text>
</g>
<!-- 400f9833&#45;0a24&#45;4022&#45;80e3&#45;71ff3cda5dbb -->
<g id="node5" class="node"><title>400f9833&#45;0a24&#45;4022&#45;80e3&#45;71ff3cda5dbb</title>
<polygon fill="none" stroke="black" stroke-width="2" points="210.423,-147 127.577,-147 127.577,-111 210.423,-111 210.423,-147"/>
<text text-anchor="middle" x="169" y="-124.8" font-family="sans-serif" font-size="14.00">injectDev</text>
</g>
<!-- aeff6709&#45;ad27&#45;49f1&#45;8eab&#45;3e651c1ca61d&#45;&gt;400f9833&#45;0a24&#45;4022&#45;80e3&#45;71ff3cda5dbb -->
<g id="edge1" class="edge"><title>aeff6709&#45;ad27&#45;49f1&#45;8eab&#45;3e651c1ca61d&#45;&gt;400f9833&#45;0a24&#45;4022&#45;80e3&#45;71ff3cda5dbb</title>
<path fill="none" stroke="mediumslateblue" d="M56.1306,-129C73.5683,-129 96.7603,-129 117.505,-129"/>
<polygon fill="mediumslateblue" stroke="mediumslateblue" points="117.771,-132.5 127.771,-129 117.771,-125.5 117.771,-132.5"/>
</g>
<!-- 693a9daa&#45;2136&#45;41ad&#45;8fd4&#45;4f120d695bb0 -->
<g id="node2" class="node"><title>693a9daa&#45;2136&#45;41ad&#45;8fd4&#45;4f120d695bb0</title>
<ellipse fill="none" stroke="mediumslateblue" stroke-width="2" cx="28" cy="-195" rx="27" ry="21.56"/>
<text text-anchor="middle" x="28" y="-190.8" font-family="sans-serif" font-size="14.00" fill="mediumslateblue">css</text>
</g>
<!-- 693a9daa&#45;2136&#45;41ad&#45;8fd4&#45;4f120d695bb0&#45;&gt;400f9833&#45;0a24&#45;4022&#45;80e3&#45;71ff3cda5dbb -->
<g id="edge2" class="edge"><title>693a9daa&#45;2136&#45;41ad&#45;8fd4&#45;4f120d695bb0&#45;&gt;400f9833&#45;0a24&#45;4022&#45;80e3&#45;71ff3cda5dbb</title>
<path fill="none" stroke="gray" stroke-dasharray="5,2" d="M51.6421,-184.249C70.3183,-175.381 97.4444,-162.501 120.808,-151.408"/>
<polygon fill="gray" stroke="gray" points="122.353,-154.549 129.885,-147.098 119.35,-148.225 122.353,-154.549"/>
</g>
<!-- 378ac0f7&#45;c6d8&#45;4d02&#45;ae8f&#45;883a94ef9655 -->
<g id="node7" class="node"><title>378ac0f7&#45;c6d8&#45;4d02&#45;ae8f&#45;883a94ef9655</title>
<polygon fill="limegreen" stroke="limegreen" points="559.584,-129.3 450.416,-129.3 450.416,-76.6996 559.584,-76.6996 559.584,-129.3"/>
<text text-anchor="middle" x="505" y="-98.8" font-family="sans-serif" font-size="14.00" fill="white">browserSync</text>
</g>
<!-- 693a9daa&#45;2136&#45;41ad&#45;8fd4&#45;4f120d695bb0&#45;&gt;378ac0f7&#45;c6d8&#45;4d02&#45;ae8f&#45;883a94ef9655 -->
<g id="edge7" class="edge"><title>693a9daa&#45;2136&#45;41ad&#45;8fd4&#45;4f120d695bb0&#45;&gt;378ac0f7&#45;c6d8&#45;4d02&#45;ae8f&#45;883a94ef9655</title>
<path fill="none" stroke="mediumslateblue" d="M55.3233,-194.931C114.18,-194.191 260.487,-189.085 378,-158 400.411,-152.072 423.953,-142.725 444.543,-133.407"/>
<polygon fill="mediumslateblue" stroke="mediumslateblue" points="446.17,-136.511 453.78,-129.14 443.234,-130.156 446.17,-136.511"/>
</g>
<!-- 9917a8cd&#45;21b8&#45;4e53&#45;86f5&#45;e10293ac561b -->
<g id="node3" class="node"><title>9917a8cd&#45;21b8&#45;4e53&#45;86f5&#45;e10293ac561b</title>
<ellipse fill="none" stroke="mediumslateblue" stroke-width="2" cx="28" cy="-63" rx="27" ry="21.56"/>
<text text-anchor="middle" x="28" y="-58.8" font-family="sans-serif" font-size="14.00" fill="mediumslateblue">js</text>
</g>
<!-- 9917a8cd&#45;21b8&#45;4e53&#45;86f5&#45;e10293ac561b&#45;&gt;400f9833&#45;0a24&#45;4022&#45;80e3&#45;71ff3cda5dbb -->
<g id="edge3" class="edge"><title>9917a8cd&#45;21b8&#45;4e53&#45;86f5&#45;e10293ac561b&#45;&gt;400f9833&#45;0a24&#45;4022&#45;80e3&#45;71ff3cda5dbb</title>
<path fill="none" stroke="gray" stroke-dasharray="5,2" d="M51.6421,-73.7509C70.3183,-82.6187 97.4444,-95.4988 120.808,-106.592"/>
<polygon fill="gray" stroke="gray" points="119.35,-109.775 129.885,-110.902 122.353,-103.451 119.35,-109.775"/>
</g>
<!-- 9917a8cd&#45;21b8&#45;4e53&#45;86f5&#45;e10293ac561b&#45;&gt;378ac0f7&#45;c6d8&#45;4d02&#45;ae8f&#45;883a94ef9655 -->
<g id="edge6" class="edge"><title>9917a8cd&#45;21b8&#45;4e53&#45;86f5&#45;e10293ac561b&#45;&gt;378ac0f7&#45;c6d8&#45;4d02&#45;ae8f&#45;883a94ef9655</title>
<path fill="none" stroke="mediumslateblue" d="M54.8754,-65.179C127.383,-71.2849 334.135,-88.6956 439.934,-97.605"/>
<polygon fill="mediumslateblue" stroke="mediumslateblue" points="439.9,-101.114 450.159,-98.466 440.488,-94.1391 439.9,-101.114"/>
</g>
<!-- e0b5cedc&#45;67e5&#45;4a16&#45;9b62&#45;e63a58dd52b8 -->
<g id="node4" class="node"><title>e0b5cedc&#45;67e5&#45;4a16&#45;9b62&#45;e63a58dd52b8</title>
<ellipse fill="none" stroke="mediumslateblue" stroke-width="2" cx="330" cy="-21" rx="37.8797" ry="21.56"/>
<text text-anchor="middle" x="330" y="-16.8" font-family="sans-serif" font-size="14.00" fill="mediumslateblue">images</text>
</g>
<!-- e0b5cedc&#45;67e5&#45;4a16&#45;9b62&#45;e63a58dd52b8&#45;&gt;378ac0f7&#45;c6d8&#45;4d02&#45;ae8f&#45;883a94ef9655 -->
<g id="edge8" class="edge"><title>e0b5cedc&#45;67e5&#45;4a16&#45;9b62&#45;e63a58dd52b8&#45;&gt;378ac0f7&#45;c6d8&#45;4d02&#45;ae8f&#45;883a94ef9655</title>
<path fill="none" stroke="mediumslateblue" d="M359.567,-34.5406C381.641,-45.0031 413.029,-59.8806 440.908,-73.0952"/>
<polygon fill="mediumslateblue" stroke="mediumslateblue" points="439.675,-76.3837 450.21,-77.5042 442.673,-70.0583 439.675,-76.3837"/>
</g>
<!-- 9c01a367&#45;e8a8&#45;47a9&#45;9544&#45;def2fad73856 -->
<g id="node6" class="node"><title>9c01a367&#45;e8a8&#45;47a9&#45;9544&#45;def2fad73856</title>
<polygon fill="none" stroke="black" stroke-width="2" points="377.637,-147 282.363,-147 282.363,-111 377.637,-111 377.637,-147"/>
<text text-anchor="middle" x="330" y="-124.8" font-family="sans-serif" font-size="14.00">writeToDev</text>
</g>
<!-- 400f9833&#45;0a24&#45;4022&#45;80e3&#45;71ff3cda5dbb&#45;&gt;9c01a367&#45;e8a8&#45;47a9&#45;9544&#45;def2fad73856 -->
<g id="edge4" class="edge"><title>400f9833&#45;0a24&#45;4022&#45;80e3&#45;71ff3cda5dbb&#45;&gt;9c01a367&#45;e8a8&#45;47a9&#45;9544&#45;def2fad73856</title>
<path fill="none" stroke="black" d="M210.534,-129C229.267,-129 251.834,-129 272.225,-129"/>
<polygon fill="black" stroke="black" points="272.344,-132.5 282.344,-129 272.344,-125.5 272.344,-132.5"/>
</g>
<!-- 9c01a367&#45;e8a8&#45;47a9&#45;9544&#45;def2fad73856&#45;&gt;378ac0f7&#45;c6d8&#45;4d02&#45;ae8f&#45;883a94ef9655 -->
<g id="edge5" class="edge"><title>9c01a367&#45;e8a8&#45;47a9&#45;9544&#45;def2fad73856&#45;&gt;378ac0f7&#45;c6d8&#45;4d02&#45;ae8f&#45;883a94ef9655</title>
<path fill="none" stroke="black" d="M377.816,-121.964C397.079,-119.069 419.695,-115.67 440.418,-112.556"/>
<polygon fill="black" stroke="black" points="441.048,-116 450.417,-111.053 440.008,-109.078 441.048,-116"/>
</g>
</g>
</svg>
